<?xml version="1.0" encoding="UTF-8" standalone="no"?>
<!-- Created with Inkscape (http://www.inkscape.org/) -->

<svg
   version="1.1"
   id="svg1"
   width="6000"
   height="4000"
   viewBox="0 0 6000 4000"
   sodipodi:docname="hands.svg"
   inkscape:version="1.3.2 (091e20e, 2023-11-25, custom)"
   inkscape:export-filename="hands.png"
   inkscape:export-xdpi="96"
   inkscape:export-ydpi="96"
   xmlns:inkscape="http://www.inkscape.org/namespaces/inkscape"
   xmlns:sodipodi="http://sodipodi.sourceforge.net/DTD/sodipodi-0.dtd"
   xmlns="http://www.w3.org/2000/svg"
   xmlns:svg="http://www.w3.org/2000/svg">
  <defs
     id="defs1">
    <inkscape:path-effect
       effect="slice"
       start_point="1895.0551,1152.8555"
       end_point="1895.0551,3491.7593"
       center_point="1895.0551,2322.3074"
       id="path-effect27"
       is_visible="true"
       lpeversion="1.2"
       lpesatellites="#path27"
       allow_transforms="true" />
    <inkscape:path-effect
       effect="slice"
       start_point="1897.76,1151.36"
       end_point="1895.0551,3491.7593"
       center_point="1896.4075,2321.5597"
       id="path-effect26"
       is_visible="true"
       lpeversion="1.2"
       lpesatellites=""
       allow_transforms="true" />
    <inkscape:path-effect
       effect="simplify"
       id="path-effect22"
       is_visible="true"
       lpeversion="1.3"
       threshold="0.95330189"
       steps="1"
       smooth_angles="360"
       helper_size="10"
       simplify_individual_paths="false"
       simplify_just_coalesce="false" />
    <inkscape:path-effect
       effect="simplify"
       id="path-effect17"
       is_visible="true"
       lpeversion="1.3"
       threshold="0.95330189"
       steps="1"
       smooth_angles="360"
       helper_size="10"
       simplify_individual_paths="false"
       simplify_just_coalesce="false" />
    <inkscape:path-effect
       effect="simplify"
       id="path-effect12"
       is_visible="true"
       lpeversion="1.3"
       threshold="0.95330189"
       steps="1"
       smooth_angles="360"
       helper_size="10"
       simplify_individual_paths="false"
       simplify_just_coalesce="false" />
    <inkscape:path-effect
       effect="simplify"
       id="path-effect7"
       is_visible="true"
       lpeversion="1.3"
       threshold="0.95330189"
       steps="1"
       smooth_angles="360"
       helper_size="10"
       simplify_individual_paths="false"
       simplify_just_coalesce="false" />
    <inkscape:path-effect
       effect="simplify"
       id="path-effect5"
       is_visible="true"
       lpeversion="1.3"
       threshold="0.95330189"
       steps="1"
       smooth_angles="360"
       helper_size="10"
       simplify_individual_paths="false"
       simplify_just_coalesce="false" />
  </defs>
  <sodipodi:namedview
     id="namedview1"
     pagecolor="#ffffff"
     bordercolor="#000000"
     borderopacity="0.25"
     inkscape:showpageshadow="2"
     inkscape:pageopacity="0.0"
     inkscape:pagecheckerboard="0"
     inkscape:deskcolor="#d1d1d1"
     showgrid="false"
     inkscape:zoom="0.14165706"
     inkscape:cx="3317.8721"
     inkscape:cy="2022.4901"
     inkscape:window-width="1920"
     inkscape:window-height="991"
     inkscape:window-x="-9"
     inkscape:window-y="-9"
     inkscape:window-maximized="1"
     inkscape:current-layer="layer1" />
  <g
     inkscape:groupmode="layer"
     id="layer5"
     inkscape:label="light_brown"
     transform="rotate(11.028264,550.06981,336.93463)"
     sodipodi:insensitive="true">
    <path
       style="opacity:1;fill:#c17d11;stroke:#000000;stroke-width:0;stroke-linecap:square"
       d="m 424.92363,2606.5494 c 231.28096,-106.4891 488.23569,-169.2803 693.84357,-319.4676 104.9055,-76.6287 218.5192,-142.5775 314.7405,-229.8571 53.2212,-48.2754 113.523,-89.7468 159.6987,-144.7925 123.7403,-147.51 247.9898,-294.595 371.2497,-442.5066 22.5962,-27.1154 36.902,-64.2628 67.7887,-81.3463 26.5164,-14.6663 49.3107,-42.0378 79.5493,-43.9989 17.1729,-1.1138 34.8369,-7.5365 51.5275,-3.4479 9.9606,2.44 21.707,1.1493 29.9425,7.1887 8.7281,6.4006 21.9955,9.2218 26.1843,19.2019 2.2758,5.4223 7.7432,10.472 7.0176,16.238 -1.2556,9.9771 0.8659,21.0165 -3.6476,29.9669 -7.6966,15.2624 -11.8283,32.9357 -23.0162,45.8365 -14.8321,17.1029 -27.365,36.5144 -44.425,51.3798 -24.6498,21.4789 -48.836,43.5016 -73.8858,64.5111 -16.9598,14.2243 -40.2475,23.2583 -50.8793,42.6729 -13.5303,24.7075 -46.4934,46.5783 -40.591,74.1227 1.7648,8.2358 -2.4221,21.3315 5.2945,24.7075 9.4124,4.1179 19.3437,17.4974 28.2372,12.3538 64.2139,-37.1383 131.8993,-68.8369 192.6585,-111.3888 70.5812,-49.4305 145.4024,-93.3029 211.7615,-148.2684 48.444,-40.1264 94.905,-82.7767 145.2988,-120.4217 62.9643,-47.0353 123.7,-97.2131 188.8647,-141.1461 16.3018,-10.9904 30.3624,-26.4549 48.8647,-33.0512 14.7185,-5.2473 28.6805,-13.6047 44.1381,-15.8129 12.236,-1.748 24.982,-9.1526 36.7079,-5.244 12.3538,4.1179 29.016,2.1144 37.0613,12.3538 6.471,8.2358 17.4166,14.4256 19.4131,24.7075 1.0749,5.5356 4.0412,11.0242 3.4549,16.5937 -1.1516,10.9405 4.1463,24.869 -3.4549,32.8215 -10.7996,11.2986 -20.0501,24.3193 -32.3282,33.9733 -79.9291,62.8465 -152.4964,136.4033 -239.7616,188.5776 -33.7145,20.1573 -68.6804,38.3571 -101.176,60.4209 -21.5298,14.6183 -47.3708,24.3508 -64.6481,43.7878 -9.3334,10.5 -29.1668,17.5 -28.0001,31.5 0.5883,7.0593 -5.3032,20.7067 1.7649,21.1779 8.8241,0.5883 18.3328,5.2227 26.4724,1.7648 30.7878,-13.0795 63.1133,-23.0136 92.3961,-39.1714 115.0473,-63.4812 229.7028,-127.6785 345.1205,-190.4833 57.2294,-31.1415 112.0195,-67.2616 171.6752,-93.4519 24.0102,-10.5412 46.049,-35.1664 72.0308,-31.6234 12.9421,1.7648 27.8389,-1.7688 38.8262,5.2945 8.2359,5.2945 20.6529,6.9717 24.7076,15.8835 4.178,9.1827 9.7053,17.8649 12.6687,27.4962 2.2481,7.3063 11.0568,15.6072 6.7443,21.9189 -4.8421,7.0868 -7.2033,16.8074 -14.4204,21.3688 -57.8677,36.5743 -114.2192,75.6672 -173.5799,109.7621 -103.3037,59.3344 -205.9659,119.8011 -309.8888,178.0436 -52.287,29.3037 -128.8167,34.9382 -156.8612,87.9112 -5.2945,10.0007 -19.1349,19.1636 -15.8834,30.002 1.7648,5.8828 -0.7421,16.5164 5.2945,17.6483 9.4124,1.7648 19.5571,9.3396 28.2372,5.2945 59.6149,-27.7818 121.5486,-51.0541 178.87,-83.2967 90.1977,-50.7353 181.9637,-98.78 270.6172,-152.1654 19.5469,-11.7708 38.4437,-24.6969 58.5931,-35.3964 26.072,-13.8446 49.6836,-33.9835 78.1865,-41.6088 21.8928,-5.8568 43.2338,-14.4522 65.6608,-17.6561 12.1181,-1.7312 25.676,-11.1783 36.3544,-5.1935 6.5203,3.6544 14.8379,5.182 19.6438,10.8616 6.3941,7.5567 19.3152,12.7721 19.1823,22.6701 -0.1169,8.7047 0.9983,17.5086 -0.1772,26.1249 -1.2309,9.0225 1.4018,19.5359 -3.5441,27.1212 -4.1812,6.4124 -6.3453,14.7592 -12.4478,19.326 -23.5478,17.6224 -44.9924,38.481 -70.6183,52.906 -36.912,20.7782 -72.9518,43.1901 -110.6997,62.4026 -69.296,35.2696 -139.7673,68.3206 -207.9097,105.7682 -64.8812,35.6555 -138.9284,58.2154 -194.6439,106.9665 -23.531,20.5896 -73.7042,30.6568 -70.593,61.7689 0.5883,5.8828 -3.9316,16.066 1.7648,17.6483 10.589,2.9414 21.2128,11.8881 31.7669,8.8241 45.0408,-13.0761 90.8241,-23.826 135.1392,-39.1762 47.5263,-16.4625 96.2495,-29.8113 142.5963,-49.3431 42.0025,-17.701 83.1724,-37.5262 125.9841,-53.1628 15.5633,-5.6843 30.1351,-16.6486 46.6678,-17.1649 16.4626,-0.5142 33.5908,-6.1714 49.4015,-1.654 16.3573,4.6735 42.5289,-1.6827 49.0719,14.0205 2.9414,7.0593 10.9967,13.8454 8.8241,21.1779 -4.7062,15.8834 -3.3252,35.0831 -14.1186,47.6503 -10.1295,11.7943 -16.8813,27.7061 -30.3109,35.4758 -33.9135,19.6206 -67.5538,39.7066 -101.4362,59.3812 -10.5551,6.1291 -20.3807,13.7397 -31.6025,18.5116 -64.7541,27.5358 -129.166,55.8914 -194.2388,82.664 -248.1729,102.1045 -497.3263,201.8597 -744.5296,306.2893 -146.8817,62.0493 -298.9092,113.1074 -440.6571,186.1236 -119.1359,61.3684 -240.1153,119.2844 -357.4275,184.0688 -78.4121,43.3021 -164.4456,75.0232 -235.2364,129.9066 -94.204,73.0354 -195.3965,137.8554 -282.63329,219.0818 -85.90441,79.9859 -163.76799,169.5928 -257.68904,239.9871 -51.87476,38.8803 -154.50688,181.4596 -155.62444,116.6412 -4.9917,-289.5172 -9.9834,-579.0352 -14.9751,-868.5524 z"
       id="path21"
       transform="rotate(-99.017232,1498.2032,1896.6505)"
       inkscape:original-d="m 424.92363,2606.5494 693.84357,-319.4676 314.4759,-229.6173 159.7338,-144.7588 364.3926,-434.2762 74.8753,-89.8502 79.5493,-43.9989 51.1799,-3.5297 30.0021,7.0593 26.4723,19.4131 7.0593,15.8834 -3.5296,30.0021 -22.9427,45.8854 -44.1207,51.18 -70.593,61.7689 -54.7096,45.8854 -40.591,74.1227 5.2945,24.7075 28.2372,12.3538 192.366,-111.184 211.7791,-148.2453 144.7157,-120.0081 188.8363,-141.1861 49.4151,-33.5317 44.1206,-15.8834 37.0614,-5.2945 37.0613,12.3538 19.4131,24.7075 3.5297,15.8835 -3.5297,33.5317 -31.7669,33.5317 -240.0162,188.8363 -100.5951,60.0041 -65.2985,44.1206 -28.2373,31.7669 1.7649,21.1779 26.4724,1.7648 91.7709,-38.8262 338.8465,-187.0715 178.2474,-97.0654 72.3578,-31.7669 38.8262,5.2945 24.7076,15.8835 12.3537,26.4723 7.0593,22.9428 -14.1186,21.1779 -172.9529,109.4192 -307.0796,176.4825 -160.5992,90.0061 -15.8834,30.002 5.2945,17.6483 28.2372,5.2945 178.2474,-82.9468 270.0183,-151.775 58.2392,-35.2965 79.4172,-42.3558 65.2985,-17.6483 37.0614,-5.2945 19.4131,10.589 19.413,22.9427 v 24.7076 l -3.5296,28.2372 -12.3538,19.4131 -70.593,52.9447 -109.4192,61.7689 -208.2494,105.8895 -195.8957,107.6544 -70.593,61.7689 1.7648,17.6483 31.7669,8.8241 134.1267,-38.8262 142.9509,-49.4151 125.3026,-52.9447 47.6503,-17.6483 49.4151,-1.7648 49.4152,14.1186 8.8241,21.1779 -14.1186,47.6503 -30.0021,35.2965 -54.7095,31.7668 -77.6524,45.8855 -190.6011,81.182 -746.5213,307.0797 -442.9712,187.0715 -356.4947,183.5418 -236.4867,130.5971 -282.372,218.8384 -257.6646,240.0163 -155.91017,116.8554 z"
       inkscape:path-effect="#path-effect22;#path-effect27"
       sodipodi:insensitive="true" />
  </g>
  <g
     inkscape:groupmode="layer"
     id="layer1"
     inkscape:label="white">
    <path
       style="opacity:1;fill:#f4d7d7;stroke:#000000;stroke-width:0;stroke-linecap:square"
       d="m 424.92363,2606.5494 c 231.28096,-106.4891 488.23569,-169.2803 693.84357,-319.4676 104.9055,-76.6287 218.5192,-142.5775 314.7405,-229.8571 53.2212,-48.2754 113.523,-89.7468 159.6987,-144.7925 123.7403,-147.51 247.9898,-294.595 371.2497,-442.5066 22.5962,-27.1154 36.902,-64.2628 67.7887,-81.3463 26.5164,-14.6663 49.3107,-42.0378 79.5493,-43.9989 17.1729,-1.1138 34.8369,-7.5365 51.5275,-3.4479 9.9606,2.44 21.707,1.1493 29.9425,7.1887 8.7281,6.4006 21.9955,9.2218 26.1843,19.2019 2.2758,5.4223 7.7432,10.472 7.0176,16.238 -1.2556,9.9771 0.8659,21.0165 -3.6476,29.9669 -7.6966,15.2624 -11.8283,32.9357 -23.0162,45.8365 -14.8321,17.1029 -27.365,36.5144 -44.425,51.3798 -24.6498,21.4789 -48.836,43.5016 -73.8858,64.5111 -16.9598,14.2243 -40.2475,23.2583 -50.8793,42.6729 -13.5303,24.7075 -46.4934,46.5783 -40.591,74.1227 1.7648,8.2358 -2.4221,21.3315 5.2945,24.7075 9.4124,4.1179 19.3437,17.4974 28.2372,12.3538 64.2139,-37.1383 131.8993,-68.8369 192.6585,-111.3888 70.5812,-49.4305 145.4024,-93.3029 211.7615,-148.2684 48.444,-40.1264 94.905,-82.7767 145.2988,-120.4217 62.9643,-47.0353 123.7,-97.2131 188.8647,-141.1461 16.3018,-10.9904 30.3624,-26.4549 48.8647,-33.0512 14.7185,-5.2473 28.6805,-13.6047 44.1381,-15.8129 12.236,-1.748 24.982,-9.1526 36.7079,-5.244 12.3538,4.1179 29.016,2.1144 37.0613,12.3538 6.471,8.2358 17.4166,14.4256 19.4131,24.7075 1.0749,5.5356 4.0412,11.0242 3.4549,16.5937 -1.1516,10.9405 4.1463,24.869 -3.4549,32.8215 -10.7996,11.2986 -20.0501,24.3193 -32.3282,33.9733 -79.9291,62.8465 -152.4964,136.4033 -239.7616,188.5776 -33.7145,20.1573 -68.6804,38.3571 -101.176,60.4209 -21.5298,14.6183 -47.3708,24.3508 -64.6481,43.7878 -9.3334,10.5 -29.1668,17.5 -28.0001,31.5 0.5883,7.0593 -5.3032,20.7067 1.7649,21.1779 8.8241,0.5883 18.3328,5.2227 26.4724,1.7648 30.7878,-13.0795 63.1133,-23.0136 92.3961,-39.1714 115.0473,-63.4812 229.7028,-127.6785 345.1205,-190.4833 57.2294,-31.1415 112.0195,-67.2616 171.6752,-93.4519 24.0102,-10.5412 46.049,-35.1664 72.0308,-31.6234 12.9421,1.7648 27.8389,-1.7688 38.8262,5.2945 8.2359,5.2945 20.6529,6.9717 24.7076,15.8835 4.178,9.1827 9.7053,17.8649 12.6687,27.4962 2.2481,7.3063 11.0568,15.6072 6.7443,21.9189 -4.8421,7.0868 -7.2033,16.8074 -14.4204,21.3688 -57.8677,36.5743 -114.2192,75.6672 -173.5799,109.7621 -103.3037,59.3344 -205.9659,119.8011 -309.8888,178.0436 -52.287,29.3037 -128.8167,34.9382 -156.8612,87.9112 -5.2945,10.0007 -19.1349,19.1636 -15.8834,30.002 1.7648,5.8828 -0.7421,16.5164 5.2945,17.6483 9.4124,1.7648 19.5571,9.3396 28.2372,5.2945 59.6149,-27.7818 121.5486,-51.0541 178.87,-83.2967 90.1977,-50.7353 181.9637,-98.78 270.6172,-152.1654 19.5469,-11.7708 38.4437,-24.6969 58.5931,-35.3964 26.072,-13.8446 49.6836,-33.9835 78.1865,-41.6088 21.8928,-5.8568 43.2338,-14.4522 65.6608,-17.6561 12.1181,-1.7312 25.676,-11.1783 36.3544,-5.1935 6.5203,3.6544 14.8379,5.182 19.6438,10.8616 6.3941,7.5567 19.3152,12.7721 19.1823,22.6701 -0.1169,8.7047 0.9983,17.5086 -0.1772,26.1249 -1.2309,9.0225 1.4018,19.5359 -3.5441,27.1212 -4.1812,6.4124 -6.3453,14.7592 -12.4478,19.326 -23.5478,17.6224 -44.9924,38.481 -70.6183,52.906 -36.912,20.7782 -72.9518,43.1901 -110.6997,62.4026 -69.296,35.2696 -139.7673,68.3206 -207.9097,105.7682 -64.8812,35.6555 -138.9284,58.2154 -194.6439,106.9665 -23.531,20.5896 -73.7042,30.6568 -70.593,61.7689 0.5883,5.8828 -3.9316,16.066 1.7648,17.6483 10.589,2.9414 21.2128,11.8881 31.7669,8.8241 45.0408,-13.0761 90.8241,-23.826 135.1392,-39.1762 47.5263,-16.4625 96.2495,-29.8113 142.5963,-49.3431 42.0025,-17.701 83.1724,-37.5262 125.9841,-53.1628 15.5633,-5.6843 30.1351,-16.6486 46.6678,-17.1649 16.4626,-0.5142 33.5908,-6.1714 49.4015,-1.654 16.3573,4.6735 42.5289,-1.6827 49.0719,14.0205 2.9414,7.0593 10.9967,13.8454 8.8241,21.1779 -4.7062,15.8834 -3.3252,35.0831 -14.1186,47.6503 -10.1295,11.7943 -16.8813,27.7061 -30.3109,35.4758 -33.9135,19.6206 -67.5538,39.7066 -101.4362,59.3812 -10.5551,6.1291 -20.3807,13.7397 -31.6025,18.5116 -64.7541,27.5358 -129.166,55.8914 -194.2388,82.664 -248.1729,102.1045 -497.3263,201.8597 -744.5296,306.2893 -146.8817,62.0493 -298.9092,113.1074 -440.6571,186.1236 -119.1359,61.3684 -240.1153,119.2844 -357.4275,184.0688 -78.4121,43.3021 -164.4456,75.0232 -235.2364,129.9066 -94.204,73.0354 -195.3965,137.8554 -282.63329,219.0818 -85.90441,79.9859 -163.76799,169.5928 -257.68904,239.9871 -51.87476,38.8803 -154.50688,181.4596 -155.62444,116.6412 -4.9917,-289.5172 -9.9834,-579.0352 -14.9751,-868.5524 z"
       id="path1"
       inkscape:path-effect="#path-effect5"
       inkscape:original-d="m 424.92363,2606.5494 693.84357,-319.4676 314.4759,-229.6173 159.7338,-144.7588 364.3926,-434.2762 74.8753,-89.8502 79.5493,-43.9989 51.1799,-3.5297 30.0021,7.0593 26.4723,19.4131 7.0593,15.8834 -3.5296,30.0021 -22.9427,45.8854 -44.1207,51.18 -70.593,61.7689 -54.7096,45.8854 -40.591,74.1227 5.2945,24.7075 28.2372,12.3538 192.366,-111.184 211.7791,-148.2453 144.7157,-120.0081 188.8363,-141.1861 49.4151,-33.5317 44.1206,-15.8834 37.0614,-5.2945 37.0613,12.3538 19.4131,24.7075 3.5297,15.8835 -3.5297,33.5317 -31.7669,33.5317 -240.0162,188.8363 -100.5951,60.0041 -65.2985,44.1206 -28.2373,31.7669 1.7649,21.1779 26.4724,1.7648 91.7709,-38.8262 338.8465,-187.0715 178.2474,-97.0654 72.3578,-31.7669 38.8262,5.2945 24.7076,15.8835 12.3537,26.4723 7.0593,22.9428 -14.1186,21.1779 -172.9529,109.4192 -307.0796,176.4825 -160.5992,90.0061 -15.8834,30.002 5.2945,17.6483 28.2372,5.2945 178.2474,-82.9468 270.0183,-151.775 58.2392,-35.2965 79.4172,-42.3558 65.2985,-17.6483 37.0614,-5.2945 19.4131,10.589 19.413,22.9427 v 24.7076 l -3.5296,28.2372 -12.3538,19.4131 -70.593,52.9447 -109.4192,61.7689 -208.2494,105.8895 -195.8957,107.6544 -70.593,61.7689 1.7648,17.6483 31.7669,8.8241 134.1267,-38.8262 142.9509,-49.4151 125.3026,-52.9447 47.6503,-17.6483 49.4151,-1.7648 49.4152,14.1186 8.8241,21.1779 -14.1186,47.6503 -30.0021,35.2965 -54.7095,31.7668 -77.6524,45.8855 -190.6011,81.182 -746.5213,307.0797 -442.9712,187.0715 -356.4947,183.5418 -236.4867,130.5971 -282.372,218.8384 -257.6646,240.0163 -155.91017,116.8554 z"
       transform="rotate(-148.72456,2612.2443,2150.391)" />
    <g
       id="g26"
       inkscape:label="nails"
       transform="rotate(-148.13166,2615.9886,2152.2016)"
       style="fill:#a860c0">
      <rect
         style="opacity:1;fill:#a860c0;stroke:#000000;stroke-width:0;stroke-linecap:round;stroke-linejoin:round;paint-order:markers fill stroke"
         id="rect22"
         width="159.45364"
         height="85.590187"
         x="500.83209"
         y="2460.2551"
         ry="42.795094"
         transform="matrix(0.71438074,-0.69975721,0.69897466,0.71514644,0,0)"
         rx="37.145119" />
      <rect
         style="opacity:1;fill:#a860c0;stroke:#000000;stroke-width:0;stroke-linecap:round;stroke-linejoin:round;paint-order:markers fill stroke"
         id="rect23"
         width="159.45364"
         height="85.590187"
         x="1163.5294"
         y="2843.4541"
         ry="42.795094"
         transform="matrix(0.71438074,-0.69975721,0.69897466,0.71514644,0,0)"
         rx="37.145119" />
      <rect
         style="opacity:1;fill:#a860c0;stroke:#000000;stroke-width:0;stroke-linecap:round;stroke-linejoin:round;paint-order:markers fill stroke"
         id="rect24"
         width="159.45364"
         height="85.590187"
         x="1934.9872"
         y="2800.938"
         ry="42.795094"
         transform="matrix(0.84111702,-0.54085317,0.53993196,0.84170867,0,0)"
         rx="37.145119" />
      <rect
         style="opacity:1;fill:#a860c0;stroke:#000000;stroke-width:0;stroke-linecap:round;stroke-linejoin:round;paint-order:markers fill stroke"
         id="rect25"
         width="159.45364"
         height="85.590187"
         x="1906.2566"
         y="3016.728"
         ry="42.795094"
         transform="matrix(0.84111702,-0.54085317,0.53993196,0.84170867,0,0)"
         rx="37.145119" />
      <rect
         style="opacity:1;fill:#a860c0;stroke:#000000;stroke-width:0;stroke-linecap:round;stroke-linejoin:round;paint-order:markers fill stroke"
         id="rect26"
         width="159.45364"
         height="85.590187"
         x="1642.8789"
         y="3274.4805"
         ry="42.795094"
         transform="matrix(0.84111702,-0.54085317,0.53993196,0.84170867,0,0)"
         rx="37.145119" />
    </g>
  </g>
  <g
     inkscape:groupmode="layer"
     id="layer4"
     inkscape:label="yellow"
     sodipodi:insensitive="true">
    <path
       style="opacity:1;fill:#e4c480;stroke:#000000;stroke-width:0;stroke-linecap:square"
       d="m 424.92363,2606.5494 c 231.28096,-106.4891 488.23569,-169.2803 693.84357,-319.4676 104.9055,-76.6287 218.5192,-142.5775 314.7405,-229.8571 53.2212,-48.2754 113.523,-89.7468 159.6987,-144.7925 123.7403,-147.51 247.9898,-294.595 371.2497,-442.5066 22.5962,-27.1154 36.902,-64.2628 67.7887,-81.3463 26.5164,-14.6663 49.3107,-42.0378 79.5493,-43.9989 17.1729,-1.1138 34.8369,-7.5365 51.5275,-3.4479 9.9606,2.44 21.707,1.1493 29.9425,7.1887 8.7281,6.4006 21.9955,9.2218 26.1843,19.2019 2.2758,5.4223 7.7432,10.472 7.0176,16.238 -1.2556,9.9771 0.8659,21.0165 -3.6476,29.9669 -7.6966,15.2624 -11.8283,32.9357 -23.0162,45.8365 -14.8321,17.1029 -27.365,36.5144 -44.425,51.3798 -24.6498,21.4789 -48.836,43.5016 -73.8858,64.5111 -16.9598,14.2243 -40.2475,23.2583 -50.8793,42.6729 -13.5303,24.7075 -46.4934,46.5783 -40.591,74.1227 1.7648,8.2358 -2.4221,21.3315 5.2945,24.7075 9.4124,4.1179 19.3437,17.4974 28.2372,12.3538 64.2139,-37.1383 131.8993,-68.8369 192.6585,-111.3888 70.5812,-49.4305 145.4024,-93.3029 211.7615,-148.2684 48.444,-40.1264 94.905,-82.7767 145.2988,-120.4217 62.9643,-47.0353 123.7,-97.2131 188.8647,-141.1461 16.3018,-10.9904 30.3624,-26.4549 48.8647,-33.0512 14.7185,-5.2473 28.6805,-13.6047 44.1381,-15.8129 12.236,-1.748 24.982,-9.1526 36.7079,-5.244 12.3538,4.1179 29.016,2.1144 37.0613,12.3538 6.471,8.2358 17.4166,14.4256 19.4131,24.7075 1.0749,5.5356 4.0412,11.0242 3.4549,16.5937 -1.1516,10.9405 4.1463,24.869 -3.4549,32.8215 -10.7996,11.2986 -20.0501,24.3193 -32.3282,33.9733 -79.9291,62.8465 -152.4964,136.4033 -239.7616,188.5776 -33.7145,20.1573 -68.6804,38.3571 -101.176,60.4209 -21.5298,14.6183 -47.3708,24.3508 -64.6481,43.7878 -9.3334,10.5 -29.1668,17.5 -28.0001,31.5 0.5883,7.0593 -5.3032,20.7067 1.7649,21.1779 8.8241,0.5883 18.3328,5.2227 26.4724,1.7648 30.7878,-13.0795 63.1133,-23.0136 92.3961,-39.1714 115.0473,-63.4812 229.7028,-127.6785 345.1205,-190.4833 57.2294,-31.1415 112.0195,-67.2616 171.6752,-93.4519 24.0102,-10.5412 46.049,-35.1664 72.0308,-31.6234 12.9421,1.7648 27.8389,-1.7688 38.8262,5.2945 8.2359,5.2945 20.6529,6.9717 24.7076,15.8835 4.178,9.1827 9.7053,17.8649 12.6687,27.4962 2.2481,7.3063 11.0568,15.6072 6.7443,21.9189 -4.8421,7.0868 -7.2033,16.8074 -14.4204,21.3688 -57.8677,36.5743 -114.2192,75.6672 -173.5799,109.7621 -103.3037,59.3344 -205.9659,119.8011 -309.8888,178.0436 -52.287,29.3037 -128.8167,34.9382 -156.8612,87.9112 -5.2945,10.0007 -19.1349,19.1636 -15.8834,30.002 1.7648,5.8828 -0.7421,16.5164 5.2945,17.6483 9.4124,1.7648 19.5571,9.3396 28.2372,5.2945 59.6149,-27.7818 121.5486,-51.0541 178.87,-83.2967 90.1977,-50.7353 181.9637,-98.78 270.6172,-152.1654 19.5469,-11.7708 38.4437,-24.6969 58.5931,-35.3964 26.072,-13.8446 49.6836,-33.9835 78.1865,-41.6088 21.8928,-5.8568 43.2338,-14.4522 65.6608,-17.6561 12.1181,-1.7312 25.676,-11.1783 36.3544,-5.1935 6.5203,3.6544 14.8379,5.182 19.6438,10.8616 6.3941,7.5567 19.3152,12.7721 19.1823,22.6701 -0.1169,8.7047 0.9983,17.5086 -0.1772,26.1249 -1.2309,9.0225 1.4018,19.5359 -3.5441,27.1212 -4.1812,6.4124 -6.3453,14.7592 -12.4478,19.326 -23.5478,17.6224 -44.9924,38.481 -70.6183,52.906 -36.912,20.7782 -72.9518,43.1901 -110.6997,62.4026 -69.296,35.2696 -139.7673,68.3206 -207.9097,105.7682 -64.8812,35.6555 -138.9284,58.2154 -194.6439,106.9665 -23.531,20.5896 -73.7042,30.6568 -70.593,61.7689 0.5883,5.8828 -3.9316,16.066 1.7648,17.6483 10.589,2.9414 21.2128,11.8881 31.7669,8.8241 45.0408,-13.0761 90.8241,-23.826 135.1392,-39.1762 47.5263,-16.4625 96.2495,-29.8113 142.5963,-49.3431 42.0025,-17.701 83.1724,-37.5262 125.9841,-53.1628 15.5633,-5.6843 30.1351,-16.6486 46.6678,-17.1649 16.4626,-0.5142 33.5908,-6.1714 49.4015,-1.654 16.3573,4.6735 42.5289,-1.6827 49.0719,14.0205 2.9414,7.0593 10.9967,13.8454 8.8241,21.1779 -4.7062,15.8834 -3.3252,35.0831 -14.1186,47.6503 -10.1295,11.7943 -16.8813,27.7061 -30.3109,35.4758 -33.9135,19.6206 -67.5538,39.7066 -101.4362,59.3812 -10.5551,6.1291 -20.3807,13.7397 -31.6025,18.5116 -64.7541,27.5358 -129.166,55.8914 -194.2388,82.664 -248.1729,102.1045 -497.3263,201.8597 -744.5296,306.2893 -146.8817,62.0493 -298.9092,113.1074 -440.6571,186.1236 -119.1359,61.3684 -240.1153,119.2844 -357.4275,184.0688 -78.4121,43.3021 -164.4456,75.0232 -235.2364,129.9066 -94.204,73.0354 -195.3965,137.8554 -282.63329,219.0818 -85.90441,79.9859 -163.76799,169.5928 -257.68904,239.9871 -51.87476,38.8803 -154.50688,181.4596 -155.62444,116.6412 -4.9917,-289.5172 -9.9834,-579.0352 -14.9751,-868.5524 z"
       id="path16"
       inkscape:path-effect="#path-effect17"
       inkscape:original-d="m 424.92363,2606.5494 693.84357,-319.4676 314.4759,-229.6173 159.7338,-144.7588 364.3926,-434.2762 74.8753,-89.8502 79.5493,-43.9989 51.1799,-3.5297 30.0021,7.0593 26.4723,19.4131 7.0593,15.8834 -3.5296,30.0021 -22.9427,45.8854 -44.1207,51.18 -70.593,61.7689 -54.7096,45.8854 -40.591,74.1227 5.2945,24.7075 28.2372,12.3538 192.366,-111.184 211.7791,-148.2453 144.7157,-120.0081 188.8363,-141.1861 49.4151,-33.5317 44.1206,-15.8834 37.0614,-5.2945 37.0613,12.3538 19.4131,24.7075 3.5297,15.8835 -3.5297,33.5317 -31.7669,33.5317 -240.0162,188.8363 -100.5951,60.0041 -65.2985,44.1206 -28.2373,31.7669 1.7649,21.1779 26.4724,1.7648 91.7709,-38.8262 338.8465,-187.0715 178.2474,-97.0654 72.3578,-31.7669 38.8262,5.2945 24.7076,15.8835 12.3537,26.4723 7.0593,22.9428 -14.1186,21.1779 -172.9529,109.4192 -307.0796,176.4825 -160.5992,90.0061 -15.8834,30.002 5.2945,17.6483 28.2372,5.2945 178.2474,-82.9468 270.0183,-151.775 58.2392,-35.2965 79.4172,-42.3558 65.2985,-17.6483 37.0614,-5.2945 19.4131,10.589 19.413,22.9427 v 24.7076 l -3.5296,28.2372 -12.3538,19.4131 -70.593,52.9447 -109.4192,61.7689 -208.2494,105.8895 -195.8957,107.6544 -70.593,61.7689 1.7648,17.6483 31.7669,8.8241 134.1267,-38.8262 142.9509,-49.4151 125.3026,-52.9447 47.6503,-17.6483 49.4151,-1.7648 49.4152,14.1186 8.8241,21.1779 -14.1186,47.6503 -30.0021,35.2965 -54.7095,31.7668 -77.6524,45.8855 -190.6011,81.182 -746.5213,307.0797 -442.9712,187.0715 -356.4947,183.5418 -236.4867,130.5971 -282.372,218.8384 -257.6646,240.0163 -155.91017,116.8554 z"
       transform="rotate(133.61927,3135.1598,2215.7272)" />
    <g
       id="g16"
       inkscape:label="nails"
       transform="rotate(134.55644,3144.7236,2206.2455)"
       style="fill:#90b8c4">
      <rect
         style="opacity:1;fill:#90b8c4;stroke:#000000;stroke-width:0;stroke-linecap:round;stroke-linejoin:round;paint-order:markers fill stroke"
         id="rect12"
         width="159.45364"
         height="85.590187"
         x="500.83209"
         y="2460.2551"
         ry="42.795094"
         transform="matrix(0.71438074,-0.69975721,0.69897466,0.71514644,0,0)"
         rx="37.145119" />
      <rect
         style="opacity:1;fill:#90b8c4;stroke:#000000;stroke-width:0;stroke-linecap:round;stroke-linejoin:round;paint-order:markers fill stroke"
         id="rect13"
         width="159.45364"
         height="85.590187"
         x="1163.5294"
         y="2843.4541"
         ry="42.795094"
         transform="matrix(0.71438074,-0.69975721,0.69897466,0.71514644,0,0)"
         rx="37.145119" />
      <rect
         style="opacity:1;fill:#90b8c4;stroke:#000000;stroke-width:0;stroke-linecap:round;stroke-linejoin:round;paint-order:markers fill stroke"
         id="rect14"
         width="159.45364"
         height="85.590187"
         x="1934.9872"
         y="2800.938"
         ry="42.795094"
         transform="matrix(0.84111702,-0.54085317,0.53993196,0.84170867,0,0)"
         rx="37.145119" />
      <rect
         style="opacity:1;fill:#90b8c4;stroke:#000000;stroke-width:0;stroke-linecap:round;stroke-linejoin:round;paint-order:markers fill stroke"
         id="rect15"
         width="159.45364"
         height="85.590187"
         x="1906.2566"
         y="3016.728"
         ry="42.795094"
         transform="matrix(0.84111702,-0.54085317,0.53993196,0.84170867,0,0)"
         rx="37.145119" />
      <rect
         style="opacity:1;fill:#90b8c4;stroke:#000000;stroke-width:0;stroke-linecap:round;stroke-linejoin:round;paint-order:markers fill stroke"
         id="rect16"
         width="159.45364"
         height="85.590187"
         x="1642.8789"
         y="3274.4805"
         ry="42.795094"
         transform="matrix(0.84111702,-0.54085317,0.53993196,0.84170867,0,0)"
         rx="37.145119" />
    </g>
  </g>
  <g
     inkscape:groupmode="layer"
     id="layer3"
     inkscape:label="black"
     sodipodi:insensitive="true">
    <path
       style="opacity:1;fill:#5c2000;stroke:#000000;stroke-width:0;stroke-linecap:square"
       d="m 424.92363,2606.5494 c 231.28096,-106.4891 488.23569,-169.2803 693.84357,-319.4676 104.9055,-76.6287 218.5192,-142.5775 314.7405,-229.8571 53.2212,-48.2754 113.523,-89.7468 159.6987,-144.7925 123.7403,-147.51 247.9898,-294.595 371.2497,-442.5066 22.5962,-27.1154 36.902,-64.2628 67.7887,-81.3463 26.5164,-14.6663 49.3107,-42.0378 79.5493,-43.9989 17.1729,-1.1138 34.8369,-7.5365 51.5275,-3.4479 9.9606,2.44 21.707,1.1493 29.9425,7.1887 8.7281,6.4006 21.9955,9.2218 26.1843,19.2019 2.2758,5.4223 7.7432,10.472 7.0176,16.238 -1.2556,9.9771 0.8659,21.0165 -3.6476,29.9669 -7.6966,15.2624 -11.8283,32.9357 -23.0162,45.8365 -14.8321,17.1029 -27.365,36.5144 -44.425,51.3798 -24.6498,21.4789 -48.836,43.5016 -73.8858,64.5111 -16.9598,14.2243 -40.2475,23.2583 -50.8793,42.6729 -13.5303,24.7075 -46.4934,46.5783 -40.591,74.1227 1.7648,8.2358 -2.4221,21.3315 5.2945,24.7075 9.4124,4.1179 19.3437,17.4974 28.2372,12.3538 64.2139,-37.1383 131.8993,-68.8369 192.6585,-111.3888 70.5812,-49.4305 145.4024,-93.3029 211.7615,-148.2684 48.444,-40.1264 94.905,-82.7767 145.2988,-120.4217 62.9643,-47.0353 123.7,-97.2131 188.8647,-141.1461 16.3018,-10.9904 30.3624,-26.4549 48.8647,-33.0512 14.7185,-5.2473 28.6805,-13.6047 44.1381,-15.8129 12.236,-1.748 24.982,-9.1526 36.7079,-5.244 12.3538,4.1179 29.016,2.1144 37.0613,12.3538 6.471,8.2358 17.4166,14.4256 19.4131,24.7075 1.0749,5.5356 4.0412,11.0242 3.4549,16.5937 -1.1516,10.9405 4.1463,24.869 -3.4549,32.8215 -10.7996,11.2986 -20.0501,24.3193 -32.3282,33.9733 -79.9291,62.8465 -152.4964,136.4033 -239.7616,188.5776 -33.7145,20.1573 -68.6804,38.3571 -101.176,60.4209 -21.5298,14.6183 -47.3708,24.3508 -64.6481,43.7878 -9.3334,10.5 -29.1668,17.5 -28.0001,31.5 0.5883,7.0593 -5.3032,20.7067 1.7649,21.1779 8.8241,0.5883 18.3328,5.2227 26.4724,1.7648 30.7878,-13.0795 63.1133,-23.0136 92.3961,-39.1714 115.0473,-63.4812 229.7028,-127.6785 345.1205,-190.4833 57.2294,-31.1415 112.0195,-67.2616 171.6752,-93.4519 24.0102,-10.5412 46.049,-35.1664 72.0308,-31.6234 12.9421,1.7648 27.8389,-1.7688 38.8262,5.2945 8.2359,5.2945 20.6529,6.9717 24.7076,15.8835 4.178,9.1827 9.7053,17.8649 12.6687,27.4962 2.2481,7.3063 11.0568,15.6072 6.7443,21.9189 -4.8421,7.0868 -7.2033,16.8074 -14.4204,21.3688 -57.8677,36.5743 -114.2192,75.6672 -173.5799,109.7621 -103.3037,59.3344 -205.9659,119.8011 -309.8888,178.0436 -52.287,29.3037 -128.8167,34.9382 -156.8612,87.9112 -5.2945,10.0007 -19.1349,19.1636 -15.8834,30.002 1.7648,5.8828 -0.7421,16.5164 5.2945,17.6483 9.4124,1.7648 19.5571,9.3396 28.2372,5.2945 59.6149,-27.7818 121.5486,-51.0541 178.87,-83.2967 90.1977,-50.7353 181.9637,-98.78 270.6172,-152.1654 19.5469,-11.7708 38.4437,-24.6969 58.5931,-35.3964 26.072,-13.8446 49.6836,-33.9835 78.1865,-41.6088 21.8928,-5.8568 43.2338,-14.4522 65.6608,-17.6561 12.1181,-1.7312 25.676,-11.1783 36.3544,-5.1935 6.5203,3.6544 14.8379,5.182 19.6438,10.8616 6.3941,7.5567 19.3152,12.7721 19.1823,22.6701 -0.1169,8.7047 0.9983,17.5086 -0.1772,26.1249 -1.2309,9.0225 1.4018,19.5359 -3.5441,27.1212 -4.1812,6.4124 -6.3453,14.7592 -12.4478,19.326 -23.5478,17.6224 -44.9924,38.481 -70.6183,52.906 -36.912,20.7782 -72.9518,43.1901 -110.6997,62.4026 -69.296,35.2696 -139.7673,68.3206 -207.9097,105.7682 -64.8812,35.6555 -138.9284,58.2154 -194.6439,106.9665 -23.531,20.5896 -73.7042,30.6568 -70.593,61.7689 0.5883,5.8828 -3.9316,16.066 1.7648,17.6483 10.589,2.9414 21.2128,11.8881 31.7669,8.8241 45.0408,-13.0761 90.8241,-23.826 135.1392,-39.1762 47.5263,-16.4625 96.2495,-29.8113 142.5963,-49.3431 42.0025,-17.701 83.1724,-37.5262 125.9841,-53.1628 15.5633,-5.6843 30.1351,-16.6486 46.6678,-17.1649 16.4626,-0.5142 33.5908,-6.1714 49.4015,-1.654 16.3573,4.6735 42.5289,-1.6827 49.0719,14.0205 2.9414,7.0593 10.9967,13.8454 8.8241,21.1779 -4.7062,15.8834 -3.3252,35.0831 -14.1186,47.6503 -10.1295,11.7943 -16.8813,27.7061 -30.3109,35.4758 -33.9135,19.6206 -67.5538,39.7066 -101.4362,59.3812 -10.5551,6.1291 -20.3807,13.7397 -31.6025,18.5116 -64.7541,27.5358 -129.166,55.8914 -194.2388,82.664 -248.1729,102.1045 -497.3263,201.8597 -744.5296,306.2893 -146.8817,62.0493 -298.9092,113.1074 -440.6571,186.1236 -119.1359,61.3684 -240.1153,119.2844 -357.4275,184.0688 -78.4121,43.3021 -164.4456,75.0232 -235.2364,129.9066 -94.204,73.0354 -195.3965,137.8554 -282.63329,219.0818 -85.90441,79.9859 -163.76799,169.5928 -257.68904,239.9871 -51.87476,38.8803 -154.50688,181.4596 -155.62444,116.6412 -4.9917,-289.5172 -9.9834,-579.0352 -14.9751,-868.5524 z"
       id="path11"
       inkscape:path-effect="#path-effect12"
       inkscape:original-d="m 424.92363,2606.5494 693.84357,-319.4676 314.4759,-229.6173 159.7338,-144.7588 364.3926,-434.2762 74.8753,-89.8502 79.5493,-43.9989 51.1799,-3.5297 30.0021,7.0593 26.4723,19.4131 7.0593,15.8834 -3.5296,30.0021 -22.9427,45.8854 -44.1207,51.18 -70.593,61.7689 -54.7096,45.8854 -40.591,74.1227 5.2945,24.7075 28.2372,12.3538 192.366,-111.184 211.7791,-148.2453 144.7157,-120.0081 188.8363,-141.1861 49.4151,-33.5317 44.1206,-15.8834 37.0614,-5.2945 37.0613,12.3538 19.4131,24.7075 3.5297,15.8835 -3.5297,33.5317 -31.7669,33.5317 -240.0162,188.8363 -100.5951,60.0041 -65.2985,44.1206 -28.2373,31.7669 1.7649,21.1779 26.4724,1.7648 91.7709,-38.8262 338.8465,-187.0715 178.2474,-97.0654 72.3578,-31.7669 38.8262,5.2945 24.7076,15.8835 12.3537,26.4723 7.0593,22.9428 -14.1186,21.1779 -172.9529,109.4192 -307.0796,176.4825 -160.5992,90.0061 -15.8834,30.002 5.2945,17.6483 28.2372,5.2945 178.2474,-82.9468 270.0183,-151.775 58.2392,-35.2965 79.4172,-42.3558 65.2985,-17.6483 37.0614,-5.2945 19.4131,10.589 19.413,22.9427 v 24.7076 l -3.5296,28.2372 -12.3538,19.4131 -70.593,52.9447 -109.4192,61.7689 -208.2494,105.8895 -195.8957,107.6544 -70.593,61.7689 1.7648,17.6483 31.7669,8.8241 134.1267,-38.8262 142.9509,-49.4151 125.3026,-52.9447 47.6503,-17.6483 49.4151,-1.7648 49.4152,14.1186 8.8241,21.1779 -14.1186,47.6503 -30.0021,35.2965 -54.7095,31.7668 -77.6524,45.8855 -190.6011,81.182 -746.5213,307.0797 -442.9712,187.0715 -356.4947,183.5418 -236.4867,130.5971 -282.372,218.8384 -257.6646,240.0163 -155.91017,116.8554 z"
       transform="rotate(64.045001,3787.1102,2452.8767)" />
    <g
       id="g7"
       inkscape:label="nails"
       transform="rotate(64.401066,3782.4424,2452.9559)"
       style="fill:#009800">
      <rect
         style="opacity:1;fill:#009800;stroke:#000000;stroke-width:0;stroke-linecap:round;stroke-linejoin:round;paint-order:markers fill stroke"
         id="rect1"
         width="159.45364"
         height="85.590187"
         x="500.83209"
         y="2460.2551"
         ry="42.795094"
         transform="matrix(0.71438074,-0.69975721,0.69897466,0.71514644,0,0)"
         rx="37.145119" />
      <rect
         style="opacity:1;fill:#009800;stroke:#000000;stroke-width:0;stroke-linecap:round;stroke-linejoin:round;paint-order:markers fill stroke"
         id="rect2"
         width="159.45364"
         height="85.590187"
         x="1163.5294"
         y="2843.4541"
         ry="42.795094"
         transform="matrix(0.71438074,-0.69975721,0.69897466,0.71514644,0,0)"
         rx="37.145119" />
      <rect
         style="opacity:1;fill:#009800;stroke:#000000;stroke-width:0;stroke-linecap:round;stroke-linejoin:round;paint-order:markers fill stroke"
         id="rect3"
         width="159.45364"
         height="85.590187"
         x="1934.9872"
         y="2800.938"
         ry="42.795094"
         transform="matrix(0.84111702,-0.54085317,0.53993196,0.84170867,0,0)"
         rx="37.145119" />
      <rect
         style="opacity:1;fill:#009800;stroke:#000000;stroke-width:0;stroke-linecap:round;stroke-linejoin:round;paint-order:markers fill stroke"
         id="rect4"
         width="159.45364"
         height="85.590187"
         x="1906.2566"
         y="3016.728"
         ry="42.795094"
         transform="matrix(0.84111702,-0.54085317,0.53993196,0.84170867,0,0)"
         rx="37.145119" />
      <rect
         style="opacity:1;fill:#009800;stroke:#000000;stroke-width:0;stroke-linecap:round;stroke-linejoin:round;paint-order:markers fill stroke"
         id="rect5"
         width="159.45364"
         height="85.590187"
         x="1642.8789"
         y="3274.4805"
         ry="42.795094"
         transform="matrix(0.84111702,-0.54085317,0.53993196,0.84170867,0,0)"
         rx="37.145119" />
    </g>
  </g>
  <g
     inkscape:groupmode="layer"
     id="g5"
     inkscape:label="darker_white"
     sodipodi:insensitive="true">
    <path
       style="opacity:1;fill:#f4e3d7;stroke:#000000;stroke-width:0;stroke-linecap:square"
       d="m 424.92363,2606.5494 c 231.28096,-106.4891 488.23569,-169.2803 693.84357,-319.4676 104.9055,-76.6287 218.5192,-142.5775 314.7405,-229.8571 53.2212,-48.2754 113.523,-89.7468 159.6987,-144.7925 123.7403,-147.51 247.9898,-294.595 371.2497,-442.5066 22.5962,-27.1154 36.902,-64.2628 67.7887,-81.3463 26.5164,-14.6663 49.3107,-42.0378 79.5493,-43.9989 17.1729,-1.1138 34.8369,-7.5365 51.5275,-3.4479 9.9606,2.44 21.707,1.1493 29.9425,7.1887 8.7281,6.4006 21.9955,9.2218 26.1843,19.2019 2.2758,5.4223 7.7432,10.472 7.0176,16.238 -1.2556,9.9771 0.8659,21.0165 -3.6476,29.9669 -7.6966,15.2624 -11.8283,32.9357 -23.0162,45.8365 -14.8321,17.1029 -27.365,36.5144 -44.425,51.3798 -24.6498,21.4789 -48.836,43.5016 -73.8858,64.5111 -16.9598,14.2243 -40.2475,23.2583 -50.8793,42.6729 -13.5303,24.7075 -46.4934,46.5783 -40.591,74.1227 1.7648,8.2358 -2.4221,21.3315 5.2945,24.7075 9.4124,4.1179 19.3437,17.4974 28.2372,12.3538 64.2139,-37.1383 131.8993,-68.8369 192.6585,-111.3888 70.5812,-49.4305 145.4024,-93.3029 211.7615,-148.2684 48.444,-40.1264 94.905,-82.7767 145.2988,-120.4217 62.9643,-47.0353 123.7,-97.2131 188.8647,-141.1461 16.3018,-10.9904 30.3624,-26.4549 48.8647,-33.0512 14.7185,-5.2473 28.6805,-13.6047 44.1381,-15.8129 12.236,-1.748 24.982,-9.1526 36.7079,-5.244 12.3538,4.1179 29.016,2.1144 37.0613,12.3538 6.471,8.2358 17.4166,14.4256 19.4131,24.7075 1.0749,5.5356 4.0412,11.0242 3.4549,16.5937 -1.1516,10.9405 4.1463,24.869 -3.4549,32.8215 -10.7996,11.2986 -20.0501,24.3193 -32.3282,33.9733 -79.9291,62.8465 -152.4964,136.4033 -239.7616,188.5776 -33.7145,20.1573 -68.6804,38.3571 -101.176,60.4209 -21.5298,14.6183 -47.3708,24.3508 -64.6481,43.7878 -9.3334,10.5 -29.1668,17.5 -28.0001,31.5 0.5883,7.0593 -5.3032,20.7067 1.7649,21.1779 8.8241,0.5883 18.3328,5.2227 26.4724,1.7648 30.7878,-13.0795 63.1133,-23.0136 92.3961,-39.1714 115.0473,-63.4812 229.7028,-127.6785 345.1205,-190.4833 57.2294,-31.1415 112.0195,-67.2616 171.6752,-93.4519 24.0102,-10.5412 46.049,-35.1664 72.0308,-31.6234 12.9421,1.7648 27.8389,-1.7688 38.8262,5.2945 8.2359,5.2945 20.6529,6.9717 24.7076,15.8835 4.178,9.1827 9.7053,17.8649 12.6687,27.4962 2.2481,7.3063 11.0568,15.6072 6.7443,21.9189 -4.8421,7.0868 -7.2033,16.8074 -14.4204,21.3688 -57.8677,36.5743 -114.2192,75.6672 -173.5799,109.7621 -103.3037,59.3344 -205.9659,119.8011 -309.8888,178.0436 -52.287,29.3037 -128.8167,34.9382 -156.8612,87.9112 -5.2945,10.0007 -19.1349,19.1636 -15.8834,30.002 1.7648,5.8828 -0.7421,16.5164 5.2945,17.6483 9.4124,1.7648 19.5571,9.3396 28.2372,5.2945 59.6149,-27.7818 121.5486,-51.0541 178.87,-83.2967 90.1977,-50.7353 181.9637,-98.78 270.6172,-152.1654 19.5469,-11.7708 38.4437,-24.6969 58.5931,-35.3964 26.072,-13.8446 49.6836,-33.9835 78.1865,-41.6088 21.8928,-5.8568 43.2338,-14.4522 65.6608,-17.6561 12.1181,-1.7312 25.676,-11.1783 36.3544,-5.1935 6.5203,3.6544 14.8379,5.182 19.6438,10.8616 6.3941,7.5567 19.3152,12.7721 19.1823,22.6701 -0.1169,8.7047 0.9983,17.5086 -0.1772,26.1249 -1.2309,9.0225 1.4018,19.5359 -3.5441,27.1212 -4.1812,6.4124 -6.3453,14.7592 -12.4478,19.326 -23.5478,17.6224 -44.9924,38.481 -70.6183,52.906 -36.912,20.7782 -72.9518,43.1901 -110.6997,62.4026 -69.296,35.2696 -139.7673,68.3206 -207.9097,105.7682 -64.8812,35.6555 -138.9284,58.2154 -194.6439,106.9665 -23.531,20.5896 -73.7042,30.6568 -70.593,61.7689 0.5883,5.8828 -3.9316,16.066 1.7648,17.6483 10.589,2.9414 21.2128,11.8881 31.7669,8.8241 45.0408,-13.0761 90.8241,-23.826 135.1392,-39.1762 47.5263,-16.4625 96.2495,-29.8113 142.5963,-49.3431 42.0025,-17.701 83.1724,-37.5262 125.9841,-53.1628 15.5633,-5.6843 30.1351,-16.6486 46.6678,-17.1649 16.4626,-0.5142 33.5908,-6.1714 49.4015,-1.654 16.3573,4.6735 42.5289,-1.6827 49.0719,14.0205 2.9414,7.0593 10.9967,13.8454 8.8241,21.1779 -4.7062,15.8834 -3.3252,35.0831 -14.1186,47.6503 -10.1295,11.7943 -16.8813,27.7061 -30.3109,35.4758 -33.9135,19.6206 -67.5538,39.7066 -101.4362,59.3812 -10.5551,6.1291 -20.3807,13.7397 -31.6025,18.5116 -64.7541,27.5358 -129.166,55.8914 -194.2388,82.664 -248.1729,102.1045 -497.3263,201.8597 -744.5296,306.2893 -146.8817,62.0493 -298.9092,113.1074 -440.6571,186.1236 -119.1359,61.3684 -240.1153,119.2844 -357.4275,184.0688 -78.4121,43.3021 -164.4456,75.0232 -235.2364,129.9066 -94.204,73.0354 -195.3965,137.8554 -282.63329,219.0818 -85.90441,79.9859 -163.76799,169.5928 -257.68904,239.9871 -51.87476,38.8803 -154.50688,181.4596 -155.62444,116.6412 -4.9917,-289.5172 -9.9834,-579.0352 -14.9751,-868.5524 z"
       id="path5"
       inkscape:path-effect="#path-effect7"
       inkscape:original-d="m 424.92363,2606.5494 693.84357,-319.4676 314.4759,-229.6173 159.7338,-144.7588 364.3926,-434.2762 74.8753,-89.8502 79.5493,-43.9989 51.1799,-3.5297 30.0021,7.0593 26.4723,19.4131 7.0593,15.8834 -3.5296,30.0021 -22.9427,45.8854 -44.1207,51.18 -70.593,61.7689 -54.7096,45.8854 -40.591,74.1227 5.2945,24.7075 28.2372,12.3538 192.366,-111.184 211.7791,-148.2453 144.7157,-120.0081 188.8363,-141.1861 49.4151,-33.5317 44.1206,-15.8834 37.0614,-5.2945 37.0613,12.3538 19.4131,24.7075 3.5297,15.8835 -3.5297,33.5317 -31.7669,33.5317 -240.0162,188.8363 -100.5951,60.0041 -65.2985,44.1206 -28.2373,31.7669 1.7649,21.1779 26.4724,1.7648 91.7709,-38.8262 338.8465,-187.0715 178.2474,-97.0654 72.3578,-31.7669 38.8262,5.2945 24.7076,15.8835 12.3537,26.4723 7.0593,22.9428 -14.1186,21.1779 -172.9529,109.4192 -307.0796,176.4825 -160.5992,90.0061 -15.8834,30.002 5.2945,17.6483 28.2372,5.2945 178.2474,-82.9468 270.0183,-151.775 58.2392,-35.2965 79.4172,-42.3558 65.2985,-17.6483 37.0614,-5.2945 19.4131,10.589 19.413,22.9427 v 24.7076 l -3.5296,28.2372 -12.3538,19.4131 -70.593,52.9447 -109.4192,61.7689 -208.2494,105.8895 -195.8957,107.6544 -70.593,61.7689 1.7648,17.6483 31.7669,8.8241 134.1267,-38.8262 142.9509,-49.4151 125.3026,-52.9447 47.6503,-17.6483 49.4151,-1.7648 49.4152,14.1186 8.8241,21.1779 -14.1186,47.6503 -30.0021,35.2965 -54.7095,31.7668 -77.6524,45.8855 -190.6011,81.182 -746.5213,307.0797 -442.9712,187.0715 -356.4947,183.5418 -236.4867,130.5971 -282.372,218.8384 -257.6646,240.0163 -155.91017,116.8554 z"
       transform="translate(-424.92363,-1124.9221)"
       sodipodi:insensitive="true" />
    <g
       id="g11"
       inkscape:label="nails"
       transform="translate(-434.27621,-1124.127)"
       style="fill:#dd4814"
       sodipodi:insensitive="true">
      <rect
         style="opacity:1;fill:#dd4814;stroke:#000000;stroke-width:0;stroke-linecap:round;stroke-linejoin:round;paint-order:markers fill stroke"
         id="rect7"
         width="159.45364"
         height="85.590187"
         x="500.83209"
         y="2460.2551"
         ry="42.795094"
         transform="matrix(0.71438074,-0.69975721,0.69897466,0.71514644,0,0)"
         rx="37.145119" />
      <rect
         style="opacity:1;fill:#dd4814;stroke:#000000;stroke-width:0;stroke-linecap:round;stroke-linejoin:round;paint-order:markers fill stroke"
         id="rect8"
         width="159.45364"
         height="85.590187"
         x="1163.5294"
         y="2843.4541"
         ry="42.795094"
         transform="matrix(0.71438074,-0.69975721,0.69897466,0.71514644,0,0)"
         rx="37.145119" />
      <rect
         style="opacity:1;fill:#dd4814;stroke:#000000;stroke-width:0;stroke-linecap:round;stroke-linejoin:round;paint-order:markers fill stroke"
         id="rect9"
         width="159.45364"
         height="85.590187"
         x="1934.9872"
         y="2800.938"
         ry="42.795094"
         transform="matrix(0.84111702,-0.54085317,0.53993196,0.84170867,0,0)"
         rx="37.145119" />
      <rect
         style="opacity:1;fill:#dd4814;stroke:#000000;stroke-width:0;stroke-linecap:round;stroke-linejoin:round;paint-order:markers fill stroke"
         id="rect10"
         width="159.45364"
         height="85.590187"
         x="1906.2566"
         y="3016.728"
         ry="42.795094"
         transform="matrix(0.84111702,-0.54085317,0.53993196,0.84170867,0,0)"
         rx="37.145119" />
      <rect
         style="opacity:1;fill:#dd4814;stroke:#000000;stroke-width:0;stroke-linecap:round;stroke-linejoin:round;paint-order:markers fill stroke"
         id="rect11"
         width="159.45364"
         height="85.590187"
         x="1642.8789"
         y="3274.4805"
         ry="42.795094"
         transform="matrix(0.84111702,-0.54085317,0.53993196,0.84170867,0,0)"
         rx="37.145119" />
    </g>
  </g>
  <path
     transform="rotate(-87.911449,1424.6672,2138.4757)"
     id="path27"
     d="m 1895.0551,2509.3241 c 90.914,-37.6518 183.4917,-71.7496 274.1109,-110.0311 247.2031,-104.4295 496.3567,-204.1847 744.5293,-306.2891 65.0727,-26.7726 129.4862,-55.1283 194.2402,-82.6641 11.2218,-4.7719 21.0465,-12.3826 31.6016,-18.5117 33.8824,-19.6746 67.5221,-39.7603 101.4356,-59.3808 13.4295,-7.7697 20.183,-23.6823 30.3125,-35.4766 10.7933,-12.5672 9.4109,-31.767 14.1171,-47.6504 2.1726,-7.3325 -5.8828,-14.1184 -8.8242,-21.1777 -6.543,-15.7032 -32.713,-9.3461 -49.0703,-14.0196 -15.8107,-4.5173 -32.9397,1.1382 -49.4023,1.6524 -16.5327,0.5163 -31.1047,11.4817 -46.668,17.166 -42.8117,15.6366 -83.9819,35.4611 -125.9844,53.1621 -46.3467,19.5318 -95.0694,32.8813 -142.5957,49.3438 -44.315,15.3502 -90.0979,26.0997 -135.1386,39.1757 -10.5541,3.064 -21.1786,-5.8828 -31.7676,-8.8242 -5.6964,-1.5823 -1.1774,-11.7656 -1.7657,-17.6484 -3.1112,-31.1121 47.0628,-41.18 70.5938,-61.7695 55.7154,-48.7511 129.7634,-71.3094 194.6445,-106.9649 68.1424,-37.4475 138.6143,-70.5 207.9102,-105.7695 37.7478,-19.2125 73.7872,-41.6242 110.6992,-62.4024 25.6259,-14.4249 47.0694,-35.2838 70.6172,-52.9062 6.1025,-4.5668 8.268,-12.9138 12.4492,-19.3262 4.9459,-7.5853 2.3121,-18.0986 3.543,-27.1211 1.1755,-8.6163 0.061,-17.4203 0.1777,-26.125 0.1329,-9.898 -12.7875,-15.1132 -19.1816,-22.6699 -4.8059,-5.6796 -13.1243,-7.2069 -19.6446,-10.8613 -10.6783,-5.9848 -24.2354,3.4621 -36.3535,5.1933 -22.427,3.2039 -43.7693,11.7995 -65.6621,17.6563 -28.5029,7.6253 -52.1136,27.7648 -78.1855,41.6094 -20.1494,10.6994 -39.0469,23.6257 -58.5938,35.3964 -88.6534,53.3854 -180.4196,101.4308 -270.6172,152.1661 -57.3213,32.2425 -119.2543,55.5131 -178.8691,83.2949 -8.6801,4.0451 -18.8259,-3.5282 -28.2383,-5.293 -6.0366,-1.1319 -3.5301,-11.7656 -5.2949,-17.6484 -3.2515,-10.8384 10.5903,-20.0013 15.8848,-30.002 28.0444,-52.9729 104.5743,-58.6084 156.8613,-87.9121 103.9228,-58.2424 206.5851,-118.7086 309.8887,-178.043 59.3606,-34.0948 115.7124,-73.1874 173.58,-109.7617 7.2171,-4.5614 9.5779,-14.2823 14.42,-21.3691 4.3124,-6.3117 -4.4961,-14.6136 -6.7442,-21.9199 -2.9634,-9.6313 -8.4919,-18.3134 -12.6699,-27.4961 -4.0547,-8.9118 -16.4711,-10.5883 -24.707,-15.8828 -10.9873,-7.0633 -25.8841,-3.5302 -38.8262,-5.295 -25.9818,-3.543 -48.0211,21.0819 -72.0313,31.6231 -59.6556,26.1903 -114.4444,62.3116 -171.6738,93.4531 -115.4176,62.8047 -230.0739,127.0013 -345.1211,190.4824 -29.2828,16.1578 -61.6087,26.0924 -92.3965,39.1719 -8.1396,3.4579 -17.6485,-1.1773 -26.4726,-1.7656 -7.0681,-0.4712 -1.1754,-14.1185 -1.7637,-21.1778 -1.1667,-13.9999 18.6666,-21 28,-31.5 17.2773,-19.4369 43.1167,-29.1688 64.6465,-43.7871 32.4956,-22.0637 67.4633,-40.2646 101.1777,-60.4218 87.2651,-52.1743 159.8327,-125.7298 239.7617,-188.5762 12.2781,-9.654 21.5286,-22.676 32.3282,-33.9746 7.6012,-7.9525 2.3015,-21.8798 3.4531,-32.8203 0.5863,-5.5695 -2.3782,-11.0582 -3.4531,-16.5938 -1.9965,-10.2819 -12.9431,-16.4732 -19.4141,-24.709 -8.0453,-10.2394 -24.7068,-8.2356 -37.0605,-12.3535 -2.9315,-0.9771 -5.9279,-1.246 -8.9629,-1.0742 -9.1053,0.5155 -18.5691,5.0074 -27.7461,6.3184 -15.4576,2.2082 -29.4183,10.5652 -44.1367,15.8125 -18.5023,6.5962 -32.5635,22.0623 -48.8653,33.0527 -65.1646,43.9329 -125.901,94.1112 -188.8652,141.1465 -50.3938,37.6449 -96.8549,80.2935 -145.2988,120.4199 -66.3591,54.9654 -141.1806,98.8391 -211.7618,148.2695 -60.7591,42.5519 -128.4443,74.2504 -192.6582,111.3887 -8.8935,5.1436 -18.8239,-8.2356 -28.2363,-12.3535 -7.7166,-3.376 -3.5301,-16.4713 -5.2949,-24.707 -5.9024,-27.5444 27.0595,-49.4156 40.5898,-74.1231 10.6318,-19.4146 33.9211,-28.4495 50.8809,-42.6738 25.0498,-21.0095 49.235,-43.0329 73.8848,-64.5117 17.0599,-14.8654 29.5936,-34.2761 44.4257,-51.3789 11.1879,-12.9008 15.3191,-30.5736 23.0157,-45.836 4.5135,-8.9504 2.3928,-19.9897 3.6484,-29.9668 0.7256,-5.766 -4.7418,-10.816 -7.0176,-16.2383 -4.1888,-9.9801 -17.4574,-12.8025 -26.1855,-19.2031 -8.2355,-6.0394 -19.9808,-4.7475 -29.9414,-7.1875 -16.6906,-4.0886 -34.3545,2.3335 -51.5274,3.4473 -30.2385,1.9611 -53.0344,29.3337 -79.5508,44 -30.8866,17.0835 -45.1909,54.2303 -67.7871,81.3457 -23.1025,27.7229 -46.2397,55.4168 -69.4019,83.0899 z"
     style="display:inline;opacity:1;fill:#c17d11;stroke:#000000;stroke-width:0;stroke-linecap:square"
     sodipodi:insensitive="true" />
  <g
     id="g21"
     inkscape:label="nails"
     transform="rotate(-86.899505,1405.9791,2158.7741)"
     style="fill:#204a87"
     sodipodi:insensitive="true">
    <rect
       style="opacity:1;fill:#204a87;stroke:#000000;stroke-width:0;stroke-linecap:round;stroke-linejoin:round;paint-order:markers fill stroke"
       id="rect17"
       width="159.45364"
       height="85.590187"
       x="500.83209"
       y="2460.2551"
       ry="42.795094"
       transform="matrix(0.71438074,-0.69975721,0.69897466,0.71514644,0,0)"
       rx="37.145119" />
    <rect
       style="opacity:1;fill:#204a87;stroke:#000000;stroke-width:0;stroke-linecap:round;stroke-linejoin:round;paint-order:markers fill stroke"
       id="rect18"
       width="159.45364"
       height="85.590187"
       x="1163.5294"
       y="2843.4541"
       ry="42.795094"
       transform="matrix(0.71438074,-0.69975721,0.69897466,0.71514644,0,0)"
       rx="37.145119" />
    <rect
       style="opacity:1;fill:#204a87;stroke:#000000;stroke-width:0;stroke-linecap:round;stroke-linejoin:round;paint-order:markers fill stroke"
       id="rect19"
       width="159.45364"
       height="85.590187"
       x="1934.9872"
       y="2800.938"
       ry="42.795094"
       transform="matrix(0.84111702,-0.54085317,0.53993196,0.84170867,0,0)"
       rx="37.145119" />
    <rect
       style="opacity:1;fill:#204a87;stroke:#000000;stroke-width:0;stroke-linecap:round;stroke-linejoin:round;paint-order:markers fill stroke"
       id="rect20"
       width="159.45364"
       height="85.590187"
       x="1906.2566"
       y="3016.728"
       ry="42.795094"
       transform="matrix(0.84111702,-0.54085317,0.53993196,0.84170867,0,0)"
       rx="37.145119" />
    <rect
       style="opacity:1;fill:#204a87;stroke:#000000;stroke-width:0;stroke-linecap:round;stroke-linejoin:round;paint-order:markers fill stroke"
       id="rect21"
       width="159.45364"
       height="85.590187"
       x="1642.8789"
       y="3274.4805"
       ry="42.795094"
       transform="matrix(0.84111702,-0.54085317,0.53993196,0.84170867,0,0)"
       rx="37.145119" />
  </g>
  <path
     style="opacity:1;fill:#c17d11;fill-opacity:1;stroke:#000000;stroke-width:0;stroke-linecap:round;stroke-linejoin:round;paint-order:markers fill stroke"
     d="m 854.69391,1645.409 67.68104,54.525 79.17275,-69.6145 z"
     id="path28" />
</svg>
