<?xml version="1.0" encoding="UTF-8" standalone="no"?>
<!-- Created with Inkscape (http://www.inkscape.org/) -->

<svg
   version="1.1"
   id="svg1"
   width="3542"
   height="2664"
   viewBox="0 0 3542 2664"
   sodipodi:docname="kep.svg"
   inkscape:version="1.3.2 (091e20e, 2023-11-25, custom)"
   xmlns:inkscape="http://www.inkscape.org/namespaces/inkscape"
   xmlns:sodipodi="http://sodipodi.sourceforge.net/DTD/sodipodi-0.dtd"
   xmlns="http://www.w3.org/2000/svg"
   xmlns:svg="http://www.w3.org/2000/svg">
  <defs
     id="defs1">
    <inkscape:path-effect
       effect="simplify"
       id="path-effect3"
       is_visible="true"
       lpeversion="1.3"
       threshold="0.01"
       steps="25.954827"
       smooth_angles="183.56436"
       helper_size="10.52599"
       simplify_individual_paths="false"
       simplify_just_coalesce="false" />
  </defs>
  <sodipodi:namedview
     id="namedview1"
     pagecolor="#ffffff"
     bordercolor="#000000"
     borderopacity="0.25"
     inkscape:showpageshadow="2"
     inkscape:pageopacity="0.0"
     inkscape:pagecheckerboard="0"
     inkscape:deskcolor="#d1d1d1"
     inkscape:zoom="0.41247896"
     inkscape:cx="2151.6249"
     inkscape:cy="1276.4288"
     inkscape:window-width="1920"
     inkscape:window-height="991"
     inkscape:window-x="-9"
     inkscape:window-y="-9"
     inkscape:window-maximized="1"
     inkscape:current-layer="layer2" />
  <g
     inkscape:groupmode="layer"
     inkscape:label="Image"
     id="g1" />
  <g
     inkscape:groupmode="layer"
     id="layer1"
     inkscape:label="rajz"
     transform="matrix(0.70015973,0,0,0.70015973,-429.66608,-312.53687)">
    <g
       id="g2"
       transform="translate(-246.85714,-185.14286)"
       inkscape:path-effect="#path-effect3">
      <path
         style="fill:#ffcc00"
         id="path1"
         d="m 1904.7808,1462.7666 c 5.3626,-6.9211 11.1307,-13.5235 16.315,-20.5836 2.9956,-4.0797 5.7915,-8.319 8.1453,-12.8043 1.3299,-2.5342 2.006,-5.3952 3.5135,-7.8285 6.1395,-9.9098 12.592,-19.6233 19.3166,-29.1498 9.0678,-12.846 17.9165,-25.8674 27.638,-38.2263 5.3769,-6.8356 10.2796,-14.0274 15.0556,-21.2908 1.3728,-2.0877 2.6606,-4.2327 4.0982,-6.2763 7.0837,-10.0703 14.7232,-19.7322 22.3883,-29.3619 3.4132,-4.288 6.9989,-8.4457 10.2127,-12.8851 5.3554,-7.3977 10.9063,-14.6714 16.9676,-21.5 8.0021,-9.0151 15.751,-18.2535 23.907,-27.1329 7.7913,-8.4824 15.0709,-17.4158 22.2602,-26.4087 5.3276,-6.6642 10.5498,-13.4151 16.028,-19.9565 7.6533,-9.1387 15.8289,-17.8194 23.9423,-26.5464 4.8934,-5.2633 9.4659,-10.8252 14.4925,-15.9622 10.7308,-10.9664 20.646,-22.7019 31.4859,-33.5641 4.0341,-4.0424 7.8114,-8.4709 12.5555,-11.6523 5.6007,-3.7558 10.8693,-7.9819 15.9802,-12.3746 6.0158,-5.1703 11.7691,-10.636 17.7386,-15.8585 9.8602,-8.6263 20.1906,-16.69 30.3955,-24.8992 1.1954,-0.9616 2.423,-1.8851 3.5804,-2.8922 8.4136,-7.3213 16.3878,-15.1247 24.4094,-22.8676 4.8755,-4.7059 9.8213,-9.3386 14.8172,-13.9165 11.624,-10.65143 23.2657,-21.32397 35.6971,-31.02264 11.3538,-8.85793 23.2116,-17.03864 34.8438,-25.52069 3.1882,-2.3248 6.3222,-4.72291 9.4428,-7.13721 10.0295,-7.75934 20.082,-15.48657 30.0392,-23.34169 8.6808,-6.84815 17.8472,-13.06028 27.2456,-18.8767 9.3038,-5.75787 18.7032,-11.38304 28.4105,-16.42708 10.8053,-5.61457 21.9258,-10.60771 32.6245,-16.42988 4.8905,-2.6614 9.7979,-5.29171 14.7056,-7.92121 6.0577,-3.24559 12.0772,-6.56678 18.2195,-9.64917 15.5218,-7.78928 31.2257,-15.20711 46.9125,-22.65563 7.9945,-3.79596 15.9317,-7.73106 24.0997,-11.13944 9.4673,-3.95057 19.0369,-7.68696 28.2705,-12.15792 5.2645,-2.54911 10.764,-4.58473 16.3455,-6.32051 4.416,-1.37333 8.8124,-2.91852 13.3722,-3.68564 3.2464,-0.54617 6.4179,-1.44937 9.5713,-2.37971 3.4469,-1.01694 6.8893,-2.07488 10.4163,-2.78478 2.5316,-0.50956 5.1175,-0.61337 7.6971,-0.78208 0.3139,-0.0205 0.6193,-0.0974 0.9288,-0.14919 5.3656,-0.89793 10.8001,-1.30689 16.2321,-1.51968 3.5572,-0.13934 7.1266,-0.53024 10.676,-0.25965 7.3811,0.5627 14.7898,0.61399 22.1876,0.52182 0.5234,-0.007 1.0469,0.004 1.5697,0.0387 5.2339,0.35044 10.4211,1.19982 15.5553,2.25373 3.3031,0.67803 6.7697,0.88608 9.871,2.20914 1.0567,0.45079 2.1729,0.73407 3.2789,1.03252 3.5033,0.94534 7.0624,1.70228 10.5009,2.87177 0.8183,0.27831 1.6407,0.56518 2.3969,0.9879 0.2585,0.14451 0.5228,0.29593 0.7206,0.51886 0.077,0.0871 0.1787,0.17718 0.1888,0.29414 0.01,0.0684 0.03,0.14336 0.097,0.1798 0.5037,0.27455 1.0016,0.55935 1.5041,0.83594 3.1029,1.70779 6.2656,3.31989 9.2336,5.26011 1.2645,0.82661 2.9149,1.36411 3.6484,2.68544 0.6385,1.15021 1.4854,2.1689 2.3877,3.12034 1.5167,1.59929 3.2122,3.02547 4.6412,4.70838 0.7455,0.87807 1.4094,1.83865 1.8609,2.90266 0.043,0.10161 0.084,0.20421 0.1227,0.30754 -2.7539,-3.84056 -5.4038,-7.76313 -8.3723,-11.44208 -0.2328,-0.2886 -0.4153,-0.64359 -0.7312,-0.83821 -0.046,-0.0285 -0.08,-0.0846 -0.1382,-0.0884 -0.083,0.0211 -0.034,0.124 -0.013,0.17762 0.2501,0.62271 0.5923,1.20178 0.9218,1.78427 1.3353,2.36045 2.7424,4.6791 4.1344,7.00626 1.8923,3.16356 3.8205,6.30953 5.5404,9.57118 0.7493,1.4209 1.4321,2.8788 1.9932,4.38536 1.061,2.84921 1.7567,5.82159 2.2598,8.81603 0.4091,2.4348 0.767,4.88233 0.9384,7.34486 0.076,1.09894 0.1025,2.20094 0.099,3.30225 -0.013,4.37799 -0.5773,8.74161 -1.4953,13.0182 -0.9361,4.36097 -2.3356,8.60271 -3.7386,12.83371 -0.2899,0.87421 -0.5532,1.75685 -0.8314,2.63482 -3.2323,10.20095 -6.7179,20.33153 -10.8013,30.22468 -2.798,6.77884 -5.1389,13.78538 -8.6305,20.23575 -0.9854,1.8204 -1.8836,3.68582 -2.7943,5.54413 -2.9718,6.06437 -5.8208,12.18997 -8.476,18.40034 -2.1427,5.01156 -4.5475,9.92448 -6.3414,15.07118 -2.0677,5.9321 -4.6333,11.67693 -7.3777,17.32337 -1.5495,3.18796 -3.187,6.33212 -4.7714,9.50271 -3.4291,6.8619 -5.9893,14.1129 -9.3678,21.0004 -0.5012,1.0218 -0.9848,2.052 -1.4786,3.0774 -3.2121,6.6699 -6.6023,13.2518 -10.0002,19.8291 -4.8605,9.4085 -9.0167,19.1568 -13.6879,28.6576 -0.4637,0.9433 -0.9472,1.8769 -1.4042,2.8236 -1.166,2.4153 -2.3299,4.8317 -3.4945,7.2477 -4.3051,8.9305 -8.0992,18.1431 -13.1267,26.6883 -3.7415,6.3595 -7.0167,12.9776 -10.2163,19.6217 -1.9212,3.9893 -3.9172,7.943 -5.7775,11.9612 -3.6753,7.9386 -8.0169,15.5552 -11.6601,23.5075 -3.3455,7.3024 -7.1979,14.3572 -11.1194,21.3624 -2.6331,4.7038 -5.4089,9.3316 -7.87,14.1279 -5.2422,10.2164 -10.5954,20.384 -15.3528,30.8394 -1.018,2.2372 -1.9865,4.4964 -2.9622,6.7523 -5.6839,13.1427 -11.1529,26.3894 -17.3835,39.2817 -3.6029,7.455 -7.0496,14.9965 -9.9507,22.7559 -0.9964,2.6649 -2.0286,5.3248 -2.7786,8.0694 -3.5425,12.9627 -7.2382,25.8811 -11.0262,38.7777 -3.401,11.579 -6.2685,23.306 -9.0035,35.0569 -2.3802,10.2264 -3.9806,20.6249 -6.6344,30.7893 -0.1225,0.469 -0.2261,0.9437 -0.3742,1.4052 -2.599,8.1004 -5.1219,16.2264 -7.857,24.2819 -3.1818,9.3711 -6.4432,18.7341 -10.4294,27.7919 -3.5667,8.1048 -6.5279,16.504 -10.7099,24.3103 -4.705,8.7827 -9.2113,17.6814 -13.2019,26.8105 -2.1972,5.0263 -4.1223,10.1732 -6.5369,15.1028 -0.844,1.7231 -1.7395,3.4242 -2.7785,5.04 -1.8836,2.9291 -4.0658,5.6488 -6.2323,8.3701 -0.9857,1.238 -1.9517,2.4914 -2.9232,3.7407 -4.1352,5.3182 -8.6748,10.3042 -13.2705,15.2242 -2.232,2.3895 -4.7197,4.5622 -6.7037,7.1614 -1.6811,2.2023 -3.6556,4.1645 -5.7464,5.9762 -2.6026,2.2552 -5.1395,4.6518 -8.1083,6.3925 -5.3408,3.1314 -10.4482,6.6765 -15.9574,9.5033 -5.4631,2.8031 -11.1492,5.1416 -16.8783,7.3391 -5.0057,1.92 -9.8652,4.3061 -15.0482,5.6774 -2.7265,0.7213 -5.3543,1.7619 -7.9521,2.8491 -3.1734,1.328 -6.3174,2.7436 -9.5911,3.8133 -1.76,0.5751 -3.5744,0.9543 -5.3897,1.3257 -2.7948,0.5718 -5.5223,1.4484 -8.3426,1.8989 -0.3816,0.061 -1.4183,-0.1199 -1.1484,0.1566 0.069,0.07 0.1606,0.1749 0.115,0.2676 -0.058,0.1174 -0.1983,0.1496 -0.3181,0.1665 -0.5138,0.072 -1.0326,0.015 -1.546,-0.026 -0.903,-0.072 -1.811,-0.221 -2.7157,-0.1277 -0.1717,0.018 -0.3621,0.037 -0.4922,0.1544 -0.1077,0.097 -0.076,0.2614 -0.01,0.3802 0.045,0.078 0.096,0.1522 0.1444,0.2285 5.2099,8.2713 10.4257,16.5428 15.934,24.619 0.4459,0.6538 0.7955,1.3954 1.3727,1.9371 0.054,0.051 0.08,0.2026 0.1486,0.1656 0.077,-0.042 -0,-0.1247 -0.025,-0.1756 -0.105,-0.2277 -0.2332,-0.4432 -0.3585,-0.6601 -1.8933,-3.2758 -3.901,-6.4833 -5.8942,-9.6986 -3.4211,-5.5188 -6.8794,-11.0144 -10.3364,-16.5108 -0.4798,0.05 -0.967,0.1945 -1.3433,0.5047 -0.3865,0.3187 -0.5956,0.8092 -0.6502,1.302 -0.063,0.5695 0.027,1.1433 0.1652,1.6955 0.2621,1.0504 0.7052,2.0449 1.1925,3.0075 0.98,1.9358 2.1717,3.7552 3.4214,5.5252 2.257,3.1969 4.7352,6.2335 7.3402,9.1515 1.5453,1.731 3.1186,3.4442 4.8397,5.002 0.431,0.39 0.8615,0.7883 1.3552,1.0968 0.1168,0.073 0.2379,0.1648 0.3764,0.1683 0.082,0 0.1223,-0.091 0.1089,-0.1717 -0.052,-0.3115 -0.2186,-0.5854 -0.3777,-0.8519 -0.4534,-0.7596 -0.93,-1.5051 -1.4026,-2.2529 -3.1998,-5.0635 -6.4511,-10.0946 -9.759,-15.0882 -2.075,-3.1324 -4.1302,-6.2799 -6.3126,-9.3385 -0.069,-0.096 -0.1381,-0.1929 -0.2077,-0.2889 0.038,0.1247 0.124,0.2238 0.1945,0.3309 0.9529,1.4475 1.9267,2.8811 2.9004,4.3145 3.6913,5.4337 7.4234,10.8395 11.1612,16.2413 1.6718,2.4158 2.0951,6.9793 5.0211,7.2435 1.4316,0.1293 2.8728,0.2406 4.2735,0.5814 0.8956,0.2179 1.7757,0.5391 2.554,1.0401 0.7534,0.485 1.3455,1.1979 1.7317,2.0094 0.095,0.199 0.1431,0.4229 0.1106,0.6461 -0.032,0.22 -0.1137,0.4501 -0.042,0.6675 0.034,0.1021 0.127,0.1676 0.2241,0.2129 1.744,0.813 3.3168,2.2925 5.2361,2.4305 2.4822,0.1785 4.9243,0.7384 7.2861,1.5098 3.0487,0.9956 5.974,2.3213 8.8974,3.6299 1.3082,0.5856 2.9995,0.6377 3.942,1.7176 0.4143,0.4747 0.7163,1.0462 1.1893,1.4674 0.409,0.3643 0.8925,0.6279 1.367,0.894 1.8361,1.0295 3.8219,1.7672 5.6268,2.8561 0.7916,0.4776 3.1272,1.9704 2.3723,1.4366 -0.2388,-0.1688 -0.4886,-0.3211 -0.7342,-0.4799 -4.8142,-3.1133 -19.7075,-11.6672 -14.5338,-9.1969 0.2359,0.1126 0.457,0.2528 0.6828,0.3838 0.6859,0.3978 1.5028,0.6289 2.0553,1.1977 1.3475,1.3873 2.8924,2.5646 4.4832,3.6574 2.5015,1.7184 5.2042,3.1568 7.5506,5.0871 0.575,0.473 1.2169,0.8527 1.8233,1.2825 2.853,2.0217 5.4207,4.4214 7.7824,6.9945 1.1297,1.2309 2.0753,2.6305 3.275,3.7928 0.3468,0.3359 0.6932,0.6722 1.0313,1.0169 2.4262,2.4738 4.5278,5.2477 6.4204,8.1452 1.2091,1.8512 2.0505,3.9467 3.4229,5.6797 4.474,5.6495 8.2126,11.8637 11.2736,18.3834 0.1598,0.3404 0.3511,0.6683 0.4741,1.0237 2.209,6.3825 4.4589,12.7575 6.3256,19.248 1.8269,6.3522 3.3272,12.8136 4.1559,19.3767 0.166,1.3143 0.2307,2.6403 0.4154,3.9521 0.6651,4.7231 1.7585,9.3699 2.7542,14.0304 0.6023,2.819 1.3793,5.6248 1.585,8.5009 0.6697,9.3624 0.6374,18.7732 1.5539,28.1151 0.7615,7.7618 1.2872,15.552 1.338,23.355 0.012,1.7891 0.032,3.5782 0.01,5.3674 -0.1006,8.2391 -0.7707,16.457 -1.4941,24.6607 -0.7473,8.4741 -0.9989,17.0609 -2.9105,25.3533 -0.101,0.438 -0.2155,0.8727 -0.3173,1.3106 -0.8497,3.6539 -1.3393,7.3776 -1.8223,11.0937 -0.257,1.9773 -0.3643,3.9844 -0.8245,5.9247 -1.9936,8.4052 -4.4696,16.6846 -6.7778,25.0075 -1.2564,4.5301 -2.907,8.937 -4.5791,13.3263 -0.9988,2.6218 -1.9241,5.2713 -2.9422,7.8858 -2.692,6.9129 -5.9638,13.5927 -9.6618,20.0245 -5.9005,10.2626 -10.7669,21.0863 -16.7459,31.3029 -3.4323,5.865 -7.3272,11.4431 -11.3372,16.924 -1.9639,2.6842 -4.2287,5.165 -5.9405,8.0166 -2.4825,4.1354 -5.4005,7.9948 -8.5283,11.6611 -2.4453,2.8664 -4.866,5.7743 -7.6186,8.346 -3.0627,2.8614 -5.8376,6.0095 -8.5891,9.1658 -2.8187,3.2335 -5.641,6.4739 -8.7371,9.4486 -1.2329,1.1845 -2.5358,2.2925 -3.7967,3.4468 -7.5726,6.9327 -14.8162,14.2123 -22.0507,21.4938 -0.4848,0.488 -0.9781,0.9675 -1.476,1.4421 -4.7936,4.5694 -10.0112,8.6739 -14.7206,13.334 -1.9761,1.9553 -3.2949,4.5979 -5.5627,6.2082 -2.1135,1.5007 -4.035,3.2477 -5.9429,4.9965 -1.9722,1.8079 -3.9626,3.605 -6.1242,5.1882 -0.3791,0.2776 -0.825,0.4738 -1.1537,0.8095 -0.1038,0.106 -0.1959,0.2221 -0.2956,0.3321 -2.4918,2.7485 -5.2763,5.2133 -8.1355,7.5707 -3.8576,3.1805 -7.7718,6.2895 -11.5681,9.5485 -0.2153,0.1849 -0.3557,0.5137 -0.6351,0.5671 -0.9119,0.1744 -1.7624,0.5965 -2.5063,1.1451 -0.9184,0.6775 -1.7014,1.5165 -2.4444,2.3775 -0.9997,1.1585 -1.9236,2.3884 -3.0361,3.4446 -0.5777,0.5484 -1.2042,1.0785 -1.9479,1.3741 -0.4262,0.1694 -0.8401,0.3734 -1.218,0.6373 -0.7897,0.5515 -1.4815,1.2308 -2.1154,1.9523 -0.2796,0.3183 -0.5476,0.6466 -0.8074,0.9812 1.2883,-2.056 2.8015,-3.9573 4.2123,-5.9288 0.2396,-0.3349 0.5015,-0.6721 0.6147,-1.0715 0.051,-0.1806 0.029,-0.3902 -0.096,-0.5389 -0.1657,-0.1969 -0.4089,-0.3014 -0.6423,-0.3931 -0.4804,-0.1887 -0.9786,-0.3263 -1.4749,-0.4657 -0.9657,-0.2714 -1.9314,-0.5432 -2.89,-0.8395 -0.5761,-0.1781 -1.15,-0.3636 -1.7206,-0.5585 2.5115,9.7608 -2.0394,26.1325 7.5344,29.2824 2.0281,0.6673 3.9941,1.5203 6.0447,2.1157 0.5276,0.1531 1.0751,0.2736 1.6276,0.2426 0.6018,-0.034 1.1756,-0.2433 1.7252,-0.4777 0.7822,-0.3335 1.5453,-0.7093 2.3164,-1.0673 2.1593,-1.0028 4.3593,-1.9167 6.5856,-2.7601 0.357,-0.1352 1.2995,-0.708 1.0728,-0.4008 -0.243,0.3293 -0.4357,0.6926 -0.6863,1.0184 -0.053,0.068 0.054,0.1375 0.1201,0.087 0.13,-0.099 0.2672,-0.189 0.3964,-0.2898 0.336,-0.2623 0.6541,-0.5464 0.973,-0.8288 0.4814,-0.4263 0.9862,-0.8259 1.4593,-1.2616 0.257,-0.2367 0.49,-0.497 0.7397,-0.7415 0.7293,-0.7142 1.4839,-1.4023 2.2571,-2.0687 2.1448,-1.8483 4.4272,-3.5264 6.6567,-5.269 0.5014,-0.392 0.9925,-0.7969 1.4808,-1.2051 5.7015,-4.7662 11.4105,-9.5288 16.902,-14.5378 0.8217,-0.7494 1.6044,-1.5424 2.4496,-2.2652 0.9628,-0.8234 1.9315,-1.6398 2.8892,-2.4693 4.6111,-3.9939 9.1488,-8.0959 13.2649,-12.6002 2.8034,-3.0678 5.8933,-5.8557 9.0225,-8.5842 3.6451,-3.1784 7.351,-6.2975 10.7672,-9.7264 0.9592,-0.9626 1.8831,-1.9593 2.8435,-2.9211 6.6593,-6.6692 13.6378,-13.0077 20.4819,-19.4862 3.8425,-3.6372 7.3553,-7.6 10.8706,-11.5486 3.1106,-3.494 6.3762,-6.8435 9.6017,-10.2355 5.2956,-5.5691 10.2878,-11.4463 14.6706,-17.7654 0.805,-1.1605 1.5082,-2.3915 2.3511,-3.5248 4.9206,-6.6163 9.8538,-13.2339 14.3274,-20.1651 1.4299,-2.2156 2.8327,-4.4505 4.1305,-6.746 5.8891,-10.4161 11.0016,-21.2487 16.9371,-31.6406 4.4245,-7.7463 8.4295,-15.7761 11.3413,-24.2082 1.9998,-5.791 4.4424,-11.4258 6.2373,-17.2871 0.4116,-1.3439 0.8207,-2.6886 1.2454,-4.0286 1.7138,-5.408 3.491,-10.804 4.8161,-16.3243 0.5174,-2.155 0.5377,-4.4394 1.3099,-6.5171 0.8262,-2.2231 1.3345,-4.5505 1.7015,-6.8894 0.5811,-3.7031 0.8301,-7.4549 1.5605,-11.1352 0.2415,-1.2167 0.7138,-2.3818 0.9085,-3.6072 1.2468,-7.8488 2.3528,-15.7358 2.7736,-23.6777 0.011,-0.2127 0.01,-0.4262 0.032,-0.638 1.1109,-10.6166 2.3863,-21.2885 1.9565,-31.953 -0.2315,-5.7429 0.067,-11.4974 -0.308,-17.236 -0.1561,-2.391 -0.7554,-4.7348 -0.9046,-7.1274 -0.6046,-9.6934 0.011,-19.4867 -1.3442,-29.1051 -0.9112,-6.4694 -1.9305,-12.9311 -3.3995,-19.3012 -0.3643,-1.5795 -0.818,-3.1369 -1.1981,-4.7125 -0.5708,-2.3664 -0.8311,-4.7933 -1.0264,-7.2155 -0.2474,-3.0689 -0.3914,-6.1521 -0.8828,-9.1954 -0.3525,-2.1831 -0.9004,-4.3454 -1.7751,-6.3809 -0.1104,-0.2569 -0.2931,-0.4893 -0.347,-0.7637 -0.737,-3.7485 -1.8453,-7.4096 -2.9644,-11.058 -1.1249,-3.6671 -2.4524,-7.3045 -3.0404,-11.0988 -0.054,-0.3459 -0.1909,-0.67 -0.3056,-0.9983 -1.5481,-4.433 -3.2494,-8.8231 -5.3563,-13.024 -1.724,-3.4374 -3.7156,-6.757 -6.1273,-9.7573 -0.4038,-0.5023 -0.8544,-0.9637 -1.2613,-1.4639 -1.3947,-1.7146 -2.5495,-3.6066 -3.649,-5.5192 -1.3241,-2.3032 -2.5824,-4.6519 -4.1159,-6.8263 -0.8335,-1.1817 -1.7872,-2.2727 -2.787,-3.3186 -1.6508,-1.7271 -3.0709,-3.6541 -4.4964,-5.5662 -1.3497,-1.8104 -2.713,-3.6217 -4.2954,-5.2383 -1.1062,-1.1301 -2.4587,-1.9721 -3.6769,-2.9842 -2.2893,-1.902 -4.3747,-4.043 -6.7488,-5.8437 -1.0342,-0.7845 -2.0653,-1.6283 -3.2774,-2.0976 -0.3178,-0.1231 -0.6635,-0.1158 -0.998,-0.1415 -0.2878,-0.022 -0.5838,-0.1109 -0.7975,-0.3132 -0.2776,-0.2627 -0.4409,-0.6141 -0.6406,-0.9339 -0.062,-0.099 -0.1347,-0.192 -0.2214,-0.2728 -3.6542,-3.4088 -7.6824,-6.398 -11.8869,-9.0911 -5.5651,-3.5645 -11.4409,-6.6195 -17.4344,-9.3942 -2.1542,-0.9973 -4.3231,-1.9673 -6.5461,-2.8036 -3.6726,-1.3817 -7.4261,-2.5544 -11.0279,-4.1198 -1.3373,-0.5813 -2.6821,-1.1672 -3.9186,-1.9412 -0.1763,-0.1104 -0.3408,-0.2386 -0.5043,-0.3669 -0.8319,-0.6525 -1.5704,-1.4262 -2.4676,-1.9927 -0.7651,-0.4832 -1.6041,-0.8349 -2.4525,-1.1406 -1.8099,-0.6523 -3.7105,-1.0132 -5.616,-1.2453 -3.5459,-0.4319 -7.889,1.3945 -10.6756,-0.8408 -0.064,-0.052 -0.1098,0.021 -0.083,0.099 0.1061,0.313 0.1787,0.6355 0.2654,0.9542 2.2049,8.1103 4.6661,16.1482 6.9454,24.2376 0.1225,0.4345 0.3944,0.865 0.334,1.3125 -0.01,0.061 0.065,0.1606 -0.022,0.1884 -0.07,-0.01 -0.093,-0.086 -0.1232,-0.1385 -0.3223,-0.5664 -0.5906,-1.1608 -0.8683,-1.7495 -1.2308,-2.6092 -2.4335,-5.2315 -3.6745,-7.8359 -2.6933,-5.6524 -5.384,-11.311 -8.3581,-16.821 -0.041,-0.075 -0.058,-0.1724 -0.1273,-0.2227 -0.064,-0.046 -0.1203,0.03 -0.1332,0.1045 -0.067,0.3885 -0.019,0.7831 0.018,1.1715 0.1774,1.8505 0.535,3.6779 0.9348,5.4912 0.8019,3.6376 1.8351,7.2343 3.2624,10.6774 0.7673,1.8509 1.645,3.6677 2.7761,5.3254 0.6692,0.9809 1.4281,1.9139 2.3485,2.6696 0.6441,0.5289 1.3744,0.9705 2.1788,1.2033 0.7782,0.2251 1.6595,-0.2759 2.4033,0.049 0.058,0.025 0.1543,-0.07 0.081,-0.1083 -0.073,-0.039 -0.066,-0.1336 -0.098,-0.1995 -0.052,-0.1073 -0.117,-0.2069 -0.1723,-0.3128 -0.3864,-0.7394 -0.7548,-1.4879 -1.1299,-2.2329 -3.9942,-7.9338 -5.9511,-17.3245 -12.0874,-23.7488 -0.1056,-0.1106 -0.273,-0.1118 -0.4145,-0.09 -0.1159,0.018 -0.2652,0.045 -0.31,0.1594 -0.033,0.085 0.033,0.163 0.066,0.2374 4.043,8.9712 6.0051,19.4725 12.7825,26.6057 0.079,0.083 0.2035,0.072 0.3075,0.061 0.5645,-0.062 1.1046,-0.2458 1.6447,-0.4108 0.9884,-0.3021 1.9588,-0.6981 2.9855,-0.84 0.132,-0.018 0.2784,-0.063 0.399,-0 0.062,0.03 0.1212,0.1051 0.1937,0.079 0.2772,-0.099 0.5664,-0.155 0.8512,-0.2267 3.1943,-0.8043 6.4316,-1.4632 9.5589,-2.5097 0.7804,-0.2611 1.5471,-0.5604 2.3214,-0.8386 4.5211,-1.6241 9.095,-3.0959 13.6227,-4.7011 2.5801,-0.9147 5.1435,-1.8785 7.671,-2.9308 0.5417,-0.2256 1.0876,-0.4408 1.6346,-0.6533 7.232,-2.8085 14.5606,-5.3791 21.6705,-8.4932 4.2102,-1.8441 8.3274,-3.9068 12.2833,-6.2521 5.2492,-3.112 10.5308,-6.1833 15.5672,-9.635 0.2928,-0.2007 0.5838,-0.4043 0.8666,-0.6191 0.6425,-0.4878 1.2727,-0.9912 1.9085,-1.4877 3.1523,-2.4616 6.2864,-4.9611 9.1609,-7.7477 1.5978,-1.5488 2.9733,-3.3055 4.4871,-4.9378 5.7242,-6.1724 11.571,-12.238 17.0084,-18.6696 1.8992,-2.2464 3.6934,-4.5784 5.502,-6.8979 2.8797,-3.6934 5.8417,-7.3313 8.4572,-11.2211 0.5688,-0.846 1.1535,-1.6843 1.6499,-2.5747 3.6304,-6.5125 6.2869,-13.4981 9.3216,-20.3072 0.5743,-1.2886 1.1644,-2.5701 1.7586,-3.8497 3.544,-7.6321 7.6588,-14.983 11.3363,-22.5513 3.891,-8.0076 7.4302,-16.1782 10.7774,-24.4242 3.639,-8.9651 7.3548,-17.9089 10.4643,-27.0753 0.2976,-0.8775 0.5993,-1.7537 0.8675,-2.641 2.4211,-8.006 5.2919,-15.868 7.7807,-23.852 1.7998,-5.7737 3.1154,-11.6838 4.3102,-17.608 1.1198,-5.5528 2.2172,-11.1096 3.368,-16.6567 2.1933,-10.5724 5.2473,-20.9391 7.6716,-31.4572 0.041,-0.1761 0.066,-0.3564 0.1212,-0.5283 4.1687,-12.9004 7.0071,-26.198 11.2014,-39.0923 2.3405,-7.1951 4.8778,-14.3371 7.9484,-21.2568 1.2081,-2.7226 2.6899,-5.3171 3.8853,-8.0455 5.825,-13.2957 13.1177,-26.0165 17.6747,-39.7991 1.4742,-4.4588 3.3816,-8.7611 5.4543,-12.9706 3.534,-7.1776 7.751,-14.0198 10.9323,-21.364 0.5175,-1.1947 1.1678,-2.3244 1.7887,-3.4668 4.918,-9.0485 10.1827,-17.9096 14.835,-27.1019 1.098,-2.1695 2.1114,-4.3805 3.1718,-6.5685 3.2654,-6.7378 7.0205,-13.2306 10.1237,-20.0482 0.4451,-0.9779 0.8022,-1.9965 1.2908,-2.9534 4.2502,-8.3248 7.9072,-16.9424 12.3273,-25.182 1.1597,-2.1618 2.5629,-4.19 3.656,-6.3864 5.7291,-11.5113 11.205,-23.1454 17.0068,-34.6242 5.2429,-10.3731 9.5001,-21.2311 14.9929,-31.4727 3.8723,-7.22 7.2532,-14.6901 11.035,-21.9606 2.9795,-5.7279 5.4374,-11.7037 7.9745,-17.6351 0.6847,-1.6008 1.3033,-3.2332 2.085,-4.789 2.8893,-5.7506 5.9935,-11.39766 8.6135,-17.28008 1.3184,-2.96005 2.2291,-6.0825 3.4808,-9.07264 3.4094,-8.1444 6.9069,-16.25193 10.2806,-24.41118 1.3629,-3.29636 2.688,-6.61714 4.351,-9.77741 0.8992,-1.70882 2.3341,-3.12684 3.0453,-4.92324 3.2685,-8.2559 7.2983,-16.20529 10.3361,-24.54784 2.4671,-6.77526 5.3687,-13.38869 7.6386,-20.23627 0.9181,-2.76971 1.2721,-5.71901 2.364,-8.42577 2.7004,-6.69411 4.913,-13.59647 6.4033,-20.66325 1.0511,-4.98455 2.1956,-10.04744 1.9856,-15.13841 -0.2905,-7.04016 -0.9963,-14.0782 -2.4262,-20.98344 -0.3085,-1.49008 -0.4991,-3.02055 -1.0279,-4.44743 -4.0458,-10.91792 -9.6736,-21.23882 -16.5869,-30.60775 -2.6463,-3.58631 -5.0121,-7.51246 -8.4311,-10.37122 -3.153,-2.63636 -5.8942,-5.72579 -9.0802,-8.3252 -1.6308,-1.33046 -3.4371,-2.42566 -5.3029,-3.40525 -0.6215,-0.32631 -1.2307,-0.67495 -1.8454,-1.0139 -3.9679,-2.18822 -7.9426,-4.36541 -11.9671,-6.44827 -0.8836,-0.45734 -1.6845,-1.1535 -2.6584,-1.35749 -7.2341,-1.5153 -14.2631,-3.88022 -21.498,-5.38071 -6.4003,-1.3274 -12.8462,-2.48545 -19.3565,-3.11549 -3.5093,-0.33961 -7.0353,-0.52104 -10.5615,-0.49697 -7.7572,-0.0371 -15.5119,-0.62331 -23.2667,-0.41042 -9.6921,0.26608 -19.4054,0.81192 -28.9773,2.34051 -6.7611,1.07971 -13.4237,2.68534 -20.0522,4.38294 -3.4013,0.87108 -6.8089,1.71824 -10.1996,2.62966 -7.6926,2.06777 -15.3325,4.37197 -22.7655,7.24746 -3.0521,1.18074 -6.0046,2.60014 -9.0289,3.85097 -9.5462,3.94831 -19.029,8.04724 -28.4579,12.26685 -16.0323,7.17479 -31.8285,14.85964 -47.6686,22.44479 -8.2222,3.93727 -16.4558,7.85825 -24.5335,12.08527 -11.2087,5.86548 -22.3085,11.93595 -33.4714,17.88767 -10.6777,5.69307 -21.8176,10.48275 -32.4115,16.33236 -12.2764,6.77866 -24.4306,13.79954 -36.1711,21.47634 -7.3098,4.77961 -14.3341,9.9746 -21.3485,15.17969 -13.036,9.67351 -25.3817,20.25066 -38.5299,29.77169 -11.8194,8.55882 -23.7802,16.92963 -35.3193,25.86926 -0.8792,0.68114 -1.7398,1.38588 -2.5976,2.09365 -16.1095,13.29078 -31.7671,27.13301 -46.8724,41.55422 -8.6857,8.2923 -17.1954,16.7788 -26.2161,24.7113 -0.5805,0.5105 -1.1772,1.0021 -1.7786,1.4881 -10.8642,8.7805 -21.8935,17.3651 -32.4445,26.5253 -5.355,4.6491 -10.5296,9.5006 -15.8655,14.1716 -5.6339,4.9319 -11.4184,9.7073 -17.5437,14.0208 -0.432,0.3043 -0.9007,0.5608 -1.301,0.9056 -6.9274,5.9668 -13.4274,12.4103 -19.7375,19.0208 -8.8074,9.2268 -17.7479,18.3389 -26.1167,27.9661 -11.7099,13.4707 -24.3522,26.097 -36.0104,39.6145 -3.1509,3.6534 -6.1737,7.4143 -9.195,11.1746 -8.5634,10.6581 -16.9516,21.4648 -25.9156,31.7937 -2.3885,2.7522 -4.8384,5.4502 -7.2974,8.1395 -7.6964,8.4171 -15.2407,16.9731 -22.5897,25.6935 -5.7971,6.8789 -11.5977,13.7767 -16.7809,21.1341 -0.6159,0.8744 -1.2872,1.7077 -1.9499,2.5467 -0.4511,0.5712 -0.899,1.1451 -1.3501,1.7163 -9.2804,11.7506 -18.7593,23.3531 -27.5931,35.4479 -1.1142,1.5255 -2.2722,3.0213 -3.3126,4.5981 -0.3379,0.5121 -0.6705,1.0277 -1.0051,1.542 -4.8052,7.3857 -9.5777,14.8056 -14.8874,21.8439 -0.8282,1.0977 -1.7021,2.1605 -2.5247,3.2624 -9.4121,12.6077 -18.3123,25.5889 -27.6612,38.2431 -6.171,8.3528 -11.8329,17.0647 -17.443,25.7991 -1.3804,2.149 -2.9951,4.1634 -4.1487,6.4423 -0.2241,0.4427 -0.3878,0.9125 -0.5435,1.3824 -0.4926,1.4874 -0.7621,3.0435 -1.3291,4.5062 -0.2484,0.6408 -0.5856,1.2413 -0.9087,1.8462 -0.6918,1.2952 -1.4374,2.5614 -2.2237,3.8014 -2.2987,3.625 -4.9356,7.021 -7.6569,10.3355 -3.743,4.5589 -7.6606,8.98 -11.1736,13.7234 -0.5466,0.738 -2.299,1.6372 -1.6053,2.239 7.6128,6.6048 15.2257,13.2097 22.8385,19.8145 z"
         inkscape:original-d="m 1904.7808,1462.7666 c 10.1679,-13.1266 22.1061,-25.4449 27.9738,-41.2164 6.1332,-9.8999 12.5143,-19.7913 19.3764,-29.2313 9.0447,-12.8182 18.2184,-25.5538 27.5782,-38.1448 6.9324,-8.813 13.0484,-18.1794 19.1538,-27.5671 10.2342,-14.5501 21.632,-28.2484 32.601,-42.247 5.3615,-7.4059 11.0789,-14.5105 16.9676,-21.5 7.8912,-8.8885 15.491,-18.0284 23.5607,-26.7566 13.7073,-14.8696 25.7982,-31.1266 38.6345,-46.7415 12.277,-14.6601 25.868,-28.1084 38.4348,-42.5086 14.6844,-15.004 27.9804,-31.6181 44.0414,-45.2164 10.65,-7.1427 20.0579,-15.9216 29.5348,-24.5097 12.2385,-11.0886 25.3492,-21.1159 38.1599,-31.5148 12.0498,-10.4835 23.1619,-21.9652 34.8985,-32.7946 13.0017,-12.0463 26.3004,-23.79466 40.0252,-35.01214 11.5191,-8.98724 23.5483,-17.34729 35.4006,-25.92268 13.1897,-9.75046 25.7499,-20.30324 38.9252,-30.07691 17.3583,-13.69222 36.3829,-24.6531 55.6561,-35.30378 11.2924,-5.86587 22.9001,-11.04522 34.048,-17.20772 10.4751,-5.64407 20.9503,-11.28978 31.5016,-16.79254 13.4556,-6.76347 27.0737,-13.19119 40.6615,-19.68815 10.0817,-4.77777 20.1364,-9.61661 30.3507,-14.10692 9.4698,-3.95162 18.7743,-8.26766 28.2705,-12.15792 9.4349,-4.56931 19.5779,-7.46813 29.7177,-10.00615 9.1767,-1.53672 18.288,-6.11162 27.7149,-5.94052 9.2081,-1.63819 18.4761,-1.77149 27.8067,-1.93457 7.6539,0.58478 15.3502,0.58671 23.0298,0.51512 8.875,0.51447 17.5293,2.48699 26.1538,4.50831 2.9733,1.34896 17.0918,3.87351 17.1081,5.83771 4.7063,2.69105 10.1381,5.19048 14.4607,8.82877 2.2662,4.09893 7.4119,6.777 9.0125,11.03892 -20.1043,-28.25713 -1.8524,-0.31051 1.6092,6.69668 3.2198,6.04944 4.2157,13.07346 4.9123,19.80776 0.6741,10.0168 -1.7819,20.00493 -5.1316,29.37807 -2.9866,9.61216 -6.2263,19.1049 -9.8845,28.48649 -3.1856,8.31954 -7.0805,16.31348 -10.3695,24.59734 -1.0062,1.7787 -6.1111,12.26778 -8.3294,17.24827 -3.2628,7.18514 -6.1768,14.51548 -9.2823,21.76738 -3.069,8.80427 -7.1956,17.11196 -11.4193,25.40086 -3.8504,7.33552 -6.445,15.20002 -10.1805,22.58902 -3.4883,7.3218 -7.0945,14.5789 -10.8812,21.7514 -5.4966,10.4979 -10.0387,21.453 -15.3881,32.0183 -5.5512,11.4986 -11.0431,23.014 -16.8399,34.3906 -5.9979,10.1943 -10.7676,20.9962 -15.9938,31.5829 -3.6794,7.9471 -7.6173,15.7441 -11.6601,23.5075 -5.5963,12.2163 -12.5902,23.6969 -18.9894,35.4903 -6.3304,12.3371 -12.853,24.652 -18.2481,37.4371 -5.704,13.1956 -11.7103,26.2548 -17.4504,39.4363 -4.854,10.0459 -9.391,20.1717 -12.7293,30.8253 -3.5439,12.9669 -6.9619,25.9577 -11.0262,38.7777 -3.2663,11.1149 -5.9928,22.3967 -8.675,33.6682 -2.6806,11.1491 -4.3293,22.5109 -7.3371,33.5832 -2.599,8.1004 -5.2584,16.1807 -7.857,24.2819 -3.1843,9.378 -6.6765,18.6282 -10.4294,27.7919 -3.5656,8.1021 -6.984,16.2784 -10.7099,24.3103 -4.5751,8.5259 -8.8323,17.2225 -12.8546,26.0222 -2.8545,6.4298 -5.14,12.8946 -8.5221,19.0617 -2.8421,4.9351 -6.6794,9.2123 -10.1279,13.7635 -6.1786,7.9822 -13.2748,15.2065 -20.1424,22.6023 -3.7878,4.9628 -8.9555,8.5896 -13.8547,12.3687 -5.2817,3.0956 -10.561,6.4552 -15.9574,9.5033 -10.2323,5.2511 -21.214,8.8552 -31.9265,13.0165 -7.6553,2.0178 -15.0418,6.7814 -22.9329,7.9881 -3.1482,0.6429 -6.2854,1.6977 -9.491,2.0555 1.1089,1.2555 -5.8471,-0.5931 -4.957,0.826 12.9579,20.6607 31.7309,48.7257 0.9782,-0.106 -10.1465,1.1866 21.6111,34.6798 16.1872,26.0231 -15.7567,-25.148 -30.6293,-45.19 1.8364,1.5685 2.885,0.2689 7.3982,0.4816 8.6511,3.8645 0.1436,0.3878 -0.2343,0.9744 0.085,1.2376 0.01,0.01 4.7271,2.1958 5.3517,2.4858 7.1917,0.5187 13.5799,4.1423 20.1255,6.8573 0.4999,0.5718 0.869,1.2924 1.4997,1.7155 2.0103,1.3485 4.3548,2.1269 6.4388,3.3583 0.8305,0.4907 3.2929,2.0106 2.4826,1.4872 -12.8244,-8.2838 -19.2591,-12.0058 -12.3956,-8.0022 3.4875,3.5979 8.4918,5.9161 12.4767,9.0904 4.9186,3.1954 8.6791,7.1494 12.4065,11.6972 4.5108,4.2659 7.8737,9.4969 10.9059,14.8685 4.7497,6.0062 8.5677,12.4477 11.7477,19.4071 2.2047,6.3697 4.2741,12.8169 6.3256,19.248 2.2071,7.6846 3.907,15.3733 4.5713,23.3288 1.069,7.5898 3.2359,14.952 4.3392,22.5313 0.6691,9.3536 1.2235,18.7391 1.5539,28.1151 0.7781,7.9431 1.3618,15.8561 1.3373,23.841 0.178,10.1919 -0.6696,20.4062 -1.5738,30.5549 -0.7252,8.1598 -1.5522,16.2892 -2.8266,24.385 -1.5405,5.9258 -2.0461,12.5701 -2.9576,18.2845 -1.9958,8.4137 -4.3208,16.7127 -6.7778,25.0075 -1.7048,6.1539 -4.1623,12.0473 -6.3292,18.0457 -2.8135,7.7416 -6.2602,15.2171 -10.3677,22.3494 -5.9692,10.2729 -10.9583,21.0694 -16.806,31.4106 -5.2004,9.0268 -11.5016,17.3299 -17.7038,25.6744 -4.4774,7.4547 -10.179,13.7596 -16.1469,20.0071 -7.0211,6.5594 -12.4156,14.5131 -19.7173,20.7803 -7.7373,7.0045 -15.125,14.379 -22.4769,21.7876 -7.3555,7.5844 -16.2336,13.5721 -22.7387,21.9714 -4.6288,3.284 -8.3269,7.7633 -13.1716,10.942 -6.128,6.9006 -13.9594,11.8451 -20.6613,18.0665 -4.3961,0.8227 -6.4895,6.9608 -10.1507,8.4286 -1.0261,0.3612 -2.5064,1.6141 -3.9498,3.4922 6.0444,-9.511 7.5728,-6.5481 -1.9939,-9.8006 0,0 7.5344,29.2824 7.5344,29.2824 v 0 c 11.0174,3.728 4.5412,3.1193 19.3723,-2.3476 -2.2789,3.0036 1.6589,-0.8817 2.2559,-1.2586 3.041,-3.1802 6.6974,-5.7691 10.2691,-8.5714 6.8361,-5.7234 13.6984,-11.3954 20.1942,-17.513 5.637,-4.7339 11.1332,-9.7479 16.1833,-15.0887 6.6355,-7.2629 14.8311,-12.9029 21.5221,-20.1146 7.007,-7.0654 14.2393,-13.9001 21.593,-20.6033 7.2603,-6.8722 13.2814,-14.8404 20.4723,-21.7841 6.2947,-6.6241 12.084,-13.5812 17.0217,-21.2902 6.4645,-8.6927 12.9562,-17.3984 18.3896,-26.7904 5.834,-10.3023 10.8446,-21.0374 16.7421,-31.3019 4.5409,-7.893 8.4143,-16.1309 11.6046,-24.6676 2.1866,-6.3311 4.8596,-12.4716 6.7268,-18.9106 2.5874,-8.3215 5.5213,-16.6169 6.8819,-25.2465 2.5976,-6.994 1.9417,-14.5469 4.1705,-21.6318 1.2809,-8.0708 2.4117,-16.1498 2.8059,-24.3157 1.111,-10.6073 1.7094,-21.3217 1.9565,-31.953 -0.3279,-8.1227 0.4077,-16.3053 -1.2126,-24.3634 -0.6053,-9.7095 -1.137,-19.3746 -1.3442,-29.1051 -1.0854,-7.6966 -2.2744,-15.3037 -4.2828,-22.8302 -2.3041,-7.8835 -0.627,-16.9694 -4.3461,-24.739 -1.5008,-7.6348 -4.5175,-14.8096 -6.0642,-22.4467 -2.8791,-8.3331 -6.3515,-16.8369 -11.9363,-23.7461 -4.5382,-4.8245 -6.5206,-11.5557 -11.1188,-16.3746 -4.5982,-4.558 -7.4193,-10.8932 -12.9566,-14.2857 -3.2498,-2.6995 -6.1261,-5.9062 -9.9305,-7.8976 -0.5164,-0.2703 -1.2126,-0.059 -1.7105,-0.3624 -0.4483,-0.2728 -0.6328,-0.8374 -0.9492,-1.256 -9.1468,-8.5753 -21.4877,-15.1273 -33.0649,-20.2188 -5.9006,-2.515 -12.3755,-4.099 -17.8498,-7.219 -1.2018,-0.8206 -2.1749,-1.9839 -3.4674,-2.6525 -5.4521,-2.8204 -12.4939,-2.184 -18.3488,-2.9465 10.5036,38.5991 11.3727,32.808 -5.4978,0.2072 -1.5319,-2.9602 3.5366,29.2193 13.7915,26.4953 -4.5033,-8.8549 -8.7955,-17.8203 -13.5097,-26.5647 -0.1182,-0.2193 -0.8351,-0.081 -0.7328,0.1464 4.0636,9.021 8.3901,17.9245 12.851,26.7558 0.2396,0.4744 5.2709,-1.7085 5.449,-1.1025 3.6008,-0.9417 7.2557,-1.661 10.7905,-2.8461 7.9125,-2.9563 16.0516,-5.2885 23.8352,-8.592 11.4009,-4.4758 23.1371,-8.2774 33.7931,-14.4248 5.878,-3.4928 11.8368,-6.9229 17.4527,-10.8093 5.6095,-4.3797 11.3886,-8.738 15.8138,-14.3741 7.1556,-7.7171 14.5465,-15.2649 20.9867,-23.5931 3.9647,-5.2029 8.2417,-10.1948 11.6308,-15.7702 3.6661,-6.6025 6.6651,-13.1646 9.2836,-20.2283 4.0445,-8.9834 8.4582,-17.8092 13.1329,-26.4799 3.8875,-7.9991 7.0846,-16.3357 10.7774,-24.4242 3.9037,-9.6159 7.8574,-19.1913 11.1302,-29.0466 2.4692,-8.2351 5.2987,-16.3546 7.9823,-24.5217 3.499,-11.2257 5.1344,-22.822 7.6782,-34.2647 2.2278,-10.7415 5.3509,-21.2909 7.7928,-31.9855 4.1701,-12.9059 7.9888,-25.9123 11.2014,-39.0923 3.2719,-10.0543 6.8898,-19.9065 11.8337,-29.3023 5.8258,-13.2975 11.6069,-26.6079 17.6747,-39.7991 4.0765,-12.3361 11.504,-23.5479 16.8491,-35.3406 6.3409,-11.8896 13.4537,-23.373 19.0903,-35.6294 3.787,-7.8888 8.2734,-15.4064 11.6572,-23.5034 5.3686,-10.5155 9.7823,-21.4779 15.9833,-31.5684 5.7293,-11.5123 11.681,-22.9062 17.0068,-34.6242 5.244,-10.3752 9.836,-21.0479 14.9929,-31.4727 3.8739,-7.2237 7.6504,-14.4937 11.035,-21.9606 3.8037,-7.3151 6.7135,-14.9224 10.0595,-22.4241 4.3378,-8.6342 9.189,-17.08526 12.0943,-26.35272 2.9838,-7.12186 5.9747,-14.21556 8.9795,-21.3306 2.6383,-6.05454 4.7873,-12.47608 8.6974,-17.78123 3.2788,-8.28086 6.7856,-16.387 10.3361,-24.54784 3.4685,-9.52497 7.7931,-18.72688 10.0026,-28.66204 4.6147,-11.44535 7.7844,-23.41924 8.3889,-35.80166 -0.3576,-8.5992 -1.3161,-17.08093 -3.4541,-25.43087 -5.7611,-15.4631 -13.9184,-28.48923 -25.018,-40.97897 -4.7451,-3.96528 -8.5922,-9.02744 -14.3667,-11.7156 -5.4513,-3.01223 -10.9717,-6.05938 -16.4873,-8.83451 -7.2391,-1.51628 -14.2858,-3.75594 -21.498,-5.38071 -9.8284,-2.03742 -19.7497,-3.67715 -29.8267,-3.61204 -7.7894,-0.0346 -15.5695,-0.41289 -23.358,-0.41084 -9.7161,0.26741 -19.3393,1.12713 -28.9773,2.34051 -10.2332,1.63358 -20.2184,4.46856 -30.2518,7.0126 -10.8486,2.91676 -21.6094,6.30711 -31.7944,11.09843 -9.5478,3.94897 -18.9381,8.25153 -28.4579,12.26685 -10.3386,4.6275 -20.5756,9.4808 -30.7921,14.3707 -13.8329,6.66213 -27.7563,13.13544 -41.41,20.15936 -10.644,5.57312 -21.2255,11.26363 -31.7911,16.98311 -11.2004,6.0897 -22.8745,11.18904 -34.0918,17.23692 -19.9461,11.01454 -39.4864,22.61802 -57.5196,36.65603 -13.0401,9.67656 -25.4775,20.11607 -38.5299,29.77169 -12.2041,8.8388 -24.5981,17.44879 -36.4376,26.74629 -14.0396,11.51879 -27.7009,23.5092 -41.009,35.86564 -11.5313,10.6379 -22.4739,21.8882 -34.2653,32.2368 -13.0624,10.5875 -26.3961,20.8393 -38.8667,32.1395 -9.428,8.5434 -18.8548,17.1254 -29.3601,24.3516 -16.5922,14.2906 -30.6752,31.2628 -45.8542,46.9869 -12.6425,14.5457 -26.3881,28.0674 -38.7588,42.8581 -12.7118,15.4119 -24.6518,31.4791 -38.145,46.2177 -8.2562,8.9191 -16.0312,18.2564 -24.1043,27.34 -6.0215,7.1434 -11.9452,14.348 -17.3748,21.958 -11.2805,14.393 -22.9646,28.4983 -33.5613,43.4065 -5.9215,9.0769 -11.7131,18.2273 -18.4677,26.7269 -9.4107,12.6057 -18.6059,25.3817 -27.6612,38.2431 -7.6724,10.3819 -14.5744,21.3924 -21.5817,32.2114 -0.9359,1.9397 -1.3493,4.9293 -2.126,6.4825 -5.83,11.658 -16.005,20.8039 -23.3248,31.3816 z" />
      <path
         style="fill:#ffcc00"
         id="path1-2"
         d="m 1900.3083,1463.9637 c -5.3626,-6.9211 -11.1307,-13.5235 -16.315,-20.5836 -2.9956,-4.0797 -5.7915,-8.319 -8.1453,-12.8043 -1.3299,-2.5342 -2.006,-5.3952 -3.5135,-7.8285 -6.1395,-9.9098 -12.592,-19.6233 -19.3166,-29.1498 -9.0678,-12.846 -17.9165,-25.8674 -27.638,-38.2263 -5.3769,-6.8356 -10.2796,-14.0274 -15.0556,-21.2908 -1.3728,-2.0877 -2.6606,-4.2327 -4.0982,-6.2763 -7.0837,-10.0703 -14.7232,-19.7322 -22.3883,-29.3619 -3.4132,-4.288 -6.9989,-8.4457 -10.2127,-12.8851 -5.3554,-7.3977 -10.9063,-14.6714 -16.9676,-21.5 -8.0021,-9.0151 -15.751,-18.2535 -23.907,-27.1329 -7.7913,-8.4824 -15.0709,-17.4158 -22.2602,-26.4087 -5.3276,-6.6642 -10.5498,-13.4151 -16.028,-19.9565 -7.6533,-9.1387 -15.8289,-17.8194 -23.9423,-26.5463 -4.8934,-5.2633 -9.4659,-10.8252 -14.4925,-15.9622 -10.7308,-10.9664 -20.646,-22.7019 -31.4859,-33.5641 -4.0341,-4.0424 -7.8114,-8.4709 -12.5555,-11.6523 -5.6007,-3.7558 -10.8693,-7.9819 -15.9802,-12.3746 -6.0158,-5.1703 -11.7691,-10.636 -17.7386,-15.8585 -9.8602,-8.6263 -20.1906,-16.69 -30.3955,-24.8992 -1.1954,-0.9616 -2.423,-1.8851 -3.5804,-2.8922 -8.4136,-7.3213 -16.3878,-15.1247 -24.4094,-22.8676 -4.8755,-4.7059 -9.8213,-9.3386 -14.8172,-13.9165 -11.624,-10.65144 -23.2656,-21.32403 -35.6971,-31.02268 -11.3538,-8.8579 -23.2116,-17.03859 -34.8438,-25.52062 -3.1882,-2.32479 -6.3221,-4.72291 -9.4428,-7.13721 -10.0294,-7.75936 -20.082,-15.4866 -30.0392,-23.34172 -8.6808,-6.84815 -17.8472,-13.06028 -27.2456,-18.8767 -9.3038,-5.75787 -18.7032,-11.38304 -28.4105,-16.42708 -10.8053,-5.61457 -21.9258,-10.60771 -32.6245,-16.42988 -4.8905,-2.6614 -9.7979,-5.29171 -14.7056,-7.92121 -6.0577,-3.24559 -12.0772,-6.56678 -18.2195,-9.64917 -15.5218,-7.78928 -31.2257,-15.20711 -46.9125,-22.65563 -7.9945,-3.79596 -15.9317,-7.73106 -24.0997,-11.13944 -9.4673,-3.95057 -19.0369,-7.68696 -28.2705,-12.15792 -5.2645,-2.54911 -10.764,-4.58473 -16.3455,-6.32051 -4.416,-1.37333 -8.8124,-2.91852 -13.3722,-3.68564 -3.2464,-0.54617 -6.4179,-1.44937 -9.5713,-2.37971 -3.4469,-1.01694 -6.8893,-2.07488 -10.4163,-2.78478 -2.5316,-0.50956 -5.1121,-0.81361 -7.6971,-0.78208 -0.3139,-0.0205 -0.6193,-0.0974 -0.9288,-0.14919 -5.3656,-0.89793 -10.8001,-1.30689 -16.2321,-1.51968 -3.5572,-0.13934 -7.1168,-0.19751 -10.676,-0.25965 -7.3811,0.5627 -14.7898,0.61399 -22.1876,0.52182 -0.5234,-0.007 -1.0469,0.004 -1.5697,0.0387 -5.2339,0.35044 -10.4211,1.19982 -15.5553,2.25373 -3.3031,0.67803 -6.7697,0.88608 -9.871,2.20914 -1.0567,0.45079 -2.1729,0.73407 -3.2789,1.03252 -3.5033,0.94534 -7.0624,1.70228 -10.5009,2.87177 -0.8183,0.27831 -1.6407,0.56518 -2.3969,0.9879 -0.2585,0.14451 -0.5228,0.29593 -0.7206,0.51886 -0.077,0.0871 -0.1787,0.17718 -0.1888,0.29414 -0.01,0.0684 -0.03,0.14336 -0.097,0.1798 -0.5037,0.27455 -1.0016,0.55935 -1.5041,0.83594 -3.1029,1.70779 -6.2656,3.31989 -9.2336,5.26011 -1.2645,0.82661 -2.9149,1.36411 -3.6484,2.68544 -0.6385,1.15021 -1.4854,2.1689 -2.3877,3.12034 -1.5167,1.59929 -3.2122,3.02547 -4.6412,4.70838 -0.7455,0.87807 -1.4094,1.83865 -1.8609,2.90266 -0.0431,0.10161 -0.18702,0.39724 -0.1227,0.30754 2.7539,-3.84056 5.4038,-7.76313 8.3723,-11.44208 0.2328,-0.2886 0.4153,-0.64359 0.7312,-0.83821 0.046,-0.0285 0.082,-0.10278 0.1382,-0.0884 0.083,0.0211 0.034,0.124 0.013,0.17762 -0.2501,0.62271 -0.5923,1.20178 -0.9218,1.78427 -1.3353,2.36045 -2.7424,4.6791 -4.1344,7.00625 -1.8923,3.16357 -3.82048,6.30954 -5.54041,9.57119 -0.74927,1.4209 -1.4321,2.8788 -1.99313,4.38536 -1.06103,2.84921 -1.75676,5.82159 -2.25984,8.81603 -0.40905,2.4348 -0.76703,4.88233 -0.93837,7.34486 -0.0765,1.09894 -0.10253,2.20094 -0.0993,3.30224 0.0127,4.378 0.57727,8.74162 1.49528,13.01821 0.93612,4.36096 2.3356,8.60271 3.73863,12.83371 0.28989,0.87421 0.55314,1.75685 0.83134,2.63482 3.23233,10.20094 6.71793,20.33153 10.80133,30.22468 2.798,6.77882 5.1389,13.78534 8.6305,20.2357 0.9854,1.8204 1.8836,3.68583 2.7943,5.54414 2.9718,6.06438 5.8208,12.18999 8.476,18.40037 2.1427,5.01157 4.5475,9.92448 6.3414,15.07119 2.0677,5.93211 4.6333,11.67696 7.3777,17.3234 1.5495,3.18797 3.187,6.33212 4.7714,9.50271 3.4291,6.86187 5.9893,14.11287 9.3678,21.00037 0.5012,1.0218 0.9848,2.052 1.4786,3.0774 3.2121,6.6699 6.6023,13.2518 10.0002,19.8291 4.8605,9.4085 9.0167,19.1568 13.6879,28.6576 0.4637,0.9433 0.9472,1.8769 1.4042,2.8236 1.166,2.4153 2.3299,4.8317 3.4945,7.2477 4.3051,8.9305 8.0992,18.1431 13.1267,26.6883 3.7415,6.3595 7.0167,12.9776 10.2163,19.6217 1.9212,3.9893 3.9172,7.943 5.7775,11.9612 3.6753,7.9386 8.0169,15.5552 11.6601,23.5075 3.3455,7.3024 7.1979,14.3572 11.1194,21.3623 2.6331,4.7038 5.4089,9.3316 7.87,14.1279 5.2422,10.2164 10.5954,20.384 15.3528,30.8394 1.018,2.2372 1.9865,4.4964 2.9622,6.7523 5.6839,13.1427 11.1529,26.3894 17.3835,39.2817 3.6029,7.455 7.0496,14.9965 9.9507,22.7559 0.9964,2.6649 2.0286,5.3248 2.7786,8.0694 3.5425,12.9627 7.2382,25.8811 11.0262,38.7777 3.401,11.579 6.2685,23.306 9.0035,35.0569 2.3802,10.2264 3.9806,20.6249 6.6344,30.7893 0.1225,0.469 0.2261,0.9437 0.3742,1.4052 2.599,8.1004 5.1219,16.2264 7.857,24.2819 3.1818,9.3711 6.4432,18.7341 10.4294,27.7919 3.5667,8.1048 6.5279,16.504 10.7099,24.3103 4.705,8.7827 9.2113,17.6814 13.2019,26.8105 2.1972,5.0263 4.1223,10.1732 6.5369,15.1028 0.844,1.7231 1.7395,3.4242 2.7785,5.04 1.8836,2.9291 4.0658,5.6488 6.2323,8.3701 0.9857,1.238 1.9517,2.4914 2.9232,3.7407 4.1352,5.3182 8.6748,10.3042 13.2705,15.2242 2.232,2.3895 4.7197,4.5622 6.7037,7.1614 1.6811,2.2023 3.6556,4.1645 5.7464,5.9762 2.6026,2.2552 5.1395,4.6518 8.1083,6.3925 5.3408,3.1314 10.4482,6.6765 15.9574,9.5033 5.4631,2.8031 11.1492,5.1416 16.8783,7.3391 5.0057,1.92 9.8652,4.3061 15.0482,5.6774 2.7265,0.7213 5.3543,1.7619 7.9521,2.8491 3.1734,1.328 6.3174,2.7436 9.5911,3.8133 1.76,0.5751 3.5744,0.9543 5.3897,1.3257 2.7948,0.5718 5.5223,1.4484 8.3426,1.8989 0.3816,0.061 1.4183,-0.1199 1.1484,0.1566 -0.069,0.07 -0.1606,0.1749 -0.115,0.2676 0.058,0.1174 0.1983,0.1496 0.3181,0.1665 0.5138,0.072 1.0326,0.015 1.546,-0.026 0.903,-0.072 1.811,-0.221 2.7157,-0.1277 0.1717,0.018 0.3621,0.037 0.4922,0.1544 0.1077,0.097 0.076,0.2614 0.01,0.3802 -0.045,0.078 -0.096,0.1522 -0.1444,0.2285 -5.2099,8.2713 -10.4257,16.5428 -15.934,24.619 -0.4459,0.6538 -0.7955,1.3954 -1.3727,1.9371 -0.054,0.051 -0.079,0.1307 -0.1486,0.1656 -0.077,-0.042 0,-0.1247 0.025,-0.1756 0.105,-0.2277 0.2332,-0.4432 0.3585,-0.6601 1.8933,-3.2758 3.901,-6.4833 5.8942,-9.6986 3.4211,-5.5188 3.8783,-17.1844 10.3364,-16.5108 0.4798,0.05 0.967,0.1945 1.3433,0.5047 0.3865,0.3187 0.5956,0.8092 0.6502,1.302 0.063,0.5695 -0.027,1.1433 -0.1652,1.6955 -0.2621,1.0504 -0.7052,2.0449 -1.1925,3.0075 -0.98,1.9358 -2.1717,3.7552 -3.4214,5.5252 -2.257,3.1969 -4.7352,6.2335 -7.3402,9.1515 -1.5453,1.731 -3.1186,3.4442 -4.8397,5.002 -0.431,0.39 -0.8615,0.7883 -1.3552,1.0968 -0.1168,0.073 -0.2379,0.1648 -0.3764,0.1683 -0.082,0 -0.1223,-0.091 -0.1089,-0.1717 0.051,-0.3115 0.2186,-0.5854 0.3777,-0.8519 0.4534,-0.7596 0.93,-1.5051 1.4026,-2.2529 3.1998,-5.0635 6.4511,-10.0946 9.759,-15.0882 2.075,-3.1324 4.1302,-6.2799 6.3126,-9.3385 0.069,-0.097 0.2419,-0.4025 0.2077,-0.2889 -0.038,0.1247 -0.124,0.2238 -0.1945,0.3309 -0.9529,1.4475 -1.9267,2.8811 -2.9004,4.3145 -3.6913,5.4337 -7.4234,10.8395 -11.1612,16.2413 -1.6718,2.4158 -2.0951,6.9793 -5.0211,7.2435 -1.4316,0.1293 -2.8728,0.2406 -4.2735,0.5814 -0.8956,0.2179 -1.7757,0.5391 -2.554,1.0401 -0.7534,0.485 -1.3455,1.1979 -1.7317,2.0094 -0.095,0.199 -0.1431,0.4229 -0.1106,0.6461 0.032,0.22 0.1137,0.4501 0.042,0.6675 -0.033,0.1021 -0.127,0.1676 -0.2241,0.2129 -1.744,0.813 -3.3168,2.2925 -5.2361,2.4305 -2.4822,0.1785 -4.9243,0.7384 -7.2861,1.5098 -3.0487,0.9956 -5.974,2.3213 -8.8974,3.6299 -1.3082,0.5856 -2.9995,0.6377 -3.942,1.7176 -0.4143,0.4747 -0.7163,1.0462 -1.1893,1.4674 -0.409,0.3643 -0.8925,0.6279 -1.367,0.894 -1.8361,1.0295 -3.8219,1.7672 -5.6268,2.8561 -0.7916,0.4776 -1.5767,0.9658 -2.3723,1.4366 0.2388,-0.1688 0.4886,-0.3211 0.7342,-0.4799 4.8142,-3.1133 9.6712,-6.1599 14.5338,-9.1969 -0.2359,0.1126 -0.457,0.2528 -0.6828,0.3838 -0.6859,0.3978 -1.5028,0.6289 -2.0553,1.1977 -1.3475,1.3873 -2.8924,2.5646 -4.4832,3.6574 -2.5015,1.7184 -5.2042,3.1568 -7.5506,5.0871 -0.575,0.473 -1.2169,0.8527 -1.8233,1.2825 -2.853,2.0217 -5.4207,4.4214 -7.7824,6.9945 -1.1297,1.2309 -2.0753,2.6305 -3.275,3.7928 -0.3468,0.3359 -0.6932,0.6722 -1.0313,1.0169 -2.4262,2.4738 -4.5278,5.2477 -6.4204,8.1452 -1.2091,1.8512 -2.0505,3.9467 -3.4229,5.6797 -4.474,5.6495 -8.2126,11.8637 -11.2736,18.3834 -0.1598,0.3404 -0.3511,0.6683 -0.4741,1.0237 -2.209,6.3825 -4.4589,12.7575 -6.3256,19.248 -1.8269,6.3522 -3.3272,12.8136 -4.1559,19.3767 -0.166,1.3143 -0.2307,2.6403 -0.4154,3.9521 -0.6651,4.7231 -1.7585,9.3699 -2.7542,14.0304 -0.6023,2.819 -1.3793,5.6248 -1.585,8.5009 -0.6697,9.3624 -0.6374,18.7732 -1.5539,28.1151 -0.7615,7.7618 -1.2872,15.552 -1.338,23.355 -0.012,1.7891 -0.032,3.5782 -0.01,5.3674 0.1006,8.2391 0.7707,16.457 1.4941,24.6607 0.7473,8.4741 0.9989,17.0609 2.9105,25.3533 0.101,0.438 0.2155,0.8727 0.3173,1.3106 0.8497,3.6539 1.3393,7.3776 1.8223,11.0937 0.257,1.9773 0.3643,3.9844 0.8245,5.9247 1.9936,8.4052 4.4696,16.6846 6.7778,25.0075 1.2564,4.5301 2.907,8.937 4.5791,13.3263 0.9988,2.6218 1.9241,5.2713 2.9422,7.8858 2.692,6.9129 5.9638,13.5927 9.6618,20.0245 5.9005,10.2626 10.7669,21.0863 16.7459,31.3029 3.4323,5.865 7.3272,11.4431 11.3372,16.924 1.9639,2.6842 4.2287,5.165 5.9405,8.0166 2.4825,4.1354 5.4005,7.9948 8.5283,11.6611 2.4453,2.8664 4.866,5.7743 7.6186,8.346 3.0627,2.8614 5.8376,6.0095 8.5891,9.1658 2.8187,3.2335 5.641,6.4739 8.7371,9.4486 1.2329,1.1845 2.5358,2.2925 3.7967,3.4468 7.5726,6.9327 14.8162,14.2123 22.0507,21.4938 0.4848,0.488 0.9781,0.9675 1.476,1.4421 4.7936,4.5694 10.0112,8.6739 14.7206,13.334 1.9761,1.9553 3.2949,4.5979 5.5627,6.2082 2.1135,1.5007 4.035,3.2477 5.9429,4.9965 1.9722,1.8079 3.9626,3.605 6.1242,5.1882 0.3791,0.2776 0.825,0.4738 1.1537,0.8095 0.1038,0.106 0.1959,0.2221 0.2956,0.3321 2.4918,2.7485 5.2763,5.2133 8.1355,7.5707 3.8576,3.1805 7.7718,6.2895 11.5681,9.5485 0.2153,0.1849 0.3557,0.5137 0.6351,0.5671 0.9119,0.1744 1.7624,0.5965 2.5063,1.1451 0.9184,0.6775 1.7014,1.5165 2.4444,2.3775 0.9997,1.1585 1.9236,2.3884 3.0361,3.4446 0.5777,0.5484 1.2042,1.0785 1.9479,1.3741 0.4262,0.1694 0.8401,0.3734 1.218,0.6373 0.7897,0.5515 1.4815,1.2308 2.1154,1.9523 0.2796,0.3183 1.0323,1.3401 0.8074,0.9812 -1.2883,-2.056 -2.8015,-3.9573 -4.2123,-5.9288 -0.2396,-0.3349 -0.5015,-0.6721 -0.6147,-1.0715 -0.051,-0.1806 -0.029,-0.3902 0.096,-0.5389 0.1657,-0.1969 0.4089,-0.3014 0.6423,-0.3931 0.4804,-0.1887 0.9786,-0.3263 1.4749,-0.4657 0.9657,-0.2714 1.9314,-0.5432 2.89,-0.8395 0.5761,-0.1781 1.8709,-1.1425 1.7206,-0.5585 -2.5115,9.7608 2.0394,26.1325 -7.5344,29.2824 -2.0281,0.6673 -3.9941,1.5203 -6.0447,2.1157 -0.5276,0.1531 -1.0751,0.2736 -1.6276,0.2426 -0.6018,-0.034 -1.1756,-0.2433 -1.7252,-0.4777 -0.7822,-0.3335 -1.5453,-0.7093 -2.3164,-1.0673 -2.1593,-1.0028 -4.3593,-1.9167 -6.5856,-2.7601 -0.357,-0.1352 -0.7146,-0.2688 -1.0728,-0.4008 0.243,0.3293 0.4357,0.6926 0.6863,1.0184 0.053,0.068 -0.054,0.1375 -0.1201,0.087 -0.13,-0.1 -0.2672,-0.189 -0.3964,-0.2898 -0.336,-0.2623 -0.6541,-0.5464 -0.973,-0.8288 -0.4814,-0.4263 -0.9862,-0.8259 -1.4593,-1.2616 -0.257,-0.2367 -0.49,-0.497 -0.7397,-0.7415 -0.7293,-0.7142 -1.4839,-1.4023 -2.2571,-2.0687 -2.1448,-1.8483 -4.4272,-3.5264 -6.6567,-5.269 -0.5014,-0.392 -0.9925,-0.7969 -1.4808,-1.2051 -5.7015,-4.7662 -11.4105,-9.5288 -16.902,-14.5378 -0.8217,-0.7494 -1.6044,-1.5424 -2.4496,-2.2652 -0.9628,-0.8234 -1.9315,-1.6398 -2.8892,-2.4693 -4.6111,-3.9939 -9.1488,-8.0959 -13.2649,-12.6002 -2.8034,-3.0678 -5.8933,-5.8557 -9.0225,-8.5842 -3.6451,-3.1784 -7.351,-6.2975 -10.7672,-9.7264 -0.9592,-0.9626 -1.8831,-1.9593 -2.8435,-2.9211 -6.6593,-6.6692 -13.6378,-13.0077 -20.4819,-19.4862 -3.8425,-3.6372 -7.3553,-7.6 -10.8706,-11.5486 -3.1106,-3.494 -6.3762,-6.8435 -9.6017,-10.2355 -5.2956,-5.5691 -10.2878,-11.4463 -14.6706,-17.7654 -0.805,-1.1605 -1.5082,-2.3915 -2.3511,-3.5248 -4.9206,-6.6163 -9.8538,-13.2339 -14.3274,-20.1651 -1.4299,-2.2156 -2.8327,-4.4505 -4.1305,-6.746 -5.8891,-10.4161 -11.0016,-21.2487 -16.9371,-31.6406 -4.4245,-7.7463 -8.4295,-15.7761 -11.3413,-24.2082 -1.9998,-5.791 -4.4424,-11.4258 -6.2373,-17.2871 -0.4116,-1.3439 -0.8207,-2.6886 -1.2454,-4.0286 -1.7138,-5.408 -3.491,-10.804 -4.8161,-16.3243 -0.5174,-2.155 -0.5377,-4.4394 -1.3099,-6.5171 -0.8262,-2.2231 -1.3345,-4.5505 -1.7015,-6.8894 -0.5811,-3.7031 -0.8301,-7.4549 -1.5605,-11.1352 -0.2415,-1.2167 -0.7138,-2.3818 -0.9085,-3.6072 -1.2468,-7.8488 -2.3528,-15.7358 -2.7736,-23.6777 -0.011,-0.2127 -0.01,-0.4262 -0.032,-0.638 -1.1109,-10.6166 -2.3863,-21.2885 -1.9565,-31.953 0.2315,-5.7429 -0.067,-11.4974 0.308,-17.236 0.1561,-2.391 0.7554,-4.7348 0.9046,-7.1274 0.6046,-9.6934 -0.011,-19.4867 1.3442,-29.1051 0.9112,-6.4694 1.9305,-12.9311 3.3995,-19.3012 0.3643,-1.5795 0.818,-3.1369 1.1981,-4.7125 0.5708,-2.3664 0.8311,-4.7933 1.0264,-7.2155 0.2474,-3.0689 0.3914,-6.1521 0.8828,-9.1954 0.3525,-2.1831 0.9004,-4.3454 1.7751,-6.3809 0.1104,-0.2569 0.2931,-0.4893 0.347,-0.7637 0.737,-3.7485 1.8453,-7.4096 2.9644,-11.058 1.1249,-3.6671 2.4524,-7.3045 3.0404,-11.0988 0.054,-0.3459 0.1909,-0.67 0.3056,-0.9983 1.5481,-4.433 3.2494,-8.8231 5.3563,-13.024 1.724,-3.4374 3.7156,-6.757 6.1273,-9.7573 0.4038,-0.5023 0.8544,-0.9637 1.2613,-1.4639 1.3947,-1.7146 2.5495,-3.6066 3.649,-5.5192 1.3241,-2.3032 2.5824,-4.6519 4.1159,-6.8263 0.8335,-1.1817 1.7872,-2.2727 2.787,-3.3186 1.6508,-1.7271 3.0709,-3.6541 4.4964,-5.5662 1.3497,-1.8104 2.713,-3.6217 4.2954,-5.2383 1.1062,-1.1301 2.4587,-1.9721 3.6769,-2.9842 2.2893,-1.902 4.3747,-4.043 6.7488,-5.8437 1.0342,-0.7845 2.0653,-1.6283 3.2774,-2.0976 0.3178,-0.1231 0.6635,-0.1158 0.998,-0.1415 0.2878,-0.022 0.5838,-0.1109 0.7975,-0.3132 0.2776,-0.2627 0.4409,-0.6141 0.6406,-0.9339 0.062,-0.099 0.1347,-0.192 0.2214,-0.2728 3.6542,-3.4088 7.6824,-6.398 11.8869,-9.0911 5.5651,-3.5645 11.4409,-6.6195 17.4344,-9.3942 2.1542,-0.9973 4.3231,-1.9673 6.5461,-2.8036 3.6726,-1.3817 7.4261,-2.5544 11.0279,-4.1198 1.3373,-0.5813 2.6821,-1.1672 3.9186,-1.9412 0.1763,-0.1104 0.3408,-0.2386 0.5043,-0.3669 0.8319,-0.6525 1.5704,-1.4262 2.4676,-1.9927 0.7651,-0.4832 1.6041,-0.8349 2.4525,-1.1406 1.8099,-0.6523 3.7105,-1.0132 5.616,-1.2453 3.5459,-0.4319 7.889,1.3945 10.6756,-0.8408 0.064,-0.052 0.1098,0.021 0.083,0.099 -0.1061,0.313 -0.1787,0.6355 -0.2654,0.9542 -2.2049,8.1103 -4.6661,16.1482 -6.9454,24.2376 -0.1225,0.4345 -0.3944,0.865 -0.334,1.3125 0.01,0.061 -0.069,0.1981 0.022,0.1884 0.07,-0.01 0.093,-0.086 0.1232,-0.1385 0.3223,-0.5664 0.5906,-1.1608 0.8683,-1.7495 1.2308,-2.6092 2.4335,-5.2315 3.6745,-7.8359 2.6933,-5.6524 5.384,-11.311 8.3581,-16.821 0.041,-0.075 0.058,-0.1724 0.1273,-0.2227 0.064,-0.046 0.1203,0.03 0.1332,0.1045 0.067,0.3885 0.019,0.7831 -0.018,1.1715 -0.1774,1.8505 -0.535,3.6779 -0.9348,5.4912 -0.8019,3.6376 -1.8351,7.2343 -3.2624,10.6774 -0.7673,1.8509 -1.645,3.6677 -2.7761,5.3254 -0.6692,0.9809 -1.4281,1.9139 -2.3485,2.6696 -0.6441,0.5289 -1.3744,0.9705 -2.1788,1.2033 -0.7782,0.2251 -1.6172,0.2504 -2.4033,0.049 -0.058,0.025 -0.1543,-0.07 -0.081,-0.1083 0.073,-0.039 0.066,-0.1336 0.098,-0.1995 0.052,-0.1073 0.117,-0.2069 0.1723,-0.3128 0.3864,-0.7394 0.7548,-1.4879 1.1299,-2.2329 3.9942,-7.9338 5.9511,-17.3245 12.0874,-23.7488 0.1056,-0.1106 0.273,-0.1118 0.4145,-0.09 0.1159,0.018 0.2652,0.045 0.31,0.1594 0.033,0.085 -0.033,0.163 -0.066,0.2374 -4.043,8.9712 -6.0051,19.4725 -12.7825,26.6057 -0.079,0.083 -0.2035,0.072 -0.3075,0.06 -0.5645,-0.062 -1.1046,-0.2458 -1.6447,-0.4108 -0.9884,-0.3021 -1.9588,-0.6981 -2.9855,-0.84 -0.132,-0.018 -0.2784,-0.063 -0.399,-0 -0.062,0.03 -0.1212,0.1051 -0.1937,0.079 -0.2772,-0.099 -0.5664,-0.155 -0.8512,-0.2267 -3.1943,-0.8043 -6.4316,-1.4632 -9.5589,-2.5097 -0.7804,-0.2611 -1.5471,-0.5604 -2.3214,-0.8386 -4.5211,-1.6241 -9.095,-3.0959 -13.6227,-4.7011 -2.5801,-0.9147 -5.1435,-1.8785 -7.671,-2.9308 -0.5417,-0.2256 -1.0876,-0.4408 -1.6346,-0.6533 -7.232,-2.8085 -14.5606,-5.3791 -21.6705,-8.4932 -4.2102,-1.8441 -8.3274,-3.9068 -12.2833,-6.2521 -5.2492,-3.112 -10.5308,-6.1833 -15.5672,-9.635 -0.2928,-0.2007 -0.5838,-0.4043 -0.8666,-0.6191 -0.6425,-0.4878 -1.2727,-0.9912 -1.9085,-1.4877 -3.1523,-2.4616 -6.2864,-4.9611 -9.1609,-7.7477 -1.5978,-1.5488 -2.9733,-3.3055 -4.4871,-4.9378 -5.7242,-6.1724 -11.571,-12.238 -17.0084,-18.6696 -1.8992,-2.2464 -3.6934,-4.5784 -5.502,-6.8979 -2.8797,-3.6934 -5.8417,-7.3313 -8.4572,-11.2211 -0.5688,-0.846 -1.1535,-1.6843 -1.6499,-2.5747 -3.6304,-6.5125 -6.2869,-13.4981 -9.3216,-20.3072 -0.5743,-1.2886 -1.1644,-2.5701 -1.7586,-3.8497 -3.544,-7.6321 -7.6588,-14.983 -11.3363,-22.5513 -3.891,-8.0076 -7.4302,-16.1782 -10.7774,-24.4242 -3.639,-8.9651 -7.3548,-17.9089 -10.4643,-27.0753 -0.2976,-0.8775 -0.5993,-1.7537 -0.8675,-2.641 -2.4211,-8.006 -5.2919,-15.868 -7.7807,-23.852 -1.7998,-5.7737 -3.1154,-11.6838 -4.3102,-17.608 -1.1198,-5.5528 -2.2172,-11.1096 -3.368,-16.6567 -2.1933,-10.5724 -5.2473,-20.9391 -7.6716,-31.4572 -0.041,-0.1761 -0.066,-0.3564 -0.1212,-0.5283 -4.1687,-12.9004 -7.0071,-26.198 -11.2014,-39.0923 -2.3405,-7.1951 -4.8778,-14.3371 -7.9484,-21.2568 -1.2081,-2.7226 -2.6899,-5.3171 -3.8853,-8.0455 -5.825,-13.2957 -13.1177,-26.0165 -17.6747,-39.7991 -1.4742,-4.4588 -3.3816,-8.7611 -5.4543,-12.9706 -3.534,-7.1776 -7.751,-14.0198 -10.9323,-21.364 -0.5175,-1.1947 -1.1678,-2.3244 -1.7887,-3.4668 -4.918,-9.0485 -10.1827,-17.9096 -14.835,-27.1018 -1.098,-2.1696 -2.1114,-4.3805 -3.1718,-6.5685 -3.2654,-6.7378 -7.0205,-13.2306 -10.1237,-20.0482 -0.4451,-0.9779 -0.8022,-1.9965 -1.2908,-2.9534 -4.2502,-8.3248 -7.9072,-16.9424 -12.3273,-25.182 -1.1597,-2.1618 -2.5629,-4.19 -3.656,-6.3864 -5.7291,-11.5113 -11.205,-23.1454 -17.0068,-34.6242 -5.2429,-10.3731 -9.5001,-21.2311 -14.9929,-31.4727 -3.8723,-7.22 -7.2532,-14.6901 -11.035,-21.9606 -2.9795,-5.7279 -5.4374,-11.7037 -7.9745,-17.6351 -0.6847,-1.6008 -1.3033,-3.2332 -2.085,-4.789 -2.8893,-5.7506 -5.9935,-11.3977 -8.6135,-17.28008 -1.3184,-2.96003 -2.2291,-6.08247 -3.4808,-9.0726 -3.4093,-8.14441 -6.9069,-16.25193 -10.2805,-24.41119 -1.363,-3.29637 -2.68812,-6.61716 -4.35107,-9.77744 -0.8992,-1.70884 -2.33411,-3.12687 -3.0453,-4.92327 -3.26847,-8.25588 -7.29835,-16.20526 -10.3361,-24.54781 -2.46706,-6.77526 -5.36867,-13.38869 -7.63858,-20.23627 -0.91813,-2.76971 -1.27213,-5.71901 -2.36402,-8.42577 -2.70036,-6.69411 -4.91304,-13.59647 -6.4033,-20.66325 -1.05115,-4.98455 -2.19563,-10.04744 -1.9856,-15.13841 0.29045,-7.04016 0.99634,-14.0782 2.42617,-20.98344 0.30854,-1.49008 0.49917,-3.02055 1.02793,-4.44743 4.04583,-10.91792 9.67362,-21.23882 16.58691,-30.60775 2.64633,-3.58631 5.01211,-7.51246 8.43109,-10.37122 3.153,-2.63636 5.8942,-5.72579 9.08027,-8.3252 1.6307,-1.33046 3.437,-2.42567 5.3028,-3.40525 0.6215,-0.32631 1.2307,-0.67495 1.8454,-1.0139 3.9679,-2.18822 7.9426,-4.36541 11.9671,-6.44827 0.8836,-0.45734 1.6845,-1.1535 2.6584,-1.35749 7.2341,-1.5153 14.2631,-3.88022 21.498,-5.38071 6.4003,-1.3274 12.8462,-2.48545 19.3565,-3.11549 3.5093,-0.33961 7.0353,-0.4801 10.5615,-0.49697 7.7572,-0.0371 15.5119,-0.62331 23.2667,-0.41042 9.6921,0.26608 19.4054,0.81192 28.9773,2.34051 6.7611,1.07971 13.4237,2.68534 20.0522,4.38294 3.4013,0.87108 6.8089,1.71824 10.1996,2.62966 7.6926,2.06777 15.3325,4.37197 22.7655,7.24746 3.0521,1.18074 6.0046,2.60014 9.0289,3.85097 9.5462,3.94831 19.029,8.04724 28.4579,12.26685 16.0323,7.17479 31.8285,14.85964 47.6686,22.44479 8.2222,3.93727 16.4558,7.85825 24.5335,12.08527 11.2087,5.86548 22.3085,11.93595 33.4714,17.88767 10.6777,5.69307 21.8176,10.48275 32.4115,16.33236 12.2764,6.77866 24.4306,13.79954 36.1711,21.47634 7.3098,4.77961 14.3341,9.9746 21.3485,15.17969 13.036,9.6735 25.3817,20.25061 38.5299,29.77164 11.8194,8.55882 23.7802,16.92964 35.3193,25.86927 0.8792,0.68114 1.7398,1.38588 2.5976,2.09365 16.1096,13.29078 31.7671,27.13306 46.8724,41.55427 8.6857,8.29239 17.1954,16.77879 26.2161,24.71129 0.5805,0.5105 1.1772,1.0021 1.7786,1.4881 10.8642,8.7805 21.8935,17.3651 32.4445,26.5253 5.355,4.6491 10.5296,9.5006 15.8655,14.1716 5.6339,4.9319 11.4184,9.7073 17.5437,14.0208 0.432,0.3043 0.9007,0.5608 1.301,0.9056 6.9274,5.9668 13.4274,12.4103 19.7375,19.0208 8.8074,9.2268 17.7479,18.3389 26.1167,27.9661 11.7099,13.4707 24.3522,26.097 36.0104,39.6145 3.1508,3.6534 6.1737,7.4142 9.195,11.1746 8.5634,10.6581 16.9516,21.4648 25.9156,31.7936 2.3885,2.7522 4.8384,5.4502 7.2974,8.1395 7.6964,8.4171 15.2407,16.9731 22.5897,25.6935 5.7971,6.8789 11.5977,13.7767 16.7809,21.1341 0.6159,0.8744 1.2872,1.7077 1.9499,2.5467 0.4511,0.5712 0.899,1.1451 1.3501,1.7163 9.2804,11.7506 18.7593,23.3531 27.5931,35.4479 1.1142,1.5255 2.2722,3.0213 3.3126,4.5981 0.3379,0.5121 0.6705,1.0277 1.0051,1.542 4.8052,7.3857 9.5777,14.8056 14.8874,21.8439 0.8282,1.0977 1.7021,2.1605 2.5247,3.2624 9.4121,12.6077 18.3123,25.5889 27.6612,38.2431 6.171,8.3528 11.8329,17.0647 17.443,25.7991 1.3804,2.149 2.9951,4.1634 4.1487,6.4423 0.2241,0.4427 0.3878,0.9125 0.5435,1.3824 0.4926,1.4874 0.7621,3.0435 1.3291,4.5062 0.2484,0.6408 0.5856,1.2413 0.9087,1.8462 0.6918,1.2952 1.4374,2.5614 2.2237,3.8014 2.2987,3.625 4.9356,7.021 7.6569,10.3355 3.743,4.5589 7.6606,8.98 11.1736,13.7234 0.5466,0.738 2.299,1.6372 1.6053,2.239 -7.6128,6.6048 -15.2257,13.2097 -22.8385,19.8145 z"
         inkscape:original-d="m 1900.3083,1463.9637 c -10.1679,-13.1266 -22.1061,-25.4449 -27.9738,-41.2164 -6.1332,-9.8999 -12.5143,-19.7913 -19.3764,-29.2313 -9.0447,-12.8182 -18.2184,-25.5538 -27.5782,-38.1448 -6.9324,-8.813 -13.0484,-18.1794 -19.1538,-27.5671 -10.2342,-14.5501 -21.632,-28.2484 -32.601,-42.247 -5.3615,-7.4059 -11.0789,-14.5105 -16.9676,-21.5 -7.8912,-8.8885 -15.491,-18.0284 -23.5607,-26.7566 -13.7073,-14.8696 -25.7982,-31.1266 -38.6345,-46.7415 -12.277,-14.66 -25.868,-28.1083 -38.4348,-42.5085 -14.6844,-15.004 -27.9804,-31.6181 -44.0414,-45.2164 -10.65,-7.1427 -20.0579,-15.9216 -29.5348,-24.5097 -12.2385,-11.0886 -25.3492,-21.1159 -38.1599,-31.5148 -12.0498,-10.4835 -23.1619,-21.9652 -34.8985,-32.7946 -13.0017,-12.0463 -26.3004,-23.79468 -40.0252,-35.01218 -11.5191,-8.9872 -23.5483,-17.3473 -35.4006,-25.9226 -13.1897,-9.7505 -25.7499,-20.3033 -38.9252,-30.07695 -17.3583,-13.69222 -36.3829,-24.6531 -55.6561,-35.30378 -11.2924,-5.86587 -22.9001,-11.04522 -34.048,-17.20772 -10.4751,-5.64407 -20.9503,-11.28978 -31.5016,-16.79254 -13.4556,-6.76347 -27.0737,-13.19119 -40.6615,-19.68815 -10.0817,-4.77777 -20.1364,-9.61661 -30.3507,-14.10692 -9.4698,-3.95162 -18.7743,-8.26766 -28.2705,-12.15792 -9.4349,-4.56931 -19.5779,-7.46813 -29.7177,-10.00615 -9.1767,-1.53672 -18.288,-6.11162 -27.7149,-5.94052 -9.2081,-1.63819 -18.4761,-1.77149 -27.8067,-1.93457 -7.6539,0.58478 -15.3502,0.58671 -23.0298,0.51512 -8.875,0.51447 -17.5293,2.48699 -26.1538,4.50831 -2.9733,1.34896 -17.0918,3.87351 -17.1081,5.83771 -4.7063,2.69105 -10.1381,5.19048 -14.4607,8.82877 -2.2662,4.09893 -7.4119,6.777 -9.0125,11.03892 20.1043,-28.25713 1.8524,-0.31051 -1.60917,6.69668 -3.2198,6.04944 -4.2157,13.07346 -4.9123,19.80776 -0.6741,10.0168 1.7819,20.00493 5.13157,29.37807 2.9866,9.61216 6.2263,19.1049 9.8845,28.48649 3.1856,8.31954 7.0805,16.31348 10.3695,24.59729 1.0062,1.7787 6.1111,12.2678 8.3294,17.2483 3.2628,7.1852 6.1768,14.5155 9.2823,21.7674 3.069,8.8043 7.1956,17.112 11.4193,25.4009 3.8504,7.33548 6.445,15.19998 10.1805,22.58898 3.4883,7.3218 7.0945,14.5789 10.8812,21.7514 5.4966,10.4979 10.0387,21.453 15.3881,32.0183 5.5512,11.4986 11.0431,23.014 16.8399,34.3906 5.9979,10.1943 10.7676,20.9962 15.9938,31.5829 3.6794,7.9471 7.6173,15.7441 11.6601,23.5075 5.5963,12.2163 12.5902,23.6969 18.9894,35.4902 6.3304,12.3371 12.853,24.652 18.2481,37.4371 5.704,13.1956 11.7103,26.2548 17.4504,39.4363 4.854,10.0459 9.391,20.1717 12.7293,30.8253 3.5439,12.9669 6.9619,25.9577 11.0262,38.7777 3.2663,11.1149 5.9928,22.3967 8.675,33.6682 2.6806,11.1491 4.3293,22.5109 7.3371,33.5832 2.599,8.1004 5.2584,16.1807 7.857,24.2819 3.1843,9.378 6.6765,18.6282 10.4294,27.7919 3.5656,8.1021 6.984,16.2784 10.7099,24.3103 4.5751,8.5259 8.8323,17.2225 12.8546,26.0222 2.8545,6.4298 5.14,12.8946 8.5221,19.0617 2.8421,4.9351 6.6794,9.2123 10.1279,13.7635 6.1786,7.9822 13.2748,15.2065 20.1424,22.6023 3.7878,4.9628 8.9555,8.5896 13.8547,12.3687 5.2817,3.0956 10.561,6.4552 15.9574,9.5033 10.2323,5.2511 21.214,8.8552 31.9265,13.0165 7.6553,2.0178 15.0418,6.7814 22.9329,7.9881 3.1482,0.6429 6.2854,1.6977 9.491,2.0555 -1.1089,1.2555 5.8471,-0.5931 4.957,0.826 -12.9579,20.6607 -31.7309,48.7257 -0.9782,-0.106 10.1465,1.1866 -21.6111,34.6798 -16.1872,26.0231 15.7567,-25.148 30.6293,-45.19 -1.8364,1.5685 -2.885,0.2689 -7.3982,0.4816 -8.6511,3.8645 -0.1436,0.3878 0.2343,0.9744 -0.085,1.2376 -0.01,0.01 -4.7271,2.1958 -5.3517,2.4858 -7.1917,0.5187 -13.5799,4.1423 -20.1255,6.8573 -0.4999,0.5718 -0.869,1.2924 -1.4997,1.7155 -2.0103,1.3485 -4.3548,2.1269 -6.4388,3.3583 -0.8305,0.4907 -3.2929,2.0106 -2.4826,1.4872 12.8244,-8.2838 19.2591,-12.0058 12.3956,-8.0022 -3.4875,3.5979 -8.4918,5.9161 -12.4767,9.0904 -4.9186,3.1954 -8.6791,7.1494 -12.4065,11.6972 -4.5108,4.2659 -7.8737,9.4969 -10.9059,14.8685 -4.7497,6.0062 -8.5677,12.4477 -11.7477,19.4071 -2.2047,6.3697 -4.2741,12.8169 -6.3256,19.248 -2.2071,7.6846 -3.907,15.3733 -4.5713,23.3288 -1.069,7.5898 -3.2359,14.952 -4.3392,22.5313 -0.6691,9.3536 -1.2235,18.7391 -1.5539,28.1151 -0.7781,7.9431 -1.3618,15.8561 -1.3373,23.841 -0.178,10.1919 0.6696,20.4062 1.5738,30.5549 0.7252,8.1598 1.5522,16.2892 2.8266,24.385 1.5405,5.9258 2.0461,12.5701 2.9576,18.2845 1.9958,8.4137 4.3208,16.7127 6.7778,25.0075 1.7048,6.1539 4.1623,12.0473 6.3292,18.0457 2.8135,7.7416 6.2602,15.2171 10.3677,22.3494 5.9692,10.2729 10.9583,21.0694 16.806,31.4106 5.2004,9.0268 11.5016,17.3299 17.7038,25.6744 4.4774,7.4547 10.179,13.7596 16.1469,20.0071 7.0211,6.5594 12.4156,14.5131 19.7173,20.7803 7.7373,7.0045 15.125,14.379 22.4769,21.7876 7.3555,7.5844 16.2336,13.5721 22.7387,21.9714 4.6288,3.284 8.3269,7.7633 13.1716,10.942 6.128,6.9006 13.9594,11.8451 20.6613,18.0665 4.3961,0.8227 6.4895,6.9608 10.1507,8.4286 1.0261,0.3612 2.5064,1.6141 3.9498,3.4922 -6.0444,-9.511 -7.5728,-6.5481 1.9939,-9.8006 0,0 -7.5344,29.2824 -7.5344,29.2824 v 0 c -11.0174,3.728 -4.5412,3.1193 -19.3723,-2.3476 2.2789,3.0036 -1.6589,-0.8817 -2.2559,-1.2586 -3.041,-3.1802 -6.6974,-5.7691 -10.2691,-8.5714 -6.8361,-5.7234 -13.6984,-11.3954 -20.1942,-17.513 -5.637,-4.7339 -11.1332,-9.7479 -16.1833,-15.0887 -6.6355,-7.2629 -14.8311,-12.9029 -21.5221,-20.1146 -7.007,-7.0654 -14.2393,-13.9001 -21.593,-20.6033 -7.2603,-6.8722 -13.2814,-14.8404 -20.4723,-21.7841 -6.2947,-6.6241 -12.084,-13.5812 -17.0217,-21.2902 -6.4645,-8.6927 -12.9562,-17.3984 -18.3896,-26.7904 -5.834,-10.3023 -10.8446,-21.0374 -16.7421,-31.3019 -4.5409,-7.893 -8.4143,-16.1309 -11.6046,-24.6676 -2.1866,-6.3311 -4.8596,-12.4716 -6.7268,-18.9106 -2.5874,-8.3215 -5.5213,-16.6169 -6.8819,-25.2465 -2.5976,-6.994 -1.9417,-14.5469 -4.1705,-21.6318 -1.2809,-8.0708 -2.4117,-16.1498 -2.8059,-24.3157 -1.111,-10.6073 -1.7094,-21.3217 -1.9565,-31.953 0.3279,-8.1227 -0.4077,-16.3053 1.2126,-24.3634 0.6053,-9.7095 1.137,-19.3746 1.3442,-29.1051 1.0854,-7.6966 2.2744,-15.3037 4.2828,-22.8302 2.3041,-7.8835 0.627,-16.9694 4.3461,-24.739 1.5008,-7.6348 4.5175,-14.8096 6.0642,-22.4467 2.8791,-8.3331 6.3515,-16.8369 11.9363,-23.7461 4.5382,-4.8245 6.5206,-11.5557 11.1188,-16.3746 4.5982,-4.558 7.4193,-10.8932 12.9566,-14.2857 3.2498,-2.6995 6.1261,-5.9062 9.9305,-7.8976 0.5164,-0.2703 1.2126,-0.059 1.7105,-0.3624 0.4483,-0.2728 0.6328,-0.8374 0.9492,-1.256 9.1468,-8.5753 21.4877,-15.1273 33.0649,-20.2188 5.9006,-2.515 12.3755,-4.099 17.8498,-7.219 1.2018,-0.8206 2.1749,-1.9839 3.4674,-2.6525 5.4521,-2.8204 12.4939,-2.184 18.3488,-2.9465 -10.5036,38.5991 -11.3727,32.808 5.4978,0.2072 1.5319,-2.9602 -3.5366,29.2193 -13.7915,26.4953 4.5033,-8.8549 8.7955,-17.8203 13.5097,-26.5647 0.1182,-0.2193 0.8351,-0.081 0.7328,0.1464 -4.0636,9.021 -8.3901,17.9245 -12.851,26.7558 -0.2396,0.4744 -5.2709,-1.7085 -5.449,-1.1025 -3.6008,-0.9417 -7.2557,-1.661 -10.7905,-2.8461 -7.9125,-2.9563 -16.0516,-5.2885 -23.8352,-8.592 -11.4009,-4.4758 -23.1371,-8.2774 -33.7931,-14.4248 -5.878,-3.4928 -11.8368,-6.9229 -17.4527,-10.8093 -5.6095,-4.3797 -11.3886,-8.738 -15.8138,-14.3741 -7.1556,-7.7171 -14.5465,-15.2649 -20.9867,-23.5931 -3.9647,-5.2029 -8.2417,-10.1948 -11.6308,-15.7702 -3.6661,-6.6025 -6.6651,-13.1646 -9.2836,-20.2283 -4.0445,-8.9834 -8.4582,-17.8092 -13.1329,-26.4799 -3.8875,-7.9991 -7.0846,-16.3357 -10.7774,-24.4242 -3.9037,-9.6159 -7.8574,-19.1913 -11.1302,-29.0466 -2.4692,-8.2351 -5.2987,-16.3546 -7.9823,-24.5217 -3.499,-11.2257 -5.1344,-22.822 -7.6782,-34.2647 -2.2278,-10.7415 -5.3509,-21.2909 -7.7928,-31.9855 -4.1701,-12.9059 -7.9888,-25.9123 -11.2014,-39.0923 -3.2719,-10.0543 -6.8898,-19.9065 -11.8337,-29.3023 -5.8258,-13.2975 -11.6069,-26.6079 -17.6747,-39.7991 -4.0765,-12.3361 -11.504,-23.5479 -16.8491,-35.3406 -6.3409,-11.8896 -13.4537,-23.373 -19.0903,-35.6293 -3.787,-7.8888 -8.2734,-15.4064 -11.6572,-23.5034 -5.3686,-10.5155 -9.7823,-21.4779 -15.9833,-31.5684 -5.7293,-11.5123 -11.681,-22.9062 -17.0068,-34.6242 -5.244,-10.3752 -9.836,-21.0479 -14.9929,-31.4727 -3.8739,-7.2237 -7.6504,-14.4937 -11.035,-21.9606 -3.8037,-7.3151 -6.7135,-14.9224 -10.0595,-22.4241 -4.3378,-8.6342 -9.189,-17.08528 -12.0943,-26.35268 -2.9838,-7.1219 -5.9747,-14.2156 -8.9795,-21.3306 -2.6383,-6.0546 -4.78727,-12.4761 -8.69737,-17.7813 -3.2788,-8.2808 -6.7856,-16.387 -10.3361,-24.54781 -3.4685,-9.52497 -7.7931,-18.72688 -10.0026,-28.66204 -4.6147,-11.44535 -7.7844,-23.41924 -8.3889,-35.80166 0.3576,-8.5992 1.3161,-17.08093 3.4541,-25.43087 5.7611,-15.4631 13.9184,-28.48923 25.018,-40.97897 4.7451,-3.96528 8.59217,-9.02744 14.36667,-11.7156 5.4513,-3.01223 10.9717,-6.05938 16.4873,-8.83451 7.2391,-1.51628 14.2858,-3.75594 21.498,-5.38071 9.8284,-2.03742 19.7497,-3.67715 29.8267,-3.61204 7.7894,-0.0346 15.5695,-0.41289 23.358,-0.41084 9.7161,0.26741 19.3393,1.12713 28.9773,2.34051 10.2332,1.63358 20.2184,4.46856 30.2518,7.0126 10.8486,2.91676 21.6094,6.30711 31.7944,11.09843 9.5478,3.94897 18.9381,8.25153 28.4579,12.26685 10.3386,4.6275 20.5756,9.4808 30.7921,14.3707 13.8329,6.66213 27.7563,13.13544 41.41,20.15936 10.644,5.57312 21.2255,11.26363 31.7911,16.98311 11.2004,6.0897 22.8745,11.18904 34.0918,17.23692 19.9461,11.01454 39.4864,22.61802 57.5196,36.65603 13.0401,9.67656 25.4775,20.11607 38.5299,29.77164 12.2041,8.8388 24.5981,17.4488 36.4376,26.7463 14.0396,11.5188 27.7009,23.5092 41.009,35.8657 11.5313,10.63788 22.4739,21.88818 34.2653,32.23678 13.0624,10.5875 26.3961,20.8393 38.8667,32.1395 9.428,8.5434 18.8548,17.1254 29.3601,24.3516 16.5922,14.2906 30.6752,31.2628 45.8542,46.9869 12.6425,14.5457 26.3881,28.0674 38.7588,42.8581 12.7118,15.4119 24.6518,31.479 38.145,46.2176 8.2562,8.9191 16.0312,18.2564 24.1043,27.34 6.0215,7.1434 11.9452,14.348 17.3748,21.958 11.2805,14.393 22.9646,28.4983 33.5613,43.4065 5.9215,9.0769 11.7131,18.2273 18.4677,26.7269 9.4107,12.6057 18.6059,25.3817 27.6612,38.2431 7.6724,10.3819 14.5744,21.3924 21.5817,32.2114 0.9359,1.9397 1.3493,4.9293 2.126,6.4825 5.83,11.658 16.005,20.8039 23.3248,31.3816 z" />
    </g>
  </g>
  <g
     inkscape:groupmode="layer"
     id="layer2"
     inkscape:label="rajz2">
    <path
       id="path3"
       style="fill:#000000"
       d="m 3067.6191,668.82422 c -12.4927,0.11364 -24.9711,1.06191 -37.4296,1.96289 -12.8486,1.25948 -25.7624,1.66257 -38.5821,3.21094 -10.0087,1.96515 -19.6138,5.52244 -29.3086,8.625 -7.396,2.80361 -15.0161,4.93565 -22.5332,7.38476 -6.8515,2.04588 -13.1055,5.25954 -19.25,8.83594 -9.0574,5.41876 -17.4059,12.04164 -25.6953,18.56641 -6.8269,6.19525 -14.4153,11.23825 -22.1523,16.20898 -7.723,4.6317 -15.2982,9.46395 -22.7227,14.56055 -7.8635,5.31283 -15.8702,10.39592 -23.6484,15.84765 -10.1478,6.7216 -19.4236,14.50213 -28.3574,22.75196 -6.823,6.90993 -14.9666,12.26852 -22.8399,17.88672 -11.0526,7.50123 -20.7763,16.68179 -31.0625,25.15039 -11.5483,9.47163 -22.2821,19.8803 -33.5254,29.70703 -11.9347,11.28583 -24.781,21.52761 -37.1816,32.27734 -10.5034,9.70193 -21.6675,18.65694 -31.9668,28.57617 -10.5064,10.33833 -21.681,19.95778 -33.0586,29.31641 -8.7585,6.74533 -16.8797,14.19482 -25.0606,21.61133 -11.044,9.38393 -21.1727,19.72817 -31.1113,30.25391 -10.3681,11.344 -19.8697,23.4461 -29.4082,35.4863 -7.3762,10.2993 -15.8586,19.7176 -23.5762,29.7422 -6.0338,8.2146 -11.8009,16.6029 -18.1679,24.5684 -4.7518,5.2862 -8.9958,10.9992 -13.1426,16.7636 -2.3137,3.4234 -5.1543,6.4142 -7.377,9.8653 9.1703,-6.2327 2.0314,-1.9109 20.6817,21.4961 L 2459.7461,1119 c -0.03,0.051 -0.072,0.093 -0.1016,0.1445 5.321,8.2197 9.6173,17.223 16.1289,24.5293 0.9202,1.0325 9.5561,-7.9309 10.1328,-9.7168 2.1054,-2.4519 6.2094,-7.366 6.4786,-8.1816 3.8533,-5.3586 7.8044,-10.6583 12.2304,-15.5645 6.4719,-8.1255 12.4223,-16.6165 18.5215,-25.0195 7.5834,-9.9276 16.0391,-19.1741 23.2891,-29.3711 8.9963,-11.3579 17.9497,-22.782 27.6972,-33.5098 9.3965,-9.9624 18.9712,-19.7488 29.4356,-28.60933 7.8195,-7.09723 15.5667,-14.23563 23.9629,-20.66406 11.9943,-9.88224 23.7862,-20.02703 34.8691,-30.93359 9.8525,-9.59293 20.7257,-18.06862 30.7617,-27.46875 12.4143,-10.79213 25.3187,-21.02559 37.2676,-32.35352 11.0114,-9.64053 21.5506,-19.81958 32.8457,-29.12891 9.7402,-8.03253 18.9477,-16.73551 29.3965,-23.87304 8.9064,-6.3566 18.0495,-12.5205 25.8027,-20.29883 7.9292,-7.33983 16.1353,-14.27078 25.1895,-20.19531 7.6976,-5.399 15.6284,-10.4213 23.4121,-15.6836 7.1686,-4.92933 14.5009,-9.5701 21.957,-14.05273 8.5494,-5.5036 16.9445,-11.14889 24.5508,-17.91992 7.1365,-5.6749 14.3747,-11.40587 22.1543,-16.1543 4.3097,-2.5094 8.5373,-4.87925 13.4043,-6.21875 7.471,-2.43452 15.0478,-4.54879 22.3965,-7.33984 7.8991,-2.53702 15.7413,-5.30286 23.7676,-7.40821 12.3103,-1.5483 24.74,-1.77567 37.0781,-3.0625 11.3638,-0.82551 22.7418,-1.6638 34.1328,-1.90625 9.7118,0.25872 19.2503,1.92463 28.4863,4.99219 3.7075,1.27806 8.7302,3.01306 11.9317,4.26953 4.6165,3.21436 9.4926,6.10402 13.166,10.46875 2.6083,2.86576 3.7546,3.83284 3.8086,4.21094 0.3197,0.75455 0.6785,1.89561 1.084,2.79883 0.052,0.20956 -0.044,-0.13429 0.035,0.17968 1.2803,7.8436 2.6833,15.72467 2.916,23.6836 0.3081,7.67503 0.4233,2.87817 0.6465,10.5664 0.062,1.1007 -0.6092,7.99063 0.5567,4.1504 0.091,-0.3008 -0.2103,0.59402 -0.3145,0.89062 -1.953,5.74413 -2.9066,11.73167 -4.8789,17.4707 -3.3917,9.12413 -7.5301,17.94579 -10.9902,27.04492 -3.451,11.29023 -5.7656,22.92479 -9.5235,34.13282 -2.543,8.32613 -3.916,16.92733 -6.3554,25.28906 -2.4971,8.90543 -4.5423,17.91723 -6.9317,26.84766 -3.7913,7.71203 -7.7225,15.35266 -12.0937,22.75586 -4.2302,7.68663 -8.298,15.45758 -12.2305,23.30078 -4.7115,8.74813 -9.7412,17.29937 -14.5254,26.0039 -5.7201,10.65394 -10.3059,21.61344 -14.3379,33.0156 -4.4853,10.4023 -8.8947,20.8563 -14.2988,30.8262 -3.6187,7.5328 -7.7786,14.7732 -11.5039,22.2422 -1.9502,4.2501 -4.1352,8.3658 -5.9512,12.6758 -3.6313,9.1863 -6.4737,18.6193 -8.5625,28.2793 -1.4884,5.8961 -2.57,11.8447 -4.7383,17.5547 -1.1116,4.7518 -2.8067,9.3733 -4.1191,14.0722 -1.2944,5.1118 -3.4498,9.9526 -5.0586,14.9629 -2.3502,6.1447 -3.6309,12.574 -5.8613,18.7422 -2.3358,6.5545 -4.2957,13.2264 -6.5528,19.8066 -2.2787,6.5123 -4.8232,12.9157 -7.1562,19.4082 -1.4798,3.1589 -2.8119,6.3837 -4.4258,9.4766 -3.0843,5.1911 -4.5635,10.8765 -7.7402,15.9707 -3.049,4.1539 -6.3456,8.1117 -9.7324,11.9902 -3.0204,3.6106 -6.2682,6.7262 -10.4727,8.9434 -4.454,3.0719 -8.7788,6.5125 -13.9551,8.2793 -4.7367,1.791 -9.3628,3.9295 -14.3496,4.9531 -4.4437,1.0974 -8.9158,1.9491 -13.4941,2.2774 -2.3031,0.3539 -18.7549,3.3595 -19.1719,4.166 -4.5726,8.8461 -6.8997,18.7226 -11.3027,27.6543 -0.038,0.077 -0.1244,-0.088 -0.1739,-0.068 1.0967,0.9892 2.2516,2.0557 3.3086,2.7149 0.1471,0.092 -0.2346,-0.2547 -0.3515,-0.3829 0.5894,0.5021 0.4869,0.4274 0.6816,0.586 2.8522,-0.3898 5.702,-0.7947 8.5566,-1.1465 2.7219,-0.4292 5.4837,-0.5401 8.2188,-0.8769 5.0139,-0.5519 -2.7063,0.2532 2.4824,-0.1348 1.3902,-0.104 2.7641,-0.4618 4.1348,-0.6953 1.4466,-0.2683 2.9335,-0.2702 4.3769,-0.5371 1.3068,-0.3267 2.6164,-0.463 3.9414,-0.6954 0.5469,-0.1737 1.1007,-0.1975 1.6602,-0.1835 0.5595,0.014 1.1245,0.066 1.6914,0.049 0.3141,0.017 0.6206,0.059 0.9277,0.1 -0.3122,-0.3706 -0.6119,-0.751 -0.9296,-1.1172 4.2629,-0.5458 8.4907,-1.3239 12.666,-2.3477 6.1761,-1.2645 11.9429,-3.816 17.8105,-6.0292 7.517,-2.5507 13.9647,-7.2131 20.4336,-11.6719 6.3383,-3.5453 11.4688,-8.6733 16.209,-14.0918 3.8749,-4.4197 7.5612,-8.9855 11.0918,-13.6856 4.8491,-3.8102 5.7381,-13.8638 9.1152,-17.9843 2.3911,-4.0392 4.133,-8.3939 6.1426,-12.6192 2.8585,-7.4091 5.7212,-14.8161 8.3457,-22.3125 2.2711,-6.5029 4.1528,-13.1281 6.4824,-19.6113 2.594,-5.6325 2.9072,-12.0678 5.4668,-17.6953 2.1359,-6.083 4.4536,-12.0975 6.1778,-18.3164 1.4756,-4.8405 2.9847,-9.6837 4.2519,-14.584 2.1792,-5.674 3.2428,-11.6452 4.7266,-17.5156 1.8282,-8.3588 4.143,-16.5583 7.3379,-24.4961 1.6604,-3.8956 3.4661,-7.2563 5.2734,-11.1016 3.7183,-7.3184 7.7606,-14.4796 11.334,-21.8887 5.5977,-10.3397 10.1708,-21.1835 14.8223,-31.9687 3.7872,-10.594 7.885,-20.78201 13.207,-30.67384 4.7898,-8.6897 9.8039,-17.24094 14.5117,-25.98047 3.9084,-7.74313 7.8883,-15.44433 12.0859,-23.03516 4.6046,-7.81413 8.7474,-15.88089 12.75,-24.01562 3.9196,-10.38483 5.9059,-21.3465 8.9082,-32.01563 2.6062,-7.99883 3.5012,-16.45307 6.1016,-24.4375 3.9968,-11.11623 5.8259,-22.92566 9.5195,-34.11719 3.5028,-8.51483 7.2718,-16.91885 10.4805,-25.55078 2.3834,-5.89843 3.1205,-12.28194 5.1602,-18.26367 1.7959,-5.23123 1.5823,-10.8701 1.332,-16.30273 -0.066,-3.3582 -0.5731,-6.66555 -0.6231,-10.01758 -0.2512,-9.26913 -1.8047,-18.45026 -3.2949,-27.58399 -0.4181,-3.35282 -1.7346,-6.49368 -2.9941,-9.60156 -1.9838,-5.01568 -5.7668,-8.99429 -9.3067,-12.95312 -5.1585,-6.13255 -11.8354,-10.45847 -18.3105,-15.01368 -5.9182,-3.77091 -12.7999,-5.79255 -19.3887,-8.07031 -12.056,-4.1383 -24.5543,-6.07329 -37.2422,-6.62695 z m -607.9746,450.32028 c -0.013,-0.02 -0.023,-0.041 -0.035,-0.061 -0.096,0.1506 -0.1665,0.3112 -0.25,0.4668 0.079,-0.1473 0.203,-0.2612 0.2851,-0.4063 z m -0.035,-0.061 c 0.029,-0.045 0.047,-0.095 0.076,-0.1406 l -0.2988,-0.2872 -0.086,-0.082 c 0.1086,0.1655 0.2008,0.3436 0.3086,0.5098 z m -0.2227,-0.4278 c 0.3563,-0.2368 0.3637,-0.2107 0.6817,-0.4257 0.039,-0.093 0.1169,-0.1698 0.1425,-0.2676 0.091,-0.3472 -1.1034,0.8739 -0.8242,0.6933 z m 0.6817,-0.4257 c -0.1033,0.2473 -0.236,0.4826 -0.3829,0.7129 l 0.061,0.057 c 0.208,-0.361 0.4903,-0.6669 0.7148,-1.0156 -0.1713,0.1164 -0.2093,0.1221 -0.3925,0.2461 z m 396.8691,173.8222 c -0.01,0.034 -0.016,0.069 -0.023,0.1035 0.082,0.087 0.2286,0.1638 0.3086,0.254 -0.096,-0.1232 -0.1937,-0.2571 -0.2852,-0.3575 z" />
    <path
       style="fill:#000000"
       id="path3-8"
       d="m 2153.1129,1643.0764 c -4.6553,0.1126 -12.9181,0.4721 -18.0665,0.1305 -0.1712,-0.011 -0.5061,-0.4624 -0.3711,-0.3565 3.5504,2.7841 7.8847,4.8043 10.6194,8.393 1.401,1.8384 1.9106,8.9875 1.0048,6.861 -1.7179,-4.0337 -2.3229,-8.4553 -3.4844,-12.683 -6.0944,-6.8326 -15.0241,-8.0279 -22.631,-12.4007 -5.5135,-3.202 -10.6832,-6.9421 -16.0205,-10.4185 -3.5968,-3.7535 -8.9625,-6.3165 -12.0504,-10.5155 -5.3366,-5.4502 -10.2901,-11.2281 -14.811,-17.3678 -6.4137,-8.055 -12.5141,-16.3371 -18.641,-24.6089 -5.9737,-7.6775 -10.9938,-15.9995 -16.4742,-24.0193 -3.4521,-6.0636 -6.3427,-12.5708 -8.7676,-19.1279 -2.5097,-5.9695 -4.279,-12.1871 -5.9814,-18.4229 -1.9691,-6.3395 -2.4235,-12.9949 -2.8194,-19.5832 0.01,0.5326 0.01,2.13 0.031,1.5977 0.2656,-6.2838 -0.3728,-12.585 -0.7075,-18.8544 0,-5.6298 0.7555,-11.1754 0.898,-16.8026 0.3911,-8.1608 0.4881,-16.359 1.0182,-24.5132 -0.022,-4.5094 1.2798,-8.7554 1.8308,-13.2137 0,-4.816 1.5185,-9.259 2.5857,-13.867 0.9218,-4.9873 2.2827,-9.861 4.1616,-14.5664 2.2071,-3.8887 2.2982,-10.5356 4.9737,-14.0434 2.4346,-5.3094 5.1418,-10.453 7.2809,-15.9051 1.5682,-4.1494 3.6371,-8.1023 5.5075,-12.1279 1.8858,-4.0747 3.1863,-8.4192 5.1257,-12.4669 0.1724,-0.3103 0.3555,-0.6149 0.5172,-0.9309 1.2913,-2.5239 2.2951,-5.2616 3.8095,-7.6688 0.1054,-0.1675 -0.1272,0.3746 -0.1908,0.562 2.649,-3.7212 5.5803,-7.2339 8.4734,-10.7658 2.8636,-3.7939 5.9582,-7.3631 9.091,-10.9342 2.1312,-2.718 4.2772,-5.4225 6.5032,-8.0638 0.3536,-0.4195 1.5677,-0.9918 1.0796,-1.2421 -0.4932,-0.253 -1.5534,1.5792 -1.1382,1.212 0.7063,-0.6247 1.3426,-1.3244 2.014,-1.9866 2.8688,-3.5469 0.6707,-1.4165 3.1685,-3.5441 -0.1169,0.1282 -0.4978,0.4762 -0.3507,0.3844 1.5183,-0.9468 3.6603,-2.5453 4.7519,-3.9015 0.9453,-1.1745 2.3678,-2.2665 2.5015,-3.7682 0.1294,-1.455 -1.6582,2.4053 -2.4872,3.6079 -0.5441,0.4713 -1.314,2.0596 -1.6322,1.4139 -4.403,-8.9317 -6.73,-18.8071 -11.3026,-27.6532 -0.417,-0.8065 -16.8695,-3.812 -19.1726,-4.1659 -4.5783,-0.3283 -9.0502,-1.1798 -13.4939,-2.2772 -4.9868,-1.0236 -9.6125,-3.1636 -14.3492,-4.9546 -5.1763,-1.7668 -9.5011,-5.2061 -13.9551,-8.278 -4.2045,-2.2172 -7.4516,-5.3334 -10.472,-8.944 -3.3868,-3.8785 -6.6844,-7.8366 -9.7334,-11.9905 -3.1767,-5.0942 -4.6554,-10.7799 -7.7397,-15.971 -1.6139,-3.0929 -2.9457,-6.3163 -4.4255,-9.4752 -2.333,-6.4925 -4.8776,-12.8967 -7.1563,-19.409 -2.2571,-6.5802 -4.2167,-13.2518 -6.5525,-19.8063 -2.2304,-6.1682 -3.5119,-12.5975 -5.8621,-18.7422 -1.6088,-5.0103 -3.7649,-9.852 -5.0593,-14.9638 -1.3124,-4.6989 -3.0068,-9.3186 -4.1184,-14.0711 -2.1683,-5.71 -3.2498,-11.6591 -4.7382,-17.5552 -2.0888,-9.66 -4.9315,-19.0931 -8.5628,-28.2794 -1.816,-4.31 -4.0014,-8.4252 -5.9516,-12.6753 -3.7253,-7.469 -7.8836,-14.7099 -11.5023,-22.2427 -5.4041,-9.9699 -9.8148,-20.4244 -14.3001,-30.82668 -4.032,-11.4024 -8.6183,-22.36 -14.3384,-33.014 -4.7842,-8.7046 -9.8136,-17.2576 -14.5251,-26.0058 -3.9325,-7.8432 -7.9998,-15.6124 -12.23,-23.2991 -4.3712,-7.4032 -8.3026,-15.045 -12.0939,-22.7571 -2.3894,-8.9305 -4.4337,-17.9414 -6.9308,-26.8469 -2.4394,-8.3618 -3.8121,-16.9639 -6.3551,-25.2901 -3.7579,-11.2081 -6.0731,-22.8423 -9.5241,-34.1326 -3.4601,-9.0992 -7.5997,-17.9192 -10.9914,-27.0434 -1.9723,-5.7391 -2.9258,-11.7281 -4.8788,-17.4723 -0.1042,-0.2966 -0.404,-1.1905 -0.3127,-0.8897 1.1659,3.8403 0.4938,-3.0507 0.5562,-4.1514 0.2232,-7.6883 0.3377,-2.8896 0.6458,-10.5647 0.2327,-7.959 1.6356,-15.8406 2.9159,-23.6842 0.9778,-3.8545 -0.3111,0.687 -0.2931,0.6662 0.6461,-0.7473 0.9958,-2.6623 1.4122,-3.6449 0.054,-0.3781 1.2007,-1.3462 3.809,-4.21196 3.6734,-4.3648 8.5503,-7.25292 13.1668,-10.46728 3.2015,-1.25647 8.2241,-2.99191 11.9316,-4.26997 9.236,-3.06756 18.7732,-4.73298 28.485,-4.9917 11.391,0.24245 22.7704,1.07955 34.1342,1.90506 12.3381,1.28683 24.7667,1.51516 37.077,3.06346 8.0263,2.10535 15.8679,4.87098 23.767,7.408 7.3487,2.79112 14.926,4.90567 22.397,7.34019 4.867,1.3395 9.095,3.7087 13.4047,6.2181 7.7796,4.7485 15.0172,10.479 22.1537,16.1539 7.6063,6.7711 16.0015,12.4176 24.5509,17.9212 7.4561,4.4827 14.7891,9.1227 21.9577,14.0521 7.7837,5.2623 15.7141,10.284 23.4117,15.683 9.0542,5.9246 17.261,12.8563 25.1902,20.1962 7.7539,7.7784 16.8948,13.941 25.8012,20.2976 10.4488,7.1376 19.6568,15.8403 29.397,23.8729 11.2951,9.3094 21.8351,19.4896 32.8465,29.1302 11.9489,11.328 24.8538,21.5611 37.2681,32.3533 10.0367,9.4002 20.9076,17.8762 30.7601,27.4692 11.0829,10.9067 22.8753,21.0499 34.8696,30.9322 8.3962,6.4285 16.1427,13.5669 23.9622,20.6642 10.4644,8.8605 20.0395,18.64698 29.436,28.61008 9.7482,10.7278 18.7012,22.1518 27.6975,33.5097 7.25,10.197 15.7052,19.4436 23.2886,29.3712 6.0992,8.403 12.0497,16.8944 18.5216,25.0199 4.426,4.9062 8.378,10.2046 12.2313,15.5632 0.4439,1.3449 12.139,14.8414 6.2127,7.7515 -0.3535,1.0146 9.4291,11.2351 10.3974,10.1486 6.6588,-7.4715 10.9826,-16.7343 16.4738,-25.1015 0,0 -21.8429,20.9073 -21.8429,20.9073 v 0 c 19.6082,-24.6092 10.1898,-28.5319 21.7627,-20.8208 0.3006,0.2003 -0.9219,-1.0459 -0.8302,-0.6965 0.1526,0.5811 0.5682,1.0589 0.8523,1.5884 -2.2633,-4.2172 -5.805,-7.475 -8.4791,-11.4317 -4.1468,-5.7644 -8.3904,-11.479 -13.1422,-16.7652 -6.367,-7.9655 -12.134,-16.3532 -18.1678,-24.5678 -7.7176,-10.0246 -16.201,-19.442 -23.5772,-29.7413 -9.5385,-12.0402 -19.04,-24.1432 -29.4081,-35.48718 -9.9386,-10.5257 -20.0667,-20.8688 -31.1114,-30.2528 -8.1809,-7.4165 -16.301,-14.8672 -25.0595,-21.6126 -11.3776,-9.3587 -22.5537,-18.9781 -33.0601,-29.3165 -10.2993,-9.9193 -21.4634,-18.8733 -31.9668,-28.5753 -12.4006,-10.7498 -25.2458,-20.991 -37.1805,-32.2769 -11.2433,-9.8268 -21.9781,-20.2358 -33.5264,-29.7075 -10.2862,-8.4686 -20.0086,-17.6487 -31.0612,-25.15 -7.8733,-5.6182 -16.0169,-10.9782 -22.8399,-17.8882 -8.9345,-8.2499 -18.2095,-16.0296 -28.3573,-22.7512 -7.7782,-5.4518 -15.7848,-10.5342 -23.6483,-15.8471 -7.4245,-5.0966 -15.0008,-9.9299 -22.7238,-14.5616 -7.737,-4.9708 -15.3258,-10.0126 -22.1527,-16.20792 -8.2894,-6.52477 -16.6378,-13.14827 -25.6952,-18.5671 -6.1445,-3.5764 -12.3982,-6.79005 -19.2497,-8.83593 -7.5171,-2.44911 -15.1362,-4.58022 -22.5322,-7.3839 -9.6948,-3.10256 -19.2998,-6.66058 -29.3085,-8.6258 -12.8197,-1.54837 -25.7333,-1.95095 -38.5819,-3.21043 -12.4592,-0.90098 -24.9371,-1.8501 -37.4305,-1.96374 -12.6879,0.55366 -25.1855,2.48825 -37.2415,6.62662 -6.5888,2.27776 -13.4715,4.29959 -19.3897,8.07057 -6.4751,4.55521 -13.1506,8.88129 -18.3098,15.01384 -3.5399,3.9589 -7.3237,7.93688 -9.3075,12.95263 -1.2595,3.10788 -2.5756,6.24887 -2.9937,9.60176 -1.4902,9.1338 -3.0432,18.3145 -3.2951,27.5837 -0.05,3.3521 -0.5578,6.6598 -0.6233,10.018 -0.2503,5.4327 -0.4642,11.0716 1.3317,16.3029 2.0397,5.9818 2.7768,12.3644 5.1602,18.2629 3.2087,8.632 6.9777,17.0359 10.4805,25.5508 3.6936,11.1916 5.523,23.0023 9.5198,34.1186 2.6004,7.9845 3.4958,16.4387 6.102,24.4376 3.0023,10.6692 4.9888,21.6303 8.9084,32.0152 4.0026,8.1348 8.1452,16.2011 12.7498,24.0153 4.1976,7.5909 8.1776,15.2917 12.086,23.0349 4.7078,8.7396 9.7219,17.2913 14.5117,25.981 5.322,9.8919 9.4203,20.0795 13.2075,30.67348 4.6515,10.7852 9.2234,21.6295 14.8211,31.9692 3.5734,7.4091 7.6164,14.5701 11.3347,21.8885 1.8073,3.8453 3.6121,7.206 5.2725,11.1016 3.1949,7.9378 5.5095,16.138 7.3377,24.4968 1.4838,5.8704 2.549,11.8414 4.7282,17.5154 1.2672,4.9003 2.776,9.742 4.2516,14.5825 1.7242,6.2189 4.0424,12.2345 6.1783,18.3175 2.5596,5.6275 2.8716,12.0627 5.4656,17.6952 2.3296,6.4832 4.2124,13.1086 6.4835,19.6115 2.6245,7.4964 5.4862,14.9029 8.3447,22.312 2.0096,4.2253 3.7507,8.5797 6.1418,12.6189 3.3771,4.1205 4.2663,14.1745 9.1154,17.9847 3.5306,4.7001 7.217,9.2658 11.0919,13.6855 4.7402,5.4185 9.8705,10.5476 16.2088,14.0929 6.4689,4.4588 12.9181,9.1204 20.4351,11.6711 5.8676,2.2132 11.6336,4.7643 17.8097,6.0295 5.3564,1.3134 10.7744,2.3839 16.2812,2.8255 4.5127,0.632 8.8212,1.7232 13.2759,2.6929 2.8035,0.6103 7.9655,4.5715 8.4296,1.7402 6.0234,-36.7473 1.7341,-32.1381 -6.4957,-25.3646 -1.0893,1.4617 -2.0893,2.9943 -3.2678,4.3851 -0.8094,0.9553 1.349,-2.1189 2.1576,-3.0749 3.8974,-4.6079 -0.1078,0.8621 -2.0298,1.1688 -0.2688,0.2414 -11.2414,11.811 -5.4302,5.7717 0.3448,-0.3049 1.3637,-1.2362 1.0344,-0.9147 -3.6235,3.537 -6.9537,7.3256 -9.909,11.46 -3.354,3.828 -6.6373,7.6914 -9.7509,11.7128 -3.1691,3.8721 -6.3712,7.7299 -9.2839,11.8009 -2.9128,4.2744 -5.1407,8.8385 -7.3852,13.4898 -1.8484,4.0723 -3.38,8.2808 -5.0986,12.4086 -2.1556,4.6532 -4.513,9.2307 -6.3147,14.036 -1.7512,4.7846 -4.3861,9.1371 -6.3869,13.8114 -2.2919,5.1521 -4.0179,10.5223 -5.7676,15.8794 -2.3991,6.1537 -4.3135,12.474 -5.52,18.9794 -1.229,5.7226 -3.0708,11.319 -3.1506,17.2508 -0.3096,4.9153 -2.3058,9.6827 -1.9556,14.6956 -0.4798,8.5828 -0.6991,17.188 -1.0669,25.7747 -0.028,6.3305 -1.2875,12.5987 -0.8595,18.9537 0.3152,5.8774 0.8873,11.8112 0.6917,17.5207 0.5507,8.6485 1.3078,17.3503 3.833,25.6838 1.9718,7.1915 4.0506,14.3585 6.9095,21.2574 3.4,8.7017 7.1243,17.4247 12.0402,25.3737 5.6967,8.3347 10.9227,16.9819 17.141,24.956 6.1169,8.2575 12.2019,16.5313 18.6106,24.5678 5.381,7.2757 11.2461,14.1536 17.5845,20.6172 5.3674,5.2581 11.163,10.1193 17.1377,14.6692 5.9034,3.8177 11.588,7.9833 17.7195,11.444 1.5133,0.8337 22.8954,12.5341 12.7842,3.5768 -0.5584,-3.3824 1.0686,-8.0919 -1.6752,-10.1471 -2.4909,-1.8657 -1.0472,6.66 0.5699,9.3191 7.0329,11.5651 14.5476,11.5146 25.7586,11.4153 4.0278,-0.036 8.0532,-0.208 12.0798,-0.3119 z" />
    <rect
       style="fill:#000000;stroke-width:1.33899"
       id="rect11"
       width="27.428572"
       height="734.57935"
       x="2852.5715"
       y="1263.1429" />
    <rect
       style="fill:#000000;stroke-width:0;stroke-dasharray:none"
       id="rect11-8"
       width="29.975861"
       height="413.39145"
       x="1404.9752"
       y="2730.8735"
       transform="matrix(0.87506706,-0.48400169,0.51617064,0.85648577,0,0)" />
    <rect
       style="fill:#000000;stroke-width:0;stroke-dasharray:none"
       id="rect11-8-8"
       width="30.004591"
       height="521.40375"
       x="-1680.7017"
       y="2206.4058"
       transform="matrix(0.03781197,-0.99928487,0.99999533,-0.00305742,0,0)" />
    <circle
       style="fill:#000000;stroke-width:0;stroke-dasharray:none"
       id="path11"
       cx="2299.6375"
       cy="1406.3728"
       r="33.116169" />
    <circle
       style="fill:#000000;stroke-width:0;stroke-dasharray:none"
       id="path11-6"
       cx="2473.0376"
       cy="1406.3728"
       r="33.116169" />
    <circle
       style="fill:#000000;stroke-width:0;stroke-dasharray:none"
       id="path11-7"
       cx="2646.4375"
       cy="1406.3728"
       r="33.116169" />
  </g>
  <g
     inkscape:groupmode="layer"
     id="layer3"
     inkscape:label="kitoltes">
    <rect
       style="fill:#ffcc00;stroke-width:0;stroke-dasharray:none"
       id="rect12"
       width="1032.7799"
       height="38.789856"
       x="1961.3121"
       y="1137.0277" />
    <rect
       style="fill:#ffcc00;stroke-width:0;stroke-dasharray:none"
       id="rect13"
       width="848.52814"
       height="38.789856"
       x="2019.4969"
       y="1500.6826" />
  </g>
</svg>
