<?xml version="1.0" encoding="UTF-8" standalone="no"?>
<!-- Created with Inkscape (http://www.inkscape.org/) -->

<svg
   width="90.899017mm"
   height="70.558807mm"
   viewBox="0 0 90.899017 70.558807"
   version="1.1"
   id="svg1"
   inkscape:version="1.3.2 (091e20e, 2023-11-25, custom)"
   sodipodi:docname="logo.svg"
   xml:space="preserve"
   inkscape:export-filename="logo.jpg"
   inkscape:export-xdpi="96"
   inkscape:export-ydpi="96"
   xmlns:inkscape="http://www.inkscape.org/namespaces/inkscape"
   xmlns:sodipodi="http://sodipodi.sourceforge.net/DTD/sodipodi-0.dtd"
   xmlns="http://www.w3.org/2000/svg"
   xmlns:svg="http://www.w3.org/2000/svg"><sodipodi:namedview
     id="namedview1"
     pagecolor="#ffffff"
     bordercolor="#000000"
     borderopacity="0.25"
     inkscape:showpageshadow="2"
     inkscape:pageopacity="0.0"
     inkscape:pagecheckerboard="0"
     inkscape:deskcolor="#d1d1d1"
     inkscape:document-units="mm"
     inkscape:zoom="1.896304"
     inkscape:cx="96.767185"
     inkscape:cy="128.93502"
     inkscape:window-width="1920"
     inkscape:window-height="991"
     inkscape:window-x="-9"
     inkscape:window-y="-9"
     inkscape:window-maximized="1"
     inkscape:current-layer="svg1"
     showgrid="false"><inkscape:grid
       id="grid2"
       units="mm"
       originx="-14.16325"
       originy="-18.206676"
       spacingx="1"
       spacingy="0.99999998"
       empcolor="#0099e5"
       empopacity="0.30196078"
       color="#0099e5"
       opacity="0.14901961"
       empspacing="5"
       dotted="false"
       gridanglex="30"
       gridanglez="30"
       visible="false" /></sodipodi:namedview><defs
     id="defs1"><inkscape:path-effect
       effect="simplify"
       id="path-effect48"
       is_visible="true"
       lpeversion="1.3"
       threshold="93.082453"
       steps="1"
       smooth_angles="360"
       helper_size="10"
       simplify_individual_paths="false"
       simplify_just_coalesce="false" /><inkscape:path-effect
       effect="simplify"
       id="path-effect5"
       is_visible="true"
       lpeversion="1.3"
       threshold="100"
       steps="1"
       smooth_angles="360"
       helper_size="10"
       simplify_individual_paths="false"
       simplify_just_coalesce="false" /><inkscape:path-effect
       effect="simplify"
       id="path-effect4"
       is_visible="true"
       lpeversion="1.3"
       threshold="100"
       steps="1"
       smooth_angles="360"
       helper_size="10"
       simplify_individual_paths="false"
       simplify_just_coalesce="false" /><inkscape:path-effect
       effect="simplify"
       id="path-effect1"
       is_visible="true"
       lpeversion="1.3"
       threshold="100"
       steps="1"
       smooth_angles="360"
       helper_size="10"
       simplify_individual_paths="false"
       simplify_just_coalesce="false" /></defs><g
     id="g3"
     transform="matrix(0.95253299,0,0,0.95253299,-36.782884,-87.564973)"
     style="stroke:#ffbc2f;stroke-width:5.04969;stroke-linecap:round;stroke-linejoin:round;stroke-miterlimit:4.2;stroke-dasharray:none;stroke-dashoffset:20;stroke-opacity:1;paint-order:stroke fill markers"
     inkscape:label="stroke"><path
       style="opacity:1;fill:none;stroke:#ffbc2f;stroke-width:5.04969;stroke-linecap:round;stroke-linejoin:round;stroke-miterlimit:4.2;stroke-dasharray:none;stroke-dashoffset:20;stroke-opacity:1;paint-order:stroke fill markers"
       d="m 90.970819,149.99023 -23.318939,0.0987 c 0,0 -8.05159,1.40282 -8.92965,-8.92965 -0.657063,-7.73191 3.660159,-9.32337 3.660159,-9.32337 0,0 -7.527632,-3.87432 -8.711547,-7.22875 -1.183915,-3.35443 -0.789276,-6.1169 -2.565151,-7.89277 -1.775873,-1.77587 -8.836739,-15.30568 -8.836739,-15.30568 0,0 -1.029224,-0.8745 -1.127885,-5.018206 -0.09866,-4.143703 10.655242,-0.295979 10.655242,-0.295979 0,0 13.812348,5.426285 18.054714,9.175345 4.242364,3.74907 16.32817,16.32817 16.32817,16.32817"
       id="path2"
       sodipodi:nodetypes="ccscsscscsc" /><path
       style="opacity:1;fill:none;stroke:#ffbc2f;stroke-width:5.04969;stroke-linecap:round;stroke-linejoin:round;stroke-miterlimit:4.2;stroke-dasharray:none;stroke-dashoffset:20;stroke-opacity:1;paint-order:stroke fill markers"
       d="m 86.48127,121.79532 c 0,0 12.0858,-12.5791 16.32817,-16.32817 4.24236,-3.74906 18.05471,-9.175345 18.05471,-9.175345 0,0 10.75394,-3.847724 10.65524,0.295979 -0.0987,4.143706 -1.12788,5.018206 -1.12788,5.018206 0,0 -7.06087,13.52981 -8.83674,15.30568 -1.77588,1.77587 -1.38124,5.72226 -2.56515,9.07669 -1.18392,3.35443 -6.75819,6.62978 -6.75819,6.62978 0,19.53244 0.0919,17.46758 -0.19493,17.47075 l -8.93772,0.0987 v 13.29147 L 91.654803,149.96265"
       id="path3"
       sodipodi:nodetypes="ccscssccsccc" /></g></svg>
