<?xml version="1.0" encoding="UTF-8" standalone="no"?>
<!-- Created with Inkscape (http://www.inkscape.org/) -->

<svg
   width="297mm"
   height="210mm"
   viewBox="0 0 297 210"
   version="1.1"
   id="svg1"
   inkscape:version="1.3.2 (091e20e, 2023-11-25, custom)"
   sodipodi:docname="logo.svg"
   xml:space="preserve"
   xmlns:inkscape="http://www.inkscape.org/namespaces/inkscape"
   xmlns:sodipodi="http://sodipodi.sourceforge.net/DTD/sodipodi-0.dtd"
   xmlns:xlink="http://www.w3.org/1999/xlink"
   xmlns="http://www.w3.org/2000/svg"
   xmlns:svg="http://www.w3.org/2000/svg"><sodipodi:namedview
     id="namedview1"
     pagecolor="#ffffff"
     bordercolor="#000000"
     borderopacity="0.25"
     inkscape:showpageshadow="2"
     inkscape:pageopacity="0.0"
     inkscape:pagecheckerboard="0"
     inkscape:deskcolor="#d1d1d1"
     inkscape:document-units="mm"
     inkscape:zoom="0.47407601"
     inkscape:cx="174.02273"
     inkscape:cy="551.59931"
     inkscape:window-width="1920"
     inkscape:window-height="991"
     inkscape:window-x="-9"
     inkscape:window-y="-9"
     inkscape:window-maximized="1"
     inkscape:current-layer="g41"
     showgrid="false"><inkscape:grid
       id="grid2"
       units="mm"
       originx="0"
       originy="0"
       spacingx="1"
       spacingy="0.99999998"
       empcolor="#0099e5"
       empopacity="0.30196078"
       color="#0099e5"
       opacity="0.14901961"
       empspacing="5"
       dotted="false"
       gridanglex="30"
       gridanglez="30"
       visible="false" /></sodipodi:namedview><defs
     id="defs1"><linearGradient
       id="linearGradient88"
       inkscape:collect="always"><stop
         style="stop-color:#ffe82f;stop-opacity:0.96082091;"
         offset="0"
         id="stop88" /><stop
         style="stop-color:#ffbc2f;stop-opacity:1;"
         offset="1"
         id="stop87" /></linearGradient><linearGradient
       id="linearGradient84"
       inkscape:collect="always"><stop
         style="stop-color:#ffbc2f;stop-opacity:1;"
         offset="0"
         id="stop85" /><stop
         style="stop-color:#ffe82f;stop-opacity:0.96082091;"
         offset="1"
         id="stop86" /></linearGradient><inkscape:path-effect
       effect="simplify"
       id="path-effect48"
       is_visible="true"
       lpeversion="1.3"
       threshold="93.082453"
       steps="1"
       smooth_angles="360"
       helper_size="10"
       simplify_individual_paths="false"
       simplify_just_coalesce="false" /><linearGradient
       id="linearGradient46"
       inkscape:collect="always"><stop
         style="stop-color:#ffbc2f;stop-opacity:1;"
         offset="0.64316547"
         id="stop47" /><stop
         style="stop-color:#f7ee00;stop-opacity:1;"
         offset="1"
         id="stop48" /></linearGradient><inkscape:path-effect
       effect="simplify"
       id="path-effect5"
       is_visible="true"
       lpeversion="1.3"
       threshold="100"
       steps="1"
       smooth_angles="360"
       helper_size="10"
       simplify_individual_paths="false"
       simplify_just_coalesce="false" /><inkscape:path-effect
       effect="simplify"
       id="path-effect4"
       is_visible="true"
       lpeversion="1.3"
       threshold="100"
       steps="1"
       smooth_angles="360"
       helper_size="10"
       simplify_individual_paths="false"
       simplify_just_coalesce="false" /><inkscape:path-effect
       effect="simplify"
       id="path-effect1"
       is_visible="true"
       lpeversion="1.3"
       threshold="100"
       steps="1"
       smooth_angles="360"
       helper_size="10"
       simplify_individual_paths="false"
       simplify_just_coalesce="false" /><radialGradient
       inkscape:collect="always"
       xlink:href="#linearGradient46"
       id="radialGradient48"
       cx="151.12389"
       cy="93.149977"
       fx="151.12389"
       fy="93.149977"
       r="89.447908"
       gradientTransform="matrix(1,0,0,0.76878003,0,21.538135)"
       gradientUnits="userSpaceOnUse" /><radialGradient
       inkscape:collect="always"
       xlink:href="#linearGradient84"
       id="radialGradient86"
       cx="205.48944"
       cy="159.23457"
       fx="205.48944"
       fy="159.23457"
       r="50.764141"
       gradientTransform="matrix(1,0,0,0.76210737,33.938915,-38.284505)"
       gradientUnits="userSpaceOnUse" /><radialGradient
       inkscape:collect="always"
       xlink:href="#linearGradient88"
       id="radialGradient87"
       gradientUnits="userSpaceOnUse"
       gradientTransform="matrix(1,0,0,0.76210737,-51.69765,42.616397)"
       cx="205.48944"
       cy="159.23457"
       fx="205.48944"
       fy="159.23457"
       r="50.764141" /></defs><g
     inkscape:groupmode="layer"
     id="layer3"
     inkscape:label="butterfly part"><g
       id="g41"
       style="stroke:url(#radialGradient48)"><path
         style="fill:none;stroke:#ffbc2f;stroke-width:2.77724;stroke-linecap:round;stroke-linejoin:round;stroke-opacity:1"
         d="m 26.039251,59.821746 h 38.156705 l 13.11316,12.754497 V 42.411588 l 0.217862,-4.957814 0.60611,-2.263148 0.588937,-1.744993 1.225019,-2.310767 2.505165,-4.634917 3.638638,-6.267428 3.792021,-7.120175 0.297748,-0.722704 0.129808,-0.784328 -0.02503,-0.783865 L 89.978,10.047724 89.187997,9.0783909 C 88.723526,8.9283864 88.618992,8.6674957 88.232363,8.5566279 87.287637,8.285726 86.472727,8.0351444 85.582037,8.0333128 85.125778,8.032395 84.727476,8.0204964 84.217648,8.1115964 83.760518,8.193276 83.19839,8.3730795 82.678399,8.4638332 l -2.158522,0.5624752 -3.215133,1.3976396 -3.306588,1.464636 -3.816795,1.759237 -2.642258,1.499014 -6.187114,4.648457 c -1.392157,1.65256 -3.452629,3.100359 -5.230547,4.800552 -2.684504,2.567145 -5.192106,5.37595 -7.493486,7.683029 L 47.778635,32.290888 44.202398,28.94971 40.515636,24.765561 34.795391,19.758385 28.608279,15.10993 22.149232,11.851679 18.732,10.534571 15.406216,9.2106953 13.468986,8.4269276 12.055716,8.0880654 11.103395,8.0140624 8.7347994,8.132892 8.0324777,8.2933758 7.4543041,8.5600598 6.8118716,8.9677234 6.3649694,9.4214343 l -0.597571,0.8617517 -0.1723515,0.664136 0.026818,0.858745 0.1663221,0.929794 0.1586757,0.887046 4.1097033,6.57271 3.638627,6.267426 2.265435,4.671807 1.151797,4.229841 0.708647,1.24063 1.415978,1.148378 4.911057,1.967853 -2.381477,2.294613 -1.678067,2.338536 -0.718076,2.037584 -0.377312,3.067945 0.265336,3.680053 0.683681,2.081448 1.427801,1.982514 3.058406,2.191522 0.148582,0.02904 1.448431,0.387195"
         id="path1"
         sodipodi:nodetypes="ccccccccccccccccssscccccccsccccccccccccccccccccccccccccccccccccccc" /><path
         style="fill:none;stroke:#ffbc2f;stroke-width:4.18258;stroke-linecap:round;stroke-linejoin:round;stroke-dasharray:none;stroke-opacity:1"
         d="M 28.06236,159.23577 H 57.170627 L 68.31086,172.75822 68.2122,159.23577 h 13.842848 l 0.36414,-18.45843 0.230979,-5.25633 0.642604,-2.39941 0.624397,-1.85006 1.298777,-2.4499 2.656002,-4.91398 3.857716,-6.64479 4.02034,-7.54888 0.315675,-0.76622 0.137624,-0.83155 -0.02654,-0.83106 -0.325901,-0.82031 -0.83757,-1.0277 c -0.492435,-0.15904 -0.603263,-0.43563 -1.01317,-0.55317 -1.001609,-0.28722 -1.865585,-0.55289 -2.809904,-0.55483 -0.48373,-8.9e-4 -0.906014,-0.0136 -1.446538,0.083 -0.484651,0.0866 -1.080624,0.27722 -1.631923,0.37344 l -2.288487,0.59634 -3.408717,1.48179 -3.505673,1.55282 -4.046605,1.86516 -2.801351,1.58928 -6.55964,4.92833 c -1.47598,1.75207 -3.660513,3.28704 -5.545479,5.0896 -2.846138,2.72171 -5.504724,5.69963 -7.94467,8.14562 l -0.900459,0.0127 -3.791563,-3.54235 -3.908742,-4.43608 -6.064666,-5.30866 -6.559632,-4.92833 -6.847953,-3.45443 -3.622977,-1.39641 -3.526038,-1.40359 -2.053871,-0.83096 -1.498361,-0.35926 -1.009659,-0.0785 -2.5112128,0.12598 -0.7446026,0.17015 -0.6129855,0.28274 -0.6811117,0.43221 -0.4738138,0.48103 -0.6335534,0.91364 -0.1827226,0.70412 0.028397,0.91045 0.1763355,0.98577 0.1682233,0.94046 4.3571496,6.96846 3.857716,6.64478 2.401836,4.9531 1.221141,4.48452 0.751317,1.31533 1.501236,1.21752 5.20675,2.08634 -2.524863,2.43277 -1.779102,2.47934 -0.761313,2.16027 -0.400035,3.25266 0.281316,3.90163 0.724848,2.20678 1.513763,2.10188 3.242555,2.32347 0.157528,0.0308 1.535639,0.4105"
         id="path48"
         sodipodi:nodetypes="ccccccccccccccccccssscccccccsccccccccccccccccccccccccccccccccccccccc" /><path
         style="fill:#ffbc2f;fill-opacity:1;stroke:#000000;stroke-width:0.6;stroke-linecap:round;stroke-linejoin:round;stroke-dasharray:none;stroke-opacity:1"
         d="m 116.08477,82.792961 h 45.72942 l 15.71564,15.285794 V 61.927521 l 0.2611,-5.94176 0.7264,-2.7123 0.70582,-2.09131 1.46814,-2.76937 3.00235,-5.55478 4.36077,-7.51128 4.5446,-8.53327 0.35684,-0.86614 0.15557,-0.93999 -0.03,-0.93943 -0.3684,-0.92728 -0.94679,-1.16171 c -0.55665,-0.17978 -0.68193,-0.49244 -1.14529,-0.62531 -1.13222,-0.32467 -2.10886,-0.62498 -3.17632,-0.62718 -0.54681,-10e-4 -1.02416,-0.0154 -1.63517,0.0938 -0.54785,0.0979 -1.22154,0.31338 -1.84473,0.42214 l -2.58691,0.67411 -3.85322,1.67502 -3.96282,1.75531 -4.57429,2.10838 -3.16665,1.79652 -7.41503,5.571 c -1.66845,1.98054 -4.13785,3.71567 -6.26862,5.75329 -3.21728,3.07663 -6.22255,6.44288 -8.98067,9.20783 l -1.01788,0.0144 -4.28599,-4.00428 -4.41845,-5.01455 -6.85551,-6.00092 -7.41502,-5.571 -7.74094,-3.9049 -4.09542,-1.5785 -3.98584,-1.58662 -2.3217,-0.93932 -1.693754,-0.40611 -1.14132,-0.0887 -2.83868,0.14241 -0.8417,0.19234 -0.69292,0.31961 -0.76993,0.48857 -0.5356,0.54375 -0.71617,1.03278 -0.20655,0.79594 0.0321,1.02918 0.19933,1.11432 0.19016,1.0631 4.92533,7.87715 4.360774,7.51128 2.71504,5.59899 1.38038,5.06931 0.84929,1.48685 1.697,1.37629 5.88572,2.3584 -2.85411,2.75001 -2.0111,2.80265 -0.86059,2.44197 -0.4522,3.67682 0.318,4.41041 0.81937,2.49454 1.71116,2.37597 3.66539,2.62646 0.17807,0.0348 1.73589,0.46404"
         id="path49"
         sodipodi:nodetypes="ccccccccccccccccssscccccccsccccccccccccccccccccccccccccccccccccccc" /><path
         style="fill:url(#radialGradient86);stroke:none;stroke-width:1;stroke-linecap:round;stroke-linejoin:round;stroke-dasharray:none;stroke-opacity:1"
         d="m 213.16585,106.47127 h 45.72942 l 15.71564,15.2858 V 85.605829 l 0.2611,-5.94176 0.7264,-2.7123 0.70582,-2.09131 1.46814,-2.76937 3.00235,-5.55478 4.36077,-7.511279 4.5446,-8.53327 0.35684,-0.86614 0.15557,-0.93999 -0.03,-0.93943 -0.3684,-0.92728 -0.94679,-1.16171 c -0.55665,-0.17978 -0.68193,-0.49244 -1.14529,-0.62531 -1.13222,-0.32467 -2.10886,-0.62498 -3.17632,-0.62718 -0.54681,-10e-4 -1.02416,-0.0154 -1.63517,0.0938 -0.54785,0.0979 -1.22154,0.31338 -1.84473,0.42214 l -2.58691,0.67411 -3.85322,1.67502 -3.96282,1.75531 -4.57429,2.10838 -3.16665,1.79652 -7.41503,5.571 c -1.66845,1.98054 -4.13785,3.71567 -6.26862,5.753288 -3.21728,3.076631 -6.22255,6.442881 -8.98067,9.207831 l -1.01788,0.0144 -4.28599,-4.00428 -4.41845,-5.014551 -6.85551,-6.000918 -7.41502,-5.571 -7.74094,-3.9049 -4.09542,-1.5785 -3.98584,-1.58662 -2.3217,-0.93932 -1.69375,-0.40611 -1.14132,-0.0887 -2.83868,0.14241 -0.8417,0.19234 -0.69292,0.31961 -0.76993,0.48857 -0.5356,0.54375 -0.71617,1.03278 -0.20655,0.79594 0.0321,1.02918 0.19933,1.11432 0.19016,1.0631 4.92533,7.87715 4.36077,7.511279 2.71504,5.59899 1.38038,5.06931 0.84929,1.48685 1.697,1.37629 5.88572,2.3584 -2.85411,2.75001 -2.0111,2.80265 -0.86059,2.44197 -0.4522,3.67682 0.318,4.41041 0.81937,2.494541 1.71116,2.37597 3.66539,2.62646 0.17807,0.0348 1.73589,0.46404"
         id="path79"
         sodipodi:nodetypes="ccccccccccccccccssscccccccsccccccccccccccccccccccccccccccccccccccc" /><path
         style="fill:url(#radialGradient87);stroke:#6c3000;stroke-width:1;stroke-linecap:round;stroke-linejoin:round;stroke-dasharray:none;stroke-opacity:1"
         d="m 127.52928,187.37217 h 45.72942 l 15.71564,15.2858 v -36.15124 l 0.2611,-5.94176 0.7264,-2.7123 0.70582,-2.09131 1.46814,-2.76937 3.00235,-5.55478 4.36077,-7.51128 4.5446,-8.53327 0.35684,-0.86614 0.15557,-0.93999 -0.03,-0.93943 -0.3684,-0.92728 -0.94679,-1.16171 c -0.55665,-0.17978 -0.68193,-0.49244 -1.14529,-0.62531 -1.13222,-0.32467 -2.10886,-0.62498 -3.17632,-0.62718 -0.54681,-0.001 -1.02416,-0.0154 -1.63517,0.0938 -0.54785,0.0979 -1.22154,0.31338 -1.84473,0.42214 l -2.58691,0.67411 -3.85322,1.67502 -3.96282,1.75531 -4.57429,2.10838 -3.16665,1.79652 -7.41503,5.571 c -1.66845,1.98054 -4.13785,3.71567 -6.26862,5.75329 -3.21728,3.07663 -6.22255,6.44288 -8.98067,9.20783 l -1.01788,0.0144 -4.28599,-4.00428 -4.41845,-5.01455 -6.85551,-6.00092 -7.41502,-5.571 -7.74094,-3.9049 -4.09542,-1.5785 -3.98584,-1.58662 -2.3217,-0.93932 -1.69375,-0.40611 -1.14132,-0.0887 -2.83868,0.14241 -0.8417,0.19234 -0.69292,0.31961 -0.76993,0.48857 -0.5356,0.54375 -0.71617,1.03278 -0.20655,0.79594 0.0321,1.02918 0.19933,1.11432 0.19016,1.0631 4.92533,7.87715 4.36077,7.51128 2.71504,5.59899 1.38038,5.06931 0.84929,1.48685 1.697,1.37629 5.88572,2.3584 -2.85411,2.75001 -2.0111,2.80265 -0.86059,2.44197 -0.4522,3.67682 0.318,4.41041 0.81937,2.49454 1.71116,2.37597 3.66539,2.62646 0.17807,0.0348 1.73589,0.46404"
         id="path86"
         sodipodi:nodetypes="ccccccccccccccccssscccccccsccccccccccccccccccccccccccccccccccccccc" /><circle
         style="fill:#ffbc00;fill-opacity:1;stroke:none;stroke-width:0.445715;stroke-linecap:round;stroke-linejoin:round;stroke-dasharray:none;stroke-opacity:1"
         id="path88"
         cx="48.269943"
         cy="44.965137"
         r="1.6583637" /><circle
         style="fill:#ffbc00;fill-opacity:1;stroke:none;stroke-width:0.445715;stroke-linecap:round;stroke-linejoin:round;stroke-dasharray:none;stroke-opacity:1"
         id="circle88"
         cx="33.946625"
         cy="44.965137"
         r="1.6583637" /><circle
         style="fill:#ffbc00;fill-opacity:1;stroke:none;stroke-width:0.445715;stroke-linecap:round;stroke-linejoin:round;stroke-dasharray:none;stroke-opacity:1"
         id="circle89"
         cx="62.593262"
         cy="44.965137"
         r="1.6583637" /><circle
         style="fill:#ffbc00;fill-opacity:1;stroke:none;stroke-width:0.445715;stroke-linecap:round;stroke-linejoin:round;stroke-dasharray:none;stroke-opacity:1"
         id="circle90"
         cx="52.320297"
         cy="145.43773"
         r="1.6583637" /><circle
         style="fill:#ffbc00;fill-opacity:1;stroke:none;stroke-width:0.445715;stroke-linecap:round;stroke-linejoin:round;stroke-dasharray:none;stroke-opacity:1"
         id="circle91"
         cx="37.996979"
         cy="145.43773"
         r="1.6583637" /><circle
         style="fill:#ffbc00;fill-opacity:1;stroke:none;stroke-width:0.445715;stroke-linecap:round;stroke-linejoin:round;stroke-dasharray:none;stroke-opacity:1"
         id="circle92"
         cx="66.643616"
         cy="145.43773"
         r="1.6583637" /></g></g></svg>
