<?xml version="1.0" encoding="UTF-8" standalone="no"?>
<!-- Created with Inkscape (http://www.inkscape.org/) -->

<svg
   width="297mm"
   height="210mm"
   viewBox="0 0 297 210"
   version="1.1"
   id="svg1"
   inkscape:version="1.3.2 (091e20e, 2023-11-25, custom)"
   sodipodi:docname="logopattern.svg"
   xmlns:inkscape="http://www.inkscape.org/namespaces/inkscape"
   xmlns:sodipodi="http://sodipodi.sourceforge.net/DTD/sodipodi-0.dtd"
   xmlns:xlink="http://www.w3.org/1999/xlink"
   xmlns="http://www.w3.org/2000/svg"
   xmlns:svg="http://www.w3.org/2000/svg">
  <sodipodi:namedview
     id="namedview1"
     pagecolor="#ffffff"
     bordercolor="#000000"
     borderopacity="0.25"
     inkscape:showpageshadow="2"
     inkscape:pageopacity="0.0"
     inkscape:pagecheckerboard="0"
     inkscape:deskcolor="#d1d1d1"
     inkscape:document-units="mm"
     inkscape:zoom="0.62092452"
     inkscape:cx="235.13325"
     inkscape:cy="377.66265"
     inkscape:window-width="1920"
     inkscape:window-height="991"
     inkscape:window-x="-9"
     inkscape:window-y="-9"
     inkscape:window-maximized="1"
     inkscape:current-layer="layer1" />
  <defs
     id="defs1">
    <pattern
       inkscape:collect="always"
       xlink:href="#pattern42"
       preserveAspectRatio="xMidYMid"
       id="pattern43"
       patternTransform="matrix(0.11,0,0,0.11,-366.34436,70.809153)"
       x="0"
       y="0" />
    <pattern
       patternUnits="userSpaceOnUse"
       width="509.14924"
       height="174.2858"
       patternTransform="translate(-763.45634,148.01252)"
       preserveAspectRatio="xMidYMid"
       id="pattern2"
       inkscape:label="stroke"
       style="fill:#000000">
      <g
         id="g15"
         transform="matrix(2.4923824,0,0,2.4923824,-53.701593,-264.11682)">
        <g
           id="g7"
           transform="translate(-19.594103,11.919308)"
           style="fill:#ffbc2f;fill-opacity:1;stroke:none;stroke-width:4;stroke-dasharray:none;stroke-opacity:1">
          <path
             style="opacity:1;fill:#ffbc2f;fill-opacity:1;stroke:none;stroke-width:4;stroke-linecap:round;stroke-linejoin:round;stroke-dasharray:none;stroke-opacity:1;paint-order:markers fill stroke"
             d="m 90.970819,149.99023 -23.318939,0.0987 c 0,0 -8.05159,1.40282 -8.92965,-8.92965 -0.657063,-7.73191 3.660159,-9.32337 3.660159,-9.32337 0,0 -7.527632,-3.87432 -8.711547,-7.22875 -1.183915,-3.35443 -0.789276,-6.1169 -2.565151,-7.89277 -1.775873,-1.77587 -8.836739,-15.30568 -8.836739,-15.30568 0,0 -1.029224,-0.8745 -1.127885,-5.018206 -0.09866,-4.143703 10.655242,-0.295979 10.655242,-0.295979 0,0 13.812348,5.426285 18.054714,9.175345 4.242364,3.74907 16.32817,16.32817 16.32817,16.32817"
             id="path6"
             sodipodi:nodetypes="ccscsscscsc" />
          <path
             style="opacity:1;fill:#ffbc2f;fill-opacity:1;stroke:none;stroke-width:4;stroke-linecap:round;stroke-linejoin:round;stroke-dasharray:none;stroke-opacity:1;paint-order:markers fill stroke"
             d="m 86.48127,121.79532 c 0,0 12.0858,-12.5791 16.32817,-16.32817 4.24236,-3.74906 18.05471,-9.175345 18.05471,-9.175345 0,0 10.75394,-3.847724 10.65524,0.295979 -0.0987,4.143706 -1.12788,5.018206 -1.12788,5.018206 0,0 -7.06087,13.52981 -8.83674,15.30568 -1.77588,1.77587 -1.38124,5.72226 -2.56515,9.07669 -1.18392,3.35443 -6.75819,6.62978 -6.75819,6.62978 0,19.53244 0.0919,17.46758 -0.19493,17.47075 l -8.93772,0.0987 v 13.29147 L 91.654803,149.96265"
             id="path7"
             sodipodi:nodetypes="ccscssccsccc" />
        </g>
        <path
           style="opacity:1;fill:#ffbc2f;fill-opacity:1;stroke:none;stroke-width:0;stroke-linecap:round;stroke-linejoin:round;stroke-dasharray:none;stroke-opacity:1;paint-order:markers fill stroke"
           id="path9"
           d="m 69.791158,151.85649 c -0.299696,0.67519 -0.398272,1.40802 -0.434842,2.14045 -0.03533,0.70752 -0.02011,1.35321 0.109035,2.04934 0.04373,0.23577 0.129394,0.4618 0.194093,0.69271 0.509288,-0.1198 0.925787,-0.15345 1.229206,-0.77835 0.194953,-0.40151 0.141796,-0.88369 0.157054,-1.32976 0.03906,-1.1419 -0.07754,-2.22122 -0.326252,-3.33521 -0.104291,-0.46712 -0.271532,-0.91792 -0.4073,-1.37688 -0.147487,-0.30996 -0.246012,-0.6484 -0.442465,-0.92988 -0.340686,-0.48815 -0.874022,-0.47734 -1.295376,0.0714 -0.206815,0.26932 -0.187987,0.65661 -0.219999,0.99467 -0.120094,1.26827 0.03731,1.89478 0.200036,3.17605 0.242514,0.98119 0.395486,1.95383 0.915199,2.84071 0.145838,0.24886 0.319614,0.52012 0.581647,0.64071 0.283458,0.13046 0.674147,0.2292 0.934376,0.057 0.570317,-0.37736 0.672351,-1.97857 0.744339,-2.4354 -0.06886,-1.30737 -0.01283,-1.75098 -0.377198,-2.99646 -0.103759,-0.35467 -0.216998,-0.71762 -0.421688,-1.02529 -0.408157,-0.61351 -1.044953,-0.46922 -1.516269,0.13906 -0.269293,0.34755 -0.254,0.84185 -0.381,1.26278 -0.04816,0.57923 -0.135919,1.15651 -0.144489,1.73767 -0.01688,1.14394 0.128762,2.63566 0.370285,3.75697 0.167793,0.77902 0.467217,1.77959 0.937045,2.4684 0.119857,0.17572 0.310235,0.29108 0.465352,0.43661 0.252421,0.0281 0.504841,0.0562 0.757259,0.0843 0.03451,-0.024 -0.303985,-0.51197 -0.338495,-0.48804 v 0 c 0.205274,0.0493 0.410551,0.0986 0.615826,0.14792 0.06651,-0.15294 0.164983,-0.29566 0.199525,-0.45882 0.158395,-0.74818 0.127473,-1.77087 0.07494,-2.49194 -0.04391,-0.6027 -0.117718,-1.20327 -0.204083,-1.80137 -0.275667,-1.90898 -0.285533,-1.72383 -0.796626,-3.51075 -0.184883,-0.36955 -0.252003,-0.8273 -0.554646,-1.10864 -0.457066,-0.4249 -1.098368,-0.55357 -1.236636,0.0991 -0.07197,0.33975 -0.05223,0.69427 -0.03667,1.04121 0.05649,1.2593 0.199816,1.64201 0.475231,2.88982 0.165685,0.41524 0.264451,0.86392 0.497057,1.24572 0.12978,0.21302 0.913765,0.81178 1.244407,0.59183 0.198516,-0.13206 0.135093,-0.46321 0.139297,-0.7016 0.01794,-1.0173 -0.228462,-1.88261 -0.433847,-2.87722 -0.385559,-1.23859 -0.505789,-1.84288 -1.102061,-2.96971 -0.156713,-0.29615 -0.278982,-0.65136 -0.558949,-0.83544 -0.535633,-0.35217 -1.054168,-0.30315 -1.200644,0.27993 -0.08122,0.32331 -0.05456,0.66448 -0.08184,0.99672 0.03039,0.47044 0.03141,0.94371 0.09118,1.41133 0.143214,1.12064 0.392793,2.17489 0.780063,3.23664 0.366615,1.00511 0.509064,1.54043 1.576991,1.95007 0.144703,0.0555 0.292222,-0.10337 0.438335,-0.15505 0.04442,-0.2359 0.110797,-0.46871 0.133266,-0.70771 0.06659,-0.70841 0.0217,-1.35661 -0.08531,-2.06058 -0.104809,-0.68953 -0.207653,-1.08762 -0.464865,-1.70985 -0.05108,-0.12358 -0.124314,-0.23679 -0.18647,-0.35518 0,-0.0434 -0.613027,-0.0434 -0.613027,0 z" />
        <path
           style="opacity:1;fill:#ffbc2f;fill-opacity:1;stroke:none;stroke-width:0;stroke-linecap:round;stroke-linejoin:round;stroke-dasharray:none;stroke-opacity:1;paint-order:markers fill stroke"
           id="path10"
           d="m 70.939611,158.82237 c -0.05153,0.15885 -0.06527,0.33398 -0.04351,0.49982 0.0049,0.0373 0.01516,0.0738 0.02275,0.11068 0.0209,0.11286 0.05675,0.22314 0.109953,0.32508 0.03332,0.0638 0.07814,0.12259 0.120325,0.18071 0.006,0.007 0.01339,0.0135 0.01783,0.0218 0.0056,0.0105 0.008,0.0224 0.01188,0.0336 0.01402,0.0409 0.02646,0.0823 0.0413,0.1229 0.0266,0.0727 0.0312,0.0776 0.06635,0.15186 0.07212,0.11552 0.113681,0.24559 0.177964,0.3648 -0.04662,-0.0215 0.02307,0.0384 0.02516,0.0264 0.0042,-0.024 7.93e-4,-0.0491 0.005,-0.0731 0.0056,-0.0311 0.02529,-0.0599 0.02445,-0.0915 -5.29e-4,-0.0213 -0.0471,0.004 -0.08781,0.0216 -0.173291,0.0754 -0.310949,0.21998 -0.362561,0.40397 -0.0076,0.0271 -0.0088,0.0557 -0.01323,0.0835 0.0013,0.008 2.1e-5,0.0293 0.0042,0.0228 0.01815,-0.0284 0.02339,-0.0637 0.04047,-0.0927 0.01296,-0.022 0.03811,-0.036 0.0488,-0.0592 0.0028,-0.006 -0.0096,-0.011 -0.01614,-0.0118 -0.03441,-0.004 -0.08223,0.0124 -0.112765,0.0204 -0.02418,0.0129 -0.05115,0.0215 -0.07254,0.0386 -0.170273,0.1362 -0.184989,0.29875 -0.137869,0.49444 0.03608,0.11198 0.0863,0.21705 0.168979,0.30203 0.07194,0.07 0.154805,0.11714 0.25342,0.13635 0.02188,0.004 0.04392,0.009 0.06619,0.009 0.06503,2.4e-4 0.129939,-0.006 0.19491,-0.008 0.0605,2.4e-4 0.119348,-0.0324 0.179806,-0.0283 -0.253839,-0.003 -0.03787,0.005 0.01976,0.0116 0.01172,7.9e-4 0.02342,0.002 0.03514,0.002 0.0578,0.001 0.115612,0.002 0.173424,0.003 0.05101,7.9e-4 0.09968,-0.005 0.150394,0.001 0.01675,0.002 0.03348,0.003 0.05021,0.005 0.02016,0.002 0.04023,0.005 0.06044,0.006 0.02011,0.001 0.0677,-0.018 0.06039,7.9e-4 -0.008,0.0206 -0.08296,-10e-4 -0.06525,0.0118 0.0236,0.0176 0.05878,0.004 0.08818,0.005 0.03214,0.002 0.06429,0.003 0.09644,0.005 0.167796,0.002 0.333473,0.008 0.486172,-0.0702 0.0694,-0.0354 0.134821,-0.09 0.184946,-0.14924 0.02712,-0.032 0.04808,-0.0688 0.07212,-0.10326 0.01937,-0.0359 -0.488109,-0.30998 -0.507492,-0.2741 v 0 c 0.0013,0.002 5.29e-4,-0.005 -0.02619,-0.006 -0.01519,-5.3e-4 -0.03038,2.6e-4 -0.04557,5.3e-4 -0.02498,2.5e-4 -0.0512,-0.007 -0.07495,7.9e-4 -0.02074,0.007 0.04361,0.002 0.06542,0.002 -0.195448,0.009 -0.391374,0.0147 -0.586031,0.0333 -0.03816,0.006 -0.071,0.004 -0.109284,0.004 -0.01183,-4e-5 -0.04733,-1.9e-4 -0.03551,5.3e-4 0.08594,0.004 0.141661,0.001 0.07162,0.004 -0.10188,0.009 -0.204523,-0.0206 -0.306562,-0.002 -0.06924,0.004 -0.138433,0.008 -0.2076,0.0135 0.277122,-0.005 0.0858,-0.0233 0.07803,0.0249 -0.0013,0.009 0.0032,0.0172 0.0026,0.0259 -0.0049,-0.004 -0.0098,-0.009 -0.01469,-0.013 -5.29e-4,0.004 0.0027,0.014 -0.0013,0.0126 -0.01691,-0.006 -0.02432,-0.0689 -0.02945,-0.0849 -0.0067,-0.0228 -0.01222,-0.0454 -0.01714,-0.0445 -0.0078,0.002 -0.0094,0.0129 -0.0136,0.0196 -0.01286,0.0205 -0.02268,0.043 -0.03768,0.062 -0.01352,0.0171 -0.03271,0.0289 -0.04719,0.0452 -0.0024,0.003 -0.0016,0.007 -0.0024,0.0105 0.09133,8e-4 0.185849,-0.0307 0.252055,-0.0973 0.04422,-0.0444 0.06368,-0.10863 0.103683,-0.15691 0.04096,-0.0193 0.06881,-0.0612 0.102311,-0.0904 0.01664,-0.0145 0.03443,-0.0277 0.05176,-0.0413 0.0217,-0.0171 0.04358,-0.0341 0.06536,-0.0511 0.03014,-0.0254 0.09466,-0.077 0.115959,-0.10793 0.09565,-0.13902 0.107958,-0.22523 0.08281,-0.38285 -0.0058,-0.0229 -0.01042,-0.0462 -0.01754,-0.0688 -0.03927,-0.12485 -0.111506,-0.23529 -0.161952,-0.35531 -0.07461,-0.13356 0.01476,0.0288 -0.06498,-0.12473 -0.03894,-0.075 -0.09005,-0.14372 -0.11562,-0.2252 -0.02196,-0.0481 -0.03953,-0.0975 -0.06022,-0.14604 -0.02416,-0.0567 -0.05488,-0.11106 -0.06749,-0.1722 0.003,-0.18384 0.01048,-0.37373 -0.05085,-0.54978 0,-0.0379 -0.535964,-0.0379 -0.535964,0 z" />
        <path
           style="opacity:1;fill:#ffbc2f;fill-opacity:1;stroke:none;stroke-width:0;stroke-linecap:round;stroke-linejoin:round;stroke-dasharray:none;stroke-opacity:1;paint-order:markers fill stroke"
           id="path11"
           d="m 70.334001,160.60597 c 0.01233,0.0278 0.02093,0.0576 0.03699,0.0835 0.236391,0.38022 0.684543,0.58073 1.101312,0.68777 0.160213,0.0412 0.325826,0.0573 0.488738,0.086 0.31324,-0.005 0.734886,0.0106 1.02919,-0.10206 0.29846,-0.11428 0.299518,-0.53367 0.225263,-0.76966 -0.0968,-0.30762 -0.583316,-0.57829 -0.80319,-0.73145 -0.202705,-0.0881 -0.39909,-0.19251 -0.608111,-0.26438 -0.372448,-0.12806 -0.787079,-0.21212 -1.183917,-0.20031 -0.145516,0.004 -0.293886,0.0212 -0.431142,0.0697 -0.17372,0.0614 -0.384608,0.10475 -0.489952,0.25592 -0.101201,0.14522 -0.03756,0.35201 -0.05635,0.52801 0.08776,0.13895 0.151268,0.2966 0.263282,0.41686 0.281207,0.30191 0.673684,0.50023 1.059135,0.62531 0.375316,0.12178 0.769855,0.17267 1.163007,0.13556 0.214599,-0.0203 0.424276,-0.0764 0.636416,-0.11464 0.0757,-0.0841 0.193582,-0.14426 0.227121,-0.25235 0.05153,-0.16608 0.06398,-0.35526 0.01299,-0.52151 -0.04201,-0.13698 -0.165727,-0.23746 -0.274384,-0.33085 -0.183044,-0.15733 -0.487613,-0.27286 -0.719751,-0.32318 -0.113432,-0.0246 -0.230809,-0.0248 -0.346215,-0.0372 -0.194022,0.0223 -0.487789,0.0366 -0.648679,0.15646 -0.07935,0.0591 -0.125336,0.1622 -0.144592,0.25926 -0.03301,0.16635 0.03645,0.32102 0.12746,0.44923 0.03049,0.043 0.0705,0.0783 0.105749,0.1174 0.04659,-0.0305 0.09167,0.12018 0.150915,0.10473 0.01347,-0.004 -0.0039,-0.0277 -0.0036,-0.0416 0.0013,-0.0646 -0.0031,-0.13019 0.0088,-0.19374 0.0061,-0.0325 0.04482,-0.0559 0.04388,-0.089 -5.29e-4,-0.0162 -0.03121,-0.009 -0.04681,-0.0134 -0.02585,0.003 -0.05216,0.002 -0.07752,0.008 -0.163098,0.0356 -0.301681,0.14537 -0.358831,0.30543 -0.01638,0.0459 -0.01767,0.0958 -0.02652,0.14376 0.0034,0.0406 0.0027,0.0817 0.01011,0.12172 0.02671,0.14418 0.112384,0.2693 0.23187,0.35162 -0.08559,-0.069 0.07532,0.0615 0.06605,0.0379 -0.0072,-0.0184 -0.02477,-0.0308 -0.03485,-0.0478 -0.01175,-0.0197 -0.01722,-0.0429 -0.0304,-0.0617 -0.004,-0.006 -4.5e-5,0.0142 0.0019,0.021 0.0053,0.0196 0.0131,0.0386 0.01963,0.0579 0.04875,0.11509 0.139766,0.19238 0.250844,0.24416 0.06962,0.032 0.145248,0.0438 0.220004,0.0576 0.118967,0.0245 0.241125,-0.003 0.361129,0.009 0.04282,-0.002 0.195289,0.007 -0.01328,5.3e-4 -0.01278,-5.3e-4 0.02553,-0.002 0.03833,-0.002 0.0069,2.3e-4 0.101261,0.0114 0.101769,0.0115 0.09096,0.0142 0.182425,0.009 0.273688,0.004 0.213415,-0.0104 0.127286,0.007 0.226129,-0.0156 0.126515,-0.0169 0.203686,-0.0872 0.257749,-0.2201 0.02035,-0.05 0.0016,-0.1079 0.0026,-0.16185 -0.0084,-0.0376 -0.539526,0.0813 -0.531122,0.11885 v 0 c 0.03259,-0.13858 0.0074,-0.0957 0.145899,-0.233 0.01116,-0.0111 0.03255,-0.01 0.0414,-0.0227 0.01011,-0.0148 -0.07058,0.0102 -0.05333,-0.008 -0.09085,-0.0188 0.0039,0.005 0.0541,-0.0152 0.01887,-0.007 -0.04035,-0.004 -0.0606,-0.005 -0.03789,-0.002 -0.104495,-5.3e-4 -0.142126,0.002 -0.02289,0.001 -0.0457,0.004 -0.06856,0.006 -0.0063,5.3e-4 -0.09601,0.009 -0.107412,0.009 -0.01355,1.8e-4 -0.02703,-0.003 -0.04059,-0.003 -0.09151,-0.001 -0.184089,-0.002 -0.275672,0.003 -0.03803,0.006 -0.07631,0.0102 -0.114657,0.013 -0.0084,5.3e-4 -0.03353,2.6e-4 -0.02514,5.3e-4 0.115052,0.003 0.146312,-0.0154 0.100103,0.008 -0.02694,0.008 -0.04829,-0.008 -0.07462,-0.0116 -0.0021,-2.6e-4 -0.0019,0.004 -0.0038,0.005 -0.0041,10e-4 -0.0084,-5.3e-4 -0.01257,-5.3e-4 -0.0076,-0.003 -0.01479,-0.007 -0.02281,-0.008 -0.0026,-2.7e-4 -0.0036,0.004 -0.0061,0.005 -0.0049,2.6e-4 -0.0098,-0.005 -0.01431,-0.003 -0.0031,0.001 5.3e-4,0.007 -0.0019,0.01 -0.0149,0.016 -0.005,-0.0216 -0.01053,0.0135 -2.38e-4,0.005 0.0031,0.0166 -7.94e-4,0.0139 -0.0064,-0.005 -0.0067,-0.0142 -0.0098,-0.0215 -0.0131,-0.0305 -0.02265,-0.0628 -0.0388,-0.0918 -0.0132,-0.0238 -0.03224,-0.0438 -0.04862,-0.0655 -0.0094,-0.0124 -0.01651,-0.0189 -0.0085,-0.0114 -0.01347,-0.0162 -0.05986,-0.0735 -0.0761,-0.0778 -0.0037,-0.001 -0.0071,0.003 -0.01066,0.004 -0.0019,0.004 -0.0447,0.075 -0.03755,0.076 0.01132,0.002 0.02262,-0.003 0.03387,-0.005 0.07534,-0.0138 0.05693,-0.0109 0.142094,-0.0336 0.08475,-0.0382 0.185277,-0.0721 0.231651,-0.16521 0.07858,-0.15781 0.05952,-0.32389 -0.0364,-0.46159 -0.01982,-0.0285 -0.04556,-0.0523 -0.06835,-0.0785 -0.02627,-0.0227 -0.05042,-0.048 -0.07878,-0.068 -0.02037,-0.0144 -0.04615,-0.0488 -0.06647,-0.0343 -0.0339,0.0241 -0.02641,0.0796 -0.04752,0.11542 -0.0259,0.044 -0.05098,0.0923 -0.09239,0.12219 -0.04041,0.0291 -0.14106,-0.003 -0.141952,0.0469 -7.94e-4,0.0481 0.09369,0.0215 0.140536,0.0322 0.180144,0.045 0.358868,0.0959 0.54002,0.13673 0.0762,0.0171 0.389419,0.11224 0.496803,0.0216 0.07502,-0.0634 0.118414,-0.16105 0.1481,-0.25465 0.0088,-0.0277 -0.02893,-0.0503 -0.0434,-0.0755 -0.01307,-0.19317 0.01476,-0.0582 -0.402762,-0.14384 -0.364712,-0.0748 -0.692264,-0.13733 -1.06008,-0.19834 -0.148923,-0.0247 -0.297534,-0.0529 -0.447717,-0.0682 -0.08144,-0.008 -0.163706,-0.002 -0.245557,-0.002 -0.05561,0.0676 -0.09776,0.14898 -0.166839,0.2027 -0.05591,0.0435 -0.214132,0.0114 -0.196815,0.0801 0.02008,0.0797 0.156892,0.0489 0.235431,0.0731 0.517592,0.15916 1.037331,0.31314 1.569197,0.41852 0.01516,0.003 0.709797,0.15721 0.838782,0.0748 0.385103,-0.24589 0.216439,-0.24576 0.109974,-0.36408 -0.01082,-0.012 -0.0084,-0.0389 -0.02426,-0.0421 -0.119292,-0.0238 -0.242146,-0.0234 -0.36322,-0.0351 -0.192569,-0.0106 -0.648044,-0.0362 -0.845671,-0.0456 -0.107218,-0.005 -0.214456,-0.01 -0.321744,-0.0133 -0.06326,-0.002 -0.127286,0.007 -0.189847,-0.002 -0.0542,-0.008 -0.11816,-0.0613 -0.160647,-0.0919 -0.02082,-0.0336 -0.495477,0.26091 -0.474654,0.29447 z" />
        <rect
           style="opacity:1;fill:#ffbc2f;fill-opacity:1;stroke:#ffbc2f;stroke-width:0;stroke-linecap:square;stroke-linejoin:miter;stroke-dasharray:none;stroke-opacity:1;paint-order:stroke markers fill"
           id="rect12"
           width="1.9546918"
           height="1.0420886"
           x="70.614288"
           y="160.87183"
           rx="0"
           ry="0" />
        <rect
           style="opacity:1;fill:#ffbc2f;fill-opacity:1;stroke:#ffbc2f;stroke-width:0;stroke-linecap:square;stroke-linejoin:miter;stroke-dasharray:none;stroke-opacity:1;paint-order:stroke markers fill"
           id="rect13"
           width="11.615522"
           height="16.84774"
           x="63.972576"
           y="134.67728" />
        <rect
           style="opacity:1;fill:#ffbc2f;fill-opacity:1;stroke:#ffbc2f;stroke-width:0;stroke-linecap:square;stroke-linejoin:miter;stroke-dasharray:none;stroke-opacity:1;paint-order:stroke markers fill"
           id="rect15"
           width="1.627884"
           height="1.5415568"
           x="66.126625"
           y="133.50499" />
      </g>
      <g
         id="g3"
         transform="matrix(2.3867541,0,0,2.3867541,190.47029,-220.6712)"
         style="stroke-width:4;stroke-dasharray:none"
         inkscape:label="stroke">
        <path
           style="opacity:1;fill:none;stroke:#ffbc2f;stroke-width:4;stroke-linecap:round;stroke-linejoin:round;stroke-dasharray:none;paint-order:markers fill stroke"
           d="m 90.970819,149.99023 -23.318939,0.0987 c 0,0 -8.05159,1.40282 -8.92965,-8.92965 -0.657063,-7.73191 3.660159,-9.32337 3.660159,-9.32337 0,0 -7.527632,-3.87432 -8.711547,-7.22875 -1.183915,-3.35443 -0.789276,-6.1169 -2.565151,-7.89277 -1.775873,-1.77587 -8.836739,-15.30568 -8.836739,-15.30568 0,0 -1.029224,-0.8745 -1.127885,-5.018206 -0.09866,-4.143703 10.655242,-0.295979 10.655242,-0.295979 0,0 13.812348,5.426285 18.054714,9.175345 4.242364,3.74907 16.32817,16.32817 16.32817,16.32817"
           id="path2"
           sodipodi:nodetypes="ccscsscscsc" />
        <path
           style="opacity:1;fill:none;stroke:#ffbc2f;stroke-width:4;stroke-linecap:round;stroke-linejoin:round;stroke-dasharray:none;paint-order:markers fill stroke"
           d="m 86.48127,121.79532 c 0,0 12.0858,-12.5791 16.32817,-16.32817 4.24236,-3.74906 18.05471,-9.175345 18.05471,-9.175345 0,0 10.75394,-3.847724 10.65524,0.295979 -0.0987,4.143706 -1.12788,5.018206 -1.12788,5.018206 0,0 -7.06087,13.52981 -8.83674,15.30568 -1.77588,1.77587 -1.38124,5.72226 -2.56515,9.07669 -1.18392,3.35443 -6.75819,6.62978 -6.75819,6.62978 0,19.53244 0.0919,17.46758 -0.19493,17.47075 l -8.93772,0.0987 v 13.29147 L 91.654803,149.96265"
           id="path3"
           sodipodi:nodetypes="ccscssccsccc" />
      </g>
    </pattern>
    <pattern
       patternUnits="userSpaceOnUse"
       width="560.95849"
       height="460.11236"
       patternTransform="translate(-698.79221,70.809153)"
       preserveAspectRatio="xMidYMid"
       id="pattern26"
       inkscape:label="stroke"
       style="fill:#000000">
      <g
         id="g17"
         transform="matrix(2.4923824,0,0,2.4923824,-46.661018,-264.96307)">
        <g
           id="g5"
           transform="translate(-19.594103,11.919308)"
           style="fill:#ffbc2f;fill-opacity:1;stroke:none;stroke-width:4;stroke-dasharray:none;stroke-opacity:1">
          <path
             style="opacity:1;fill:#ffbc2f;fill-opacity:1;stroke:none;stroke-width:4;stroke-linecap:round;stroke-linejoin:round;stroke-dasharray:none;stroke-opacity:1;paint-order:markers fill stroke"
             d="m 90.970819,149.99023 -23.318939,0.0987 c 0,0 -8.05159,1.40282 -8.92965,-8.92965 -0.657063,-7.73191 3.660159,-9.32337 3.660159,-9.32337 0,0 -7.527632,-3.87432 -8.711547,-7.22875 -1.183915,-3.35443 -0.789276,-6.1169 -2.565151,-7.89277 -1.775873,-1.77587 -8.836739,-15.30568 -8.836739,-15.30568 0,0 -1.029224,-0.8745 -1.127885,-5.018206 -0.09866,-4.143703 10.655242,-0.295979 10.655242,-0.295979 0,0 13.812348,5.426285 18.054714,9.175345 4.242364,3.74907 16.32817,16.32817 16.32817,16.32817"
             id="path4"
             sodipodi:nodetypes="ccscsscscsc" />
          <path
             style="opacity:1;fill:#ffbc2f;fill-opacity:1;stroke:none;stroke-width:4;stroke-linecap:round;stroke-linejoin:round;stroke-dasharray:none;stroke-opacity:1;paint-order:markers fill stroke"
             d="m 86.48127,121.79532 c 0,0 12.0858,-12.5791 16.32817,-16.32817 4.24236,-3.74906 18.05471,-9.175345 18.05471,-9.175345 0,0 10.75394,-3.847724 10.65524,0.295979 -0.0987,4.143706 -1.12788,5.018206 -1.12788,5.018206 0,0 -7.06087,13.52981 -8.83674,15.30568 -1.77588,1.77587 -1.38124,5.72226 -2.56515,9.07669 -1.18392,3.35443 -6.75819,6.62978 -6.75819,6.62978 0,19.53244 0.0919,17.46758 -0.19493,17.47075 l -8.93772,0.0987 v 13.29147 L 91.654803,149.96265"
             id="path5"
             sodipodi:nodetypes="ccscssccsccc" />
        </g>
        <path
           style="opacity:1;fill:#ffbc2f;fill-opacity:1;stroke:none;stroke-width:0;stroke-linecap:round;stroke-linejoin:round;stroke-dasharray:none;stroke-opacity:1;paint-order:markers fill stroke"
           id="path8"
           d="m 69.791158,151.85649 c -0.299696,0.67519 -0.398272,1.40802 -0.434842,2.14045 -0.03533,0.70752 -0.02011,1.35321 0.109035,2.04934 0.04373,0.23577 0.129394,0.4618 0.194093,0.69271 0.509288,-0.1198 0.925787,-0.15345 1.229206,-0.77835 0.194953,-0.40151 0.141796,-0.88369 0.157054,-1.32976 0.03906,-1.1419 -0.07754,-2.22122 -0.326252,-3.33521 -0.104291,-0.46712 -0.271532,-0.91792 -0.4073,-1.37688 -0.147487,-0.30996 -0.246012,-0.6484 -0.442465,-0.92988 -0.340686,-0.48815 -0.874022,-0.47734 -1.295376,0.0714 -0.206815,0.26932 -0.187987,0.65661 -0.219999,0.99467 -0.120094,1.26827 0.03731,1.89478 0.200036,3.17605 0.242514,0.98119 0.395486,1.95383 0.915199,2.84071 0.145838,0.24886 0.319614,0.52012 0.581647,0.64071 0.283458,0.13046 0.674147,0.2292 0.934376,0.057 0.570317,-0.37736 0.672351,-1.97857 0.744339,-2.4354 -0.06886,-1.30737 -0.01283,-1.75098 -0.377198,-2.99646 -0.103759,-0.35467 -0.216998,-0.71762 -0.421688,-1.02529 -0.408157,-0.61351 -1.044953,-0.46922 -1.516269,0.13906 -0.269293,0.34755 -0.254,0.84185 -0.381,1.26278 -0.04816,0.57923 -0.135919,1.15651 -0.144489,1.73767 -0.01688,1.14394 0.128762,2.63566 0.370285,3.75697 0.167793,0.77902 0.467217,1.77959 0.937045,2.4684 0.119857,0.17572 0.310235,0.29108 0.465352,0.43661 0.252421,0.0281 0.504841,0.0562 0.757259,0.0843 0.03451,-0.024 -0.303985,-0.51197 -0.338495,-0.48804 v 0 c 0.205274,0.0493 0.410551,0.0986 0.615826,0.14792 0.06651,-0.15294 0.164983,-0.29566 0.199525,-0.45882 0.158395,-0.74818 0.127473,-1.77087 0.07494,-2.49194 -0.04391,-0.6027 -0.117718,-1.20327 -0.204083,-1.80137 -0.275667,-1.90898 -0.285533,-1.72383 -0.796626,-3.51075 -0.184883,-0.36955 -0.252003,-0.8273 -0.554646,-1.10864 -0.457066,-0.4249 -1.098368,-0.55357 -1.236636,0.0991 -0.07197,0.33975 -0.05223,0.69427 -0.03667,1.04121 0.05649,1.2593 0.199816,1.64201 0.475231,2.88982 0.165685,0.41524 0.264451,0.86392 0.497057,1.24572 0.12978,0.21302 0.913765,0.81178 1.244407,0.59183 0.198516,-0.13206 0.135093,-0.46321 0.139297,-0.7016 0.01794,-1.0173 -0.228462,-1.88261 -0.433847,-2.87722 -0.385559,-1.23859 -0.505789,-1.84288 -1.102061,-2.96971 -0.156713,-0.29615 -0.278982,-0.65136 -0.558949,-0.83544 -0.535633,-0.35217 -1.054168,-0.30315 -1.200644,0.27993 -0.08122,0.32331 -0.05456,0.66448 -0.08184,0.99672 0.03039,0.47044 0.03141,0.94371 0.09118,1.41133 0.143214,1.12064 0.392793,2.17489 0.780063,3.23664 0.366615,1.00511 0.509064,1.54043 1.576991,1.95007 0.144703,0.0555 0.292222,-0.10337 0.438335,-0.15505 0.04442,-0.2359 0.110797,-0.46871 0.133266,-0.70771 0.06659,-0.70841 0.0217,-1.35661 -0.08531,-2.06058 -0.104809,-0.68953 -0.207653,-1.08762 -0.464865,-1.70985 -0.05108,-0.12358 -0.124314,-0.23679 -0.18647,-0.35518 0,-0.0434 -0.613027,-0.0434 -0.613027,0 z" />
        <path
           style="opacity:1;fill:#ffbc2f;fill-opacity:1;stroke:none;stroke-width:0;stroke-linecap:round;stroke-linejoin:round;stroke-dasharray:none;stroke-opacity:1;paint-order:markers fill stroke"
           id="path12"
           d="m 70.939611,158.82237 c -0.05153,0.15885 -0.06527,0.33398 -0.04351,0.49982 0.0049,0.0373 0.01516,0.0738 0.02275,0.11068 0.0209,0.11286 0.05675,0.22314 0.109953,0.32508 0.03332,0.0638 0.07814,0.12259 0.120325,0.18071 0.006,0.007 0.01339,0.0135 0.01783,0.0218 0.0056,0.0105 0.008,0.0224 0.01188,0.0336 0.01402,0.0409 0.02646,0.0823 0.0413,0.1229 0.0266,0.0727 0.0312,0.0776 0.06635,0.15186 0.07212,0.11552 0.113681,0.24559 0.177964,0.3648 -0.04662,-0.0215 0.02307,0.0384 0.02516,0.0264 0.0042,-0.024 7.93e-4,-0.0491 0.005,-0.0731 0.0056,-0.0311 0.02529,-0.0599 0.02445,-0.0915 -5.29e-4,-0.0213 -0.0471,0.004 -0.08781,0.0216 -0.173291,0.0754 -0.310949,0.21998 -0.362561,0.40397 -0.0076,0.0271 -0.0088,0.0557 -0.01323,0.0835 0.0013,0.008 2.1e-5,0.0293 0.0042,0.0228 0.01815,-0.0284 0.02339,-0.0637 0.04047,-0.0927 0.01296,-0.022 0.03811,-0.036 0.0488,-0.0592 0.0028,-0.006 -0.0096,-0.011 -0.01614,-0.0118 -0.03441,-0.004 -0.08223,0.0124 -0.112765,0.0204 -0.02418,0.0129 -0.05115,0.0215 -0.07254,0.0386 -0.170273,0.1362 -0.184989,0.29875 -0.137869,0.49444 0.03608,0.11198 0.0863,0.21705 0.168979,0.30203 0.07194,0.07 0.154805,0.11714 0.25342,0.13635 0.02188,0.004 0.04392,0.009 0.06619,0.009 0.06503,2.4e-4 0.129939,-0.006 0.19491,-0.008 0.0605,2.4e-4 0.119348,-0.0324 0.179806,-0.0283 -0.253839,-0.003 -0.03787,0.005 0.01976,0.0116 0.01172,7.9e-4 0.02342,0.002 0.03514,0.002 0.0578,0.001 0.115612,0.002 0.173424,0.003 0.05101,7.9e-4 0.09968,-0.005 0.150394,0.001 0.01675,0.002 0.03348,0.003 0.05021,0.005 0.02016,0.002 0.04023,0.005 0.06044,0.006 0.02011,0.001 0.0677,-0.018 0.06039,7.9e-4 -0.008,0.0206 -0.08296,-10e-4 -0.06525,0.0118 0.0236,0.0176 0.05878,0.004 0.08818,0.005 0.03214,0.002 0.06429,0.003 0.09644,0.005 0.167796,0.002 0.333473,0.008 0.486172,-0.0702 0.0694,-0.0354 0.134821,-0.09 0.184946,-0.14924 0.02712,-0.032 0.04808,-0.0688 0.07212,-0.10326 0.01937,-0.0359 -0.488109,-0.30998 -0.507492,-0.2741 v 0 c 0.0013,0.002 5.29e-4,-0.005 -0.02619,-0.006 -0.01519,-5.3e-4 -0.03038,2.6e-4 -0.04557,5.3e-4 -0.02498,2.5e-4 -0.0512,-0.007 -0.07495,7.9e-4 -0.02074,0.007 0.04361,0.002 0.06542,0.002 -0.195448,0.009 -0.391374,0.0147 -0.586031,0.0333 -0.03816,0.006 -0.071,0.004 -0.109284,0.004 -0.01183,-4e-5 -0.04733,-1.9e-4 -0.03551,5.3e-4 0.08594,0.004 0.141661,0.001 0.07162,0.004 -0.10188,0.009 -0.204523,-0.0206 -0.306562,-0.002 -0.06924,0.004 -0.138433,0.008 -0.2076,0.0135 0.277122,-0.005 0.0858,-0.0233 0.07803,0.0249 -0.0013,0.009 0.0032,0.0172 0.0026,0.0259 -0.0049,-0.004 -0.0098,-0.009 -0.01469,-0.013 -5.29e-4,0.004 0.0027,0.014 -0.0013,0.0126 -0.01691,-0.006 -0.02432,-0.0689 -0.02945,-0.0849 -0.0067,-0.0228 -0.01222,-0.0454 -0.01714,-0.0445 -0.0078,0.002 -0.0094,0.0129 -0.0136,0.0196 -0.01286,0.0205 -0.02268,0.043 -0.03768,0.062 -0.01352,0.0171 -0.03271,0.0289 -0.04719,0.0452 -0.0024,0.003 -0.0016,0.007 -0.0024,0.0105 0.09133,8e-4 0.185849,-0.0307 0.252055,-0.0973 0.04422,-0.0444 0.06368,-0.10863 0.103683,-0.15691 0.04096,-0.0193 0.06881,-0.0612 0.102311,-0.0904 0.01664,-0.0145 0.03443,-0.0277 0.05176,-0.0413 0.0217,-0.0171 0.04358,-0.0341 0.06536,-0.0511 0.03014,-0.0254 0.09466,-0.077 0.115959,-0.10793 0.09565,-0.13902 0.107958,-0.22523 0.08281,-0.38285 -0.0058,-0.0229 -0.01042,-0.0462 -0.01754,-0.0688 -0.03927,-0.12485 -0.111506,-0.23529 -0.161952,-0.35531 -0.07461,-0.13356 0.01476,0.0288 -0.06498,-0.12473 -0.03894,-0.075 -0.09005,-0.14372 -0.11562,-0.2252 -0.02196,-0.0481 -0.03953,-0.0975 -0.06022,-0.14604 -0.02416,-0.0567 -0.05488,-0.11106 -0.06749,-0.1722 0.003,-0.18384 0.01048,-0.37373 -0.05085,-0.54978 0,-0.0379 -0.535964,-0.0379 -0.535964,0 z" />
        <path
           style="opacity:1;fill:#ffbc2f;fill-opacity:1;stroke:none;stroke-width:0;stroke-linecap:round;stroke-linejoin:round;stroke-dasharray:none;stroke-opacity:1;paint-order:markers fill stroke"
           id="path13"
           d="m 70.334001,160.60597 c 0.01233,0.0278 0.02093,0.0576 0.03699,0.0835 0.236391,0.38022 0.684543,0.58073 1.101312,0.68777 0.160213,0.0412 0.325826,0.0573 0.488738,0.086 0.31324,-0.005 0.734886,0.0106 1.02919,-0.10206 0.29846,-0.11428 0.299518,-0.53367 0.225263,-0.76966 -0.0968,-0.30762 -0.583316,-0.57829 -0.80319,-0.73145 -0.202705,-0.0881 -0.39909,-0.19251 -0.608111,-0.26438 -0.372448,-0.12806 -0.787079,-0.21212 -1.183917,-0.20031 -0.145516,0.004 -0.293886,0.0212 -0.431142,0.0697 -0.17372,0.0614 -0.384608,0.10475 -0.489952,0.25592 -0.101201,0.14522 -0.03756,0.35201 -0.05635,0.52801 0.08776,0.13895 0.151268,0.2966 0.263282,0.41686 0.281207,0.30191 0.673684,0.50023 1.059135,0.62531 0.375316,0.12178 0.769855,0.17267 1.163007,0.13556 0.214599,-0.0203 0.424276,-0.0764 0.636416,-0.11464 0.0757,-0.0841 0.193582,-0.14426 0.227121,-0.25235 0.05153,-0.16608 0.06398,-0.35526 0.01299,-0.52151 -0.04201,-0.13698 -0.165727,-0.23746 -0.274384,-0.33085 -0.183044,-0.15733 -0.487613,-0.27286 -0.719751,-0.32318 -0.113432,-0.0246 -0.230809,-0.0248 -0.346215,-0.0372 -0.194022,0.0223 -0.487789,0.0366 -0.648679,0.15646 -0.07935,0.0591 -0.125336,0.1622 -0.144592,0.25926 -0.03301,0.16635 0.03645,0.32102 0.12746,0.44923 0.03049,0.043 0.0705,0.0783 0.105749,0.1174 0.04659,-0.0305 0.09167,0.12018 0.150915,0.10473 0.01347,-0.004 -0.0039,-0.0277 -0.0036,-0.0416 0.0013,-0.0646 -0.0031,-0.13019 0.0088,-0.19374 0.0061,-0.0325 0.04482,-0.0559 0.04388,-0.089 -5.29e-4,-0.0162 -0.03121,-0.009 -0.04681,-0.0134 -0.02585,0.003 -0.05216,0.002 -0.07752,0.008 -0.163098,0.0356 -0.301681,0.14537 -0.358831,0.30543 -0.01638,0.0459 -0.01767,0.0958 -0.02652,0.14376 0.0034,0.0406 0.0027,0.0817 0.01011,0.12172 0.02671,0.14418 0.112384,0.2693 0.23187,0.35162 -0.08559,-0.069 0.07532,0.0615 0.06605,0.0379 -0.0072,-0.0184 -0.02477,-0.0308 -0.03485,-0.0478 -0.01175,-0.0197 -0.01722,-0.0429 -0.0304,-0.0617 -0.004,-0.006 -4.5e-5,0.0142 0.0019,0.021 0.0053,0.0196 0.0131,0.0386 0.01963,0.0579 0.04875,0.11509 0.139766,0.19238 0.250844,0.24416 0.06962,0.032 0.145248,0.0438 0.220004,0.0576 0.118967,0.0245 0.241125,-0.003 0.361129,0.009 0.04282,-0.002 0.195289,0.007 -0.01328,5.3e-4 -0.01278,-5.3e-4 0.02553,-0.002 0.03833,-0.002 0.0069,2.3e-4 0.101261,0.0114 0.101769,0.0115 0.09096,0.0142 0.182425,0.009 0.273688,0.004 0.213415,-0.0104 0.127286,0.007 0.226129,-0.0156 0.126515,-0.0169 0.203686,-0.0872 0.257749,-0.2201 0.02035,-0.05 0.0016,-0.1079 0.0026,-0.16185 -0.0084,-0.0376 -0.539526,0.0813 -0.531122,0.11885 v 0 c 0.03259,-0.13858 0.0074,-0.0957 0.145899,-0.233 0.01116,-0.0111 0.03255,-0.01 0.0414,-0.0227 0.01011,-0.0148 -0.07058,0.0102 -0.05333,-0.008 -0.09085,-0.0188 0.0039,0.005 0.0541,-0.0152 0.01887,-0.007 -0.04035,-0.004 -0.0606,-0.005 -0.03789,-0.002 -0.104495,-5.3e-4 -0.142126,0.002 -0.02289,0.001 -0.0457,0.004 -0.06856,0.006 -0.0063,5.3e-4 -0.09601,0.009 -0.107412,0.009 -0.01355,1.8e-4 -0.02703,-0.003 -0.04059,-0.003 -0.09151,-0.001 -0.184089,-0.002 -0.275672,0.003 -0.03803,0.006 -0.07631,0.0102 -0.114657,0.013 -0.0084,5.3e-4 -0.03353,2.6e-4 -0.02514,5.3e-4 0.115052,0.003 0.146312,-0.0154 0.100103,0.008 -0.02694,0.008 -0.04829,-0.008 -0.07462,-0.0116 -0.0021,-2.6e-4 -0.0019,0.004 -0.0038,0.005 -0.0041,10e-4 -0.0084,-5.3e-4 -0.01257,-5.3e-4 -0.0076,-0.003 -0.01479,-0.007 -0.02281,-0.008 -0.0026,-2.7e-4 -0.0036,0.004 -0.0061,0.005 -0.0049,2.6e-4 -0.0098,-0.005 -0.01431,-0.003 -0.0031,0.001 5.3e-4,0.007 -0.0019,0.01 -0.0149,0.016 -0.005,-0.0216 -0.01053,0.0135 -2.38e-4,0.005 0.0031,0.0166 -7.94e-4,0.0139 -0.0064,-0.005 -0.0067,-0.0142 -0.0098,-0.0215 -0.0131,-0.0305 -0.02265,-0.0628 -0.0388,-0.0918 -0.0132,-0.0238 -0.03224,-0.0438 -0.04862,-0.0655 -0.0094,-0.0124 -0.01651,-0.0189 -0.0085,-0.0114 -0.01347,-0.0162 -0.05986,-0.0735 -0.0761,-0.0778 -0.0037,-0.001 -0.0071,0.003 -0.01066,0.004 -0.0019,0.004 -0.0447,0.075 -0.03755,0.076 0.01132,0.002 0.02262,-0.003 0.03387,-0.005 0.07534,-0.0138 0.05693,-0.0109 0.142094,-0.0336 0.08475,-0.0382 0.185277,-0.0721 0.231651,-0.16521 0.07858,-0.15781 0.05952,-0.32389 -0.0364,-0.46159 -0.01982,-0.0285 -0.04556,-0.0523 -0.06835,-0.0785 -0.02627,-0.0227 -0.05042,-0.048 -0.07878,-0.068 -0.02037,-0.0144 -0.04615,-0.0488 -0.06647,-0.0343 -0.0339,0.0241 -0.02641,0.0796 -0.04752,0.11542 -0.0259,0.044 -0.05098,0.0923 -0.09239,0.12219 -0.04041,0.0291 -0.14106,-0.003 -0.141952,0.0469 -7.94e-4,0.0481 0.09369,0.0215 0.140536,0.0322 0.180144,0.045 0.358868,0.0959 0.54002,0.13673 0.0762,0.0171 0.389419,0.11224 0.496803,0.0216 0.07502,-0.0634 0.118414,-0.16105 0.1481,-0.25465 0.0088,-0.0277 -0.02893,-0.0503 -0.0434,-0.0755 -0.01307,-0.19317 0.01476,-0.0582 -0.402762,-0.14384 -0.364712,-0.0748 -0.692264,-0.13733 -1.06008,-0.19834 -0.148923,-0.0247 -0.297534,-0.0529 -0.447717,-0.0682 -0.08144,-0.008 -0.163706,-0.002 -0.245557,-0.002 -0.05561,0.0676 -0.09776,0.14898 -0.166839,0.2027 -0.05591,0.0435 -0.214132,0.0114 -0.196815,0.0801 0.02008,0.0797 0.156892,0.0489 0.235431,0.0731 0.517592,0.15916 1.037331,0.31314 1.569197,0.41852 0.01516,0.003 0.709797,0.15721 0.838782,0.0748 0.385103,-0.24589 0.216439,-0.24576 0.109974,-0.36408 -0.01082,-0.012 -0.0084,-0.0389 -0.02426,-0.0421 -0.119292,-0.0238 -0.242146,-0.0234 -0.36322,-0.0351 -0.192569,-0.0106 -0.648044,-0.0362 -0.845671,-0.0456 -0.107218,-0.005 -0.214456,-0.01 -0.321744,-0.0133 -0.06326,-0.002 -0.127286,0.007 -0.189847,-0.002 -0.0542,-0.008 -0.11816,-0.0613 -0.160647,-0.0919 -0.02082,-0.0336 -0.495477,0.26091 -0.474654,0.29447 z" />
        <rect
           style="opacity:1;fill:#ffbc2f;fill-opacity:1;stroke:#ffbc2f;stroke-width:0;stroke-linecap:square;stroke-linejoin:miter;stroke-dasharray:none;stroke-opacity:1;paint-order:stroke markers fill"
           id="rect14"
           width="1.9546918"
           height="1.0420886"
           x="70.614288"
           y="160.87183"
           rx="0"
           ry="0" />
        <rect
           style="opacity:1;fill:#ffbc2f;fill-opacity:1;stroke:#ffbc2f;stroke-width:0;stroke-linecap:square;stroke-linejoin:miter;stroke-dasharray:none;stroke-opacity:1;paint-order:stroke markers fill"
           id="rect16"
           width="11.615522"
           height="16.84774"
           x="63.972576"
           y="134.67728" />
        <rect
           style="opacity:1;fill:#ffbc2f;fill-opacity:1;stroke:#ffbc2f;stroke-width:0;stroke-linecap:square;stroke-linejoin:miter;stroke-dasharray:none;stroke-opacity:1;paint-order:stroke markers fill"
           id="rect17"
           width="1.627884"
           height="1.5415568"
           x="66.126625"
           y="133.50499" />
      </g>
      <g
         id="g18"
         transform="matrix(2.3867541,0,0,2.3867541,-93.419103,55.056269)"
         style="stroke-width:4;stroke-dasharray:none"
         inkscape:label="stroke">
        <path
           style="opacity:1;fill:none;stroke:#ffbc2f;stroke-width:4;stroke-linecap:round;stroke-linejoin:round;stroke-dasharray:none;paint-order:markers fill stroke"
           d="m 90.970819,149.99023 -23.318939,0.0987 c 0,0 -8.05159,1.40282 -8.92965,-8.92965 -0.657063,-7.73191 3.660159,-9.32337 3.660159,-9.32337 0,0 -7.527632,-3.87432 -8.711547,-7.22875 -1.183915,-3.35443 -0.789276,-6.1169 -2.565151,-7.89277 -1.775873,-1.77587 -8.836739,-15.30568 -8.836739,-15.30568 0,0 -1.029224,-0.8745 -1.127885,-5.018206 -0.09866,-4.143703 10.655242,-0.295979 10.655242,-0.295979 0,0 13.812348,5.426285 18.054714,9.175345 4.242364,3.74907 16.32817,16.32817 16.32817,16.32817"
           id="path17"
           sodipodi:nodetypes="ccscsscscsc" />
        <path
           style="opacity:1;fill:none;stroke:#ffbc2f;stroke-width:4;stroke-linecap:round;stroke-linejoin:round;stroke-dasharray:none;paint-order:markers fill stroke"
           d="m 86.48127,121.79532 c 0,0 12.0858,-12.5791 16.32817,-16.32817 4.24236,-3.74906 18.05471,-9.175345 18.05471,-9.175345 0,0 10.75394,-3.847724 10.65524,0.295979 -0.0987,4.143706 -1.12788,5.018206 -1.12788,5.018206 0,0 -7.06087,13.52981 -8.83674,15.30568 -1.77588,1.77587 -1.38124,5.72226 -2.56515,9.07669 -1.18392,3.35443 -6.75819,6.62978 -6.75819,6.62978 0,19.53244 0.0919,17.46758 -0.19493,17.47075 l -8.93772,0.0987 v 13.29147 L 91.654803,149.96265"
           id="path18"
           sodipodi:nodetypes="ccscssccsccc" />
      </g>
      <g
         id="g25"
         transform="matrix(2.4923824,0,0,2.4923824,281.99619,22.952557)">
        <g
           id="g20"
           transform="translate(-19.594103,11.919308)"
           style="fill:#ffbc2f;fill-opacity:1;stroke:none;stroke-width:4;stroke-dasharray:none;stroke-opacity:1">
          <path
             style="opacity:1;fill:#ffbc2f;fill-opacity:1;stroke:none;stroke-width:4;stroke-linecap:round;stroke-linejoin:round;stroke-dasharray:none;stroke-opacity:1;paint-order:markers fill stroke"
             d="m 90.970819,149.99023 -23.318939,0.0987 c 0,0 -8.05159,1.40282 -8.92965,-8.92965 -0.657063,-7.73191 3.660159,-9.32337 3.660159,-9.32337 0,0 -7.527632,-3.87432 -8.711547,-7.22875 -1.183915,-3.35443 -0.789276,-6.1169 -2.565151,-7.89277 -1.775873,-1.77587 -8.836739,-15.30568 -8.836739,-15.30568 0,0 -1.029224,-0.8745 -1.127885,-5.018206 -0.09866,-4.143703 10.655242,-0.295979 10.655242,-0.295979 0,0 13.812348,5.426285 18.054714,9.175345 4.242364,3.74907 16.32817,16.32817 16.32817,16.32817"
             id="path19"
             sodipodi:nodetypes="ccscsscscsc" />
          <path
             style="opacity:1;fill:#ffbc2f;fill-opacity:1;stroke:none;stroke-width:4;stroke-linecap:round;stroke-linejoin:round;stroke-dasharray:none;stroke-opacity:1;paint-order:markers fill stroke"
             d="m 86.48127,121.79532 c 0,0 12.0858,-12.5791 16.32817,-16.32817 4.24236,-3.74906 18.05471,-9.175345 18.05471,-9.175345 0,0 10.75394,-3.847724 10.65524,0.295979 -0.0987,4.143706 -1.12788,5.018206 -1.12788,5.018206 0,0 -7.06087,13.52981 -8.83674,15.30568 -1.77588,1.77587 -1.38124,5.72226 -2.56515,9.07669 -1.18392,3.35443 -6.75819,6.62978 -6.75819,6.62978 0,19.53244 0.0919,17.46758 -0.19493,17.47075 l -8.93772,0.0987 v 13.29147 L 91.654803,149.96265"
             id="path20"
             sodipodi:nodetypes="ccscssccsccc" />
        </g>
        <path
           style="opacity:1;fill:#ffbc2f;fill-opacity:1;stroke:none;stroke-width:0;stroke-linecap:round;stroke-linejoin:round;stroke-dasharray:none;stroke-opacity:1;paint-order:markers fill stroke"
           id="path21"
           d="m 69.791158,151.85649 c -0.299696,0.67519 -0.398272,1.40802 -0.434842,2.14045 -0.03533,0.70752 -0.02011,1.35321 0.109035,2.04934 0.04373,0.23577 0.129394,0.4618 0.194093,0.69271 0.509288,-0.1198 0.925787,-0.15345 1.229206,-0.77835 0.194953,-0.40151 0.141796,-0.88369 0.157054,-1.32976 0.03906,-1.1419 -0.07754,-2.22122 -0.326252,-3.33521 -0.104291,-0.46712 -0.271532,-0.91792 -0.4073,-1.37688 -0.147487,-0.30996 -0.246012,-0.6484 -0.442465,-0.92988 -0.340686,-0.48815 -0.874022,-0.47734 -1.295376,0.0714 -0.206815,0.26932 -0.187987,0.65661 -0.219999,0.99467 -0.120094,1.26827 0.03731,1.89478 0.200036,3.17605 0.242514,0.98119 0.395486,1.95383 0.915199,2.84071 0.145838,0.24886 0.319614,0.52012 0.581647,0.64071 0.283458,0.13046 0.674147,0.2292 0.934376,0.057 0.570317,-0.37736 0.672351,-1.97857 0.744339,-2.4354 -0.06886,-1.30737 -0.01283,-1.75098 -0.377198,-2.99646 -0.103759,-0.35467 -0.216998,-0.71762 -0.421688,-1.02529 -0.408157,-0.61351 -1.044953,-0.46922 -1.516269,0.13906 -0.269293,0.34755 -0.254,0.84185 -0.381,1.26278 -0.04816,0.57923 -0.135919,1.15651 -0.144489,1.73767 -0.01688,1.14394 0.128762,2.63566 0.370285,3.75697 0.167793,0.77902 0.467217,1.77959 0.937045,2.4684 0.119857,0.17572 0.310235,0.29108 0.465352,0.43661 0.252421,0.0281 0.504841,0.0562 0.757259,0.0843 0.03451,-0.024 -0.303985,-0.51197 -0.338495,-0.48804 v 0 c 0.205274,0.0493 0.410551,0.0986 0.615826,0.14792 0.06651,-0.15294 0.164983,-0.29566 0.199525,-0.45882 0.158395,-0.74818 0.127473,-1.77087 0.07494,-2.49194 -0.04391,-0.6027 -0.117718,-1.20327 -0.204083,-1.80137 -0.275667,-1.90898 -0.285533,-1.72383 -0.796626,-3.51075 -0.184883,-0.36955 -0.252003,-0.8273 -0.554646,-1.10864 -0.457066,-0.4249 -1.098368,-0.55357 -1.236636,0.0991 -0.07197,0.33975 -0.05223,0.69427 -0.03667,1.04121 0.05649,1.2593 0.199816,1.64201 0.475231,2.88982 0.165685,0.41524 0.264451,0.86392 0.497057,1.24572 0.12978,0.21302 0.913765,0.81178 1.244407,0.59183 0.198516,-0.13206 0.135093,-0.46321 0.139297,-0.7016 0.01794,-1.0173 -0.228462,-1.88261 -0.433847,-2.87722 -0.385559,-1.23859 -0.505789,-1.84288 -1.102061,-2.96971 -0.156713,-0.29615 -0.278982,-0.65136 -0.558949,-0.83544 -0.535633,-0.35217 -1.054168,-0.30315 -1.200644,0.27993 -0.08122,0.32331 -0.05456,0.66448 -0.08184,0.99672 0.03039,0.47044 0.03141,0.94371 0.09118,1.41133 0.143214,1.12064 0.392793,2.17489 0.780063,3.23664 0.366615,1.00511 0.509064,1.54043 1.576991,1.95007 0.144703,0.0555 0.292222,-0.10337 0.438335,-0.15505 0.04442,-0.2359 0.110797,-0.46871 0.133266,-0.70771 0.06659,-0.70841 0.0217,-1.35661 -0.08531,-2.06058 -0.104809,-0.68953 -0.207653,-1.08762 -0.464865,-1.70985 -0.05108,-0.12358 -0.124314,-0.23679 -0.18647,-0.35518 0,-0.0434 -0.613027,-0.0434 -0.613027,0 z" />
        <path
           style="opacity:1;fill:#ffbc2f;fill-opacity:1;stroke:none;stroke-width:0;stroke-linecap:round;stroke-linejoin:round;stroke-dasharray:none;stroke-opacity:1;paint-order:markers fill stroke"
           id="path22"
           d="m 70.939611,158.82237 c -0.05153,0.15885 -0.06527,0.33398 -0.04351,0.49982 0.0049,0.0373 0.01516,0.0738 0.02275,0.11068 0.0209,0.11286 0.05675,0.22314 0.109953,0.32508 0.03332,0.0638 0.07814,0.12259 0.120325,0.18071 0.006,0.007 0.01339,0.0135 0.01783,0.0218 0.0056,0.0105 0.008,0.0224 0.01188,0.0336 0.01402,0.0409 0.02646,0.0823 0.0413,0.1229 0.0266,0.0727 0.0312,0.0776 0.06635,0.15186 0.07212,0.11552 0.113681,0.24559 0.177964,0.3648 -0.04662,-0.0215 0.02307,0.0384 0.02516,0.0264 0.0042,-0.024 7.93e-4,-0.0491 0.005,-0.0731 0.0056,-0.0311 0.02529,-0.0599 0.02445,-0.0915 -5.29e-4,-0.0213 -0.0471,0.004 -0.08781,0.0216 -0.173291,0.0754 -0.310949,0.21998 -0.362561,0.40397 -0.0076,0.0271 -0.0088,0.0557 -0.01323,0.0835 0.0013,0.008 2.1e-5,0.0293 0.0042,0.0228 0.01815,-0.0284 0.02339,-0.0637 0.04047,-0.0927 0.01296,-0.022 0.03811,-0.036 0.0488,-0.0592 0.0028,-0.006 -0.0096,-0.011 -0.01614,-0.0118 -0.03441,-0.004 -0.08223,0.0124 -0.112765,0.0204 -0.02418,0.0129 -0.05115,0.0215 -0.07254,0.0386 -0.170273,0.1362 -0.184989,0.29875 -0.137869,0.49444 0.03608,0.11198 0.0863,0.21705 0.168979,0.30203 0.07194,0.07 0.154805,0.11714 0.25342,0.13635 0.02188,0.004 0.04392,0.009 0.06619,0.009 0.06503,2.4e-4 0.129939,-0.006 0.19491,-0.008 0.0605,2.4e-4 0.119348,-0.0324 0.179806,-0.0283 -0.253839,-0.003 -0.03787,0.005 0.01976,0.0116 0.01172,7.9e-4 0.02342,0.002 0.03514,0.002 0.0578,0.001 0.115612,0.002 0.173424,0.003 0.05101,7.9e-4 0.09968,-0.005 0.150394,0.001 0.01675,0.002 0.03348,0.003 0.05021,0.005 0.02016,0.002 0.04023,0.005 0.06044,0.006 0.02011,0.001 0.0677,-0.018 0.06039,7.9e-4 -0.008,0.0206 -0.08296,-10e-4 -0.06525,0.0118 0.0236,0.0176 0.05878,0.004 0.08818,0.005 0.03214,0.002 0.06429,0.003 0.09644,0.005 0.167796,0.002 0.333473,0.008 0.486172,-0.0702 0.0694,-0.0354 0.134821,-0.09 0.184946,-0.14924 0.02712,-0.032 0.04808,-0.0688 0.07212,-0.10326 0.01937,-0.0359 -0.488109,-0.30998 -0.507492,-0.2741 v 0 c 0.0013,0.002 5.29e-4,-0.005 -0.02619,-0.006 -0.01519,-5.3e-4 -0.03038,2.6e-4 -0.04557,5.3e-4 -0.02498,2.5e-4 -0.0512,-0.007 -0.07495,7.9e-4 -0.02074,0.007 0.04361,0.002 0.06542,0.002 -0.195448,0.009 -0.391374,0.0147 -0.586031,0.0333 -0.03816,0.006 -0.071,0.004 -0.109284,0.004 -0.01183,-4e-5 -0.04733,-1.9e-4 -0.03551,5.3e-4 0.08594,0.004 0.141661,0.001 0.07162,0.004 -0.10188,0.009 -0.204523,-0.0206 -0.306562,-0.002 -0.06924,0.004 -0.138433,0.008 -0.2076,0.0135 0.277122,-0.005 0.0858,-0.0233 0.07803,0.0249 -0.0013,0.009 0.0032,0.0172 0.0026,0.0259 -0.0049,-0.004 -0.0098,-0.009 -0.01469,-0.013 -5.29e-4,0.004 0.0027,0.014 -0.0013,0.0126 -0.01691,-0.006 -0.02432,-0.0689 -0.02945,-0.0849 -0.0067,-0.0228 -0.01222,-0.0454 -0.01714,-0.0445 -0.0078,0.002 -0.0094,0.0129 -0.0136,0.0196 -0.01286,0.0205 -0.02268,0.043 -0.03768,0.062 -0.01352,0.0171 -0.03271,0.0289 -0.04719,0.0452 -0.0024,0.003 -0.0016,0.007 -0.0024,0.0105 0.09133,8e-4 0.185849,-0.0307 0.252055,-0.0973 0.04422,-0.0444 0.06368,-0.10863 0.103683,-0.15691 0.04096,-0.0193 0.06881,-0.0612 0.102311,-0.0904 0.01664,-0.0145 0.03443,-0.0277 0.05176,-0.0413 0.0217,-0.0171 0.04358,-0.0341 0.06536,-0.0511 0.03014,-0.0254 0.09466,-0.077 0.115959,-0.10793 0.09565,-0.13902 0.107958,-0.22523 0.08281,-0.38285 -0.0058,-0.0229 -0.01042,-0.0462 -0.01754,-0.0688 -0.03927,-0.12485 -0.111506,-0.23529 -0.161952,-0.35531 -0.07461,-0.13356 0.01476,0.0288 -0.06498,-0.12473 -0.03894,-0.075 -0.09005,-0.14372 -0.11562,-0.2252 -0.02196,-0.0481 -0.03953,-0.0975 -0.06022,-0.14604 -0.02416,-0.0567 -0.05488,-0.11106 -0.06749,-0.1722 0.003,-0.18384 0.01048,-0.37373 -0.05085,-0.54978 0,-0.0379 -0.535964,-0.0379 -0.535964,0 z" />
        <path
           style="opacity:1;fill:#ffbc2f;fill-opacity:1;stroke:none;stroke-width:0;stroke-linecap:round;stroke-linejoin:round;stroke-dasharray:none;stroke-opacity:1;paint-order:markers fill stroke"
           id="path23"
           d="m 70.334001,160.60597 c 0.01233,0.0278 0.02093,0.0576 0.03699,0.0835 0.236391,0.38022 0.684543,0.58073 1.101312,0.68777 0.160213,0.0412 0.325826,0.0573 0.488738,0.086 0.31324,-0.005 0.734886,0.0106 1.02919,-0.10206 0.29846,-0.11428 0.299518,-0.53367 0.225263,-0.76966 -0.0968,-0.30762 -0.583316,-0.57829 -0.80319,-0.73145 -0.202705,-0.0881 -0.39909,-0.19251 -0.608111,-0.26438 -0.372448,-0.12806 -0.787079,-0.21212 -1.183917,-0.20031 -0.145516,0.004 -0.293886,0.0212 -0.431142,0.0697 -0.17372,0.0614 -0.384608,0.10475 -0.489952,0.25592 -0.101201,0.14522 -0.03756,0.35201 -0.05635,0.52801 0.08776,0.13895 0.151268,0.2966 0.263282,0.41686 0.281207,0.30191 0.673684,0.50023 1.059135,0.62531 0.375316,0.12178 0.769855,0.17267 1.163007,0.13556 0.214599,-0.0203 0.424276,-0.0764 0.636416,-0.11464 0.0757,-0.0841 0.193582,-0.14426 0.227121,-0.25235 0.05153,-0.16608 0.06398,-0.35526 0.01299,-0.52151 -0.04201,-0.13698 -0.165727,-0.23746 -0.274384,-0.33085 -0.183044,-0.15733 -0.487613,-0.27286 -0.719751,-0.32318 -0.113432,-0.0246 -0.230809,-0.0248 -0.346215,-0.0372 -0.194022,0.0223 -0.487789,0.0366 -0.648679,0.15646 -0.07935,0.0591 -0.125336,0.1622 -0.144592,0.25926 -0.03301,0.16635 0.03645,0.32102 0.12746,0.44923 0.03049,0.043 0.0705,0.0783 0.105749,0.1174 0.04659,-0.0305 0.09167,0.12018 0.150915,0.10473 0.01347,-0.004 -0.0039,-0.0277 -0.0036,-0.0416 0.0013,-0.0646 -0.0031,-0.13019 0.0088,-0.19374 0.0061,-0.0325 0.04482,-0.0559 0.04388,-0.089 -5.29e-4,-0.0162 -0.03121,-0.009 -0.04681,-0.0134 -0.02585,0.003 -0.05216,0.002 -0.07752,0.008 -0.163098,0.0356 -0.301681,0.14537 -0.358831,0.30543 -0.01638,0.0459 -0.01767,0.0958 -0.02652,0.14376 0.0034,0.0406 0.0027,0.0817 0.01011,0.12172 0.02671,0.14418 0.112384,0.2693 0.23187,0.35162 -0.08559,-0.069 0.07532,0.0615 0.06605,0.0379 -0.0072,-0.0184 -0.02477,-0.0308 -0.03485,-0.0478 -0.01175,-0.0197 -0.01722,-0.0429 -0.0304,-0.0617 -0.004,-0.006 -4.5e-5,0.0142 0.0019,0.021 0.0053,0.0196 0.0131,0.0386 0.01963,0.0579 0.04875,0.11509 0.139766,0.19238 0.250844,0.24416 0.06962,0.032 0.145248,0.0438 0.220004,0.0576 0.118967,0.0245 0.241125,-0.003 0.361129,0.009 0.04282,-0.002 0.195289,0.007 -0.01328,5.3e-4 -0.01278,-5.3e-4 0.02553,-0.002 0.03833,-0.002 0.0069,2.3e-4 0.101261,0.0114 0.101769,0.0115 0.09096,0.0142 0.182425,0.009 0.273688,0.004 0.213415,-0.0104 0.127286,0.007 0.226129,-0.0156 0.126515,-0.0169 0.203686,-0.0872 0.257749,-0.2201 0.02035,-0.05 0.0016,-0.1079 0.0026,-0.16185 -0.0084,-0.0376 -0.539526,0.0813 -0.531122,0.11885 v 0 c 0.03259,-0.13858 0.0074,-0.0957 0.145899,-0.233 0.01116,-0.0111 0.03255,-0.01 0.0414,-0.0227 0.01011,-0.0148 -0.07058,0.0102 -0.05333,-0.008 -0.09085,-0.0188 0.0039,0.005 0.0541,-0.0152 0.01887,-0.007 -0.04035,-0.004 -0.0606,-0.005 -0.03789,-0.002 -0.104495,-5.3e-4 -0.142126,0.002 -0.02289,0.001 -0.0457,0.004 -0.06856,0.006 -0.0063,5.3e-4 -0.09601,0.009 -0.107412,0.009 -0.01355,1.8e-4 -0.02703,-0.003 -0.04059,-0.003 -0.09151,-0.001 -0.184089,-0.002 -0.275672,0.003 -0.03803,0.006 -0.07631,0.0102 -0.114657,0.013 -0.0084,5.3e-4 -0.03353,2.6e-4 -0.02514,5.3e-4 0.115052,0.003 0.146312,-0.0154 0.100103,0.008 -0.02694,0.008 -0.04829,-0.008 -0.07462,-0.0116 -0.0021,-2.6e-4 -0.0019,0.004 -0.0038,0.005 -0.0041,10e-4 -0.0084,-5.3e-4 -0.01257,-5.3e-4 -0.0076,-0.003 -0.01479,-0.007 -0.02281,-0.008 -0.0026,-2.7e-4 -0.0036,0.004 -0.0061,0.005 -0.0049,2.6e-4 -0.0098,-0.005 -0.01431,-0.003 -0.0031,0.001 5.3e-4,0.007 -0.0019,0.01 -0.0149,0.016 -0.005,-0.0216 -0.01053,0.0135 -2.38e-4,0.005 0.0031,0.0166 -7.94e-4,0.0139 -0.0064,-0.005 -0.0067,-0.0142 -0.0098,-0.0215 -0.0131,-0.0305 -0.02265,-0.0628 -0.0388,-0.0918 -0.0132,-0.0238 -0.03224,-0.0438 -0.04862,-0.0655 -0.0094,-0.0124 -0.01651,-0.0189 -0.0085,-0.0114 -0.01347,-0.0162 -0.05986,-0.0735 -0.0761,-0.0778 -0.0037,-0.001 -0.0071,0.003 -0.01066,0.004 -0.0019,0.004 -0.0447,0.075 -0.03755,0.076 0.01132,0.002 0.02262,-0.003 0.03387,-0.005 0.07534,-0.0138 0.05693,-0.0109 0.142094,-0.0336 0.08475,-0.0382 0.185277,-0.0721 0.231651,-0.16521 0.07858,-0.15781 0.05952,-0.32389 -0.0364,-0.46159 -0.01982,-0.0285 -0.04556,-0.0523 -0.06835,-0.0785 -0.02627,-0.0227 -0.05042,-0.048 -0.07878,-0.068 -0.02037,-0.0144 -0.04615,-0.0488 -0.06647,-0.0343 -0.0339,0.0241 -0.02641,0.0796 -0.04752,0.11542 -0.0259,0.044 -0.05098,0.0923 -0.09239,0.12219 -0.04041,0.0291 -0.14106,-0.003 -0.141952,0.0469 -7.94e-4,0.0481 0.09369,0.0215 0.140536,0.0322 0.180144,0.045 0.358868,0.0959 0.54002,0.13673 0.0762,0.0171 0.389419,0.11224 0.496803,0.0216 0.07502,-0.0634 0.118414,-0.16105 0.1481,-0.25465 0.0088,-0.0277 -0.02893,-0.0503 -0.0434,-0.0755 -0.01307,-0.19317 0.01476,-0.0582 -0.402762,-0.14384 -0.364712,-0.0748 -0.692264,-0.13733 -1.06008,-0.19834 -0.148923,-0.0247 -0.297534,-0.0529 -0.447717,-0.0682 -0.08144,-0.008 -0.163706,-0.002 -0.245557,-0.002 -0.05561,0.0676 -0.09776,0.14898 -0.166839,0.2027 -0.05591,0.0435 -0.214132,0.0114 -0.196815,0.0801 0.02008,0.0797 0.156892,0.0489 0.235431,0.0731 0.517592,0.15916 1.037331,0.31314 1.569197,0.41852 0.01516,0.003 0.709797,0.15721 0.838782,0.0748 0.385103,-0.24589 0.216439,-0.24576 0.109974,-0.36408 -0.01082,-0.012 -0.0084,-0.0389 -0.02426,-0.0421 -0.119292,-0.0238 -0.242146,-0.0234 -0.36322,-0.0351 -0.192569,-0.0106 -0.648044,-0.0362 -0.845671,-0.0456 -0.107218,-0.005 -0.214456,-0.01 -0.321744,-0.0133 -0.06326,-0.002 -0.127286,0.007 -0.189847,-0.002 -0.0542,-0.008 -0.11816,-0.0613 -0.160647,-0.0919 -0.02082,-0.0336 -0.495477,0.26091 -0.474654,0.29447 z" />
        <rect
           style="opacity:1;fill:#ffbc2f;fill-opacity:1;stroke:#ffbc2f;stroke-width:0;stroke-linecap:square;stroke-linejoin:miter;stroke-dasharray:none;stroke-opacity:1;paint-order:stroke markers fill"
           id="rect23"
           width="1.9546918"
           height="1.0420886"
           x="70.614288"
           y="160.87183"
           rx="0"
           ry="0" />
        <rect
           style="opacity:1;fill:#ffbc2f;fill-opacity:1;stroke:#ffbc2f;stroke-width:0;stroke-linecap:square;stroke-linejoin:miter;stroke-dasharray:none;stroke-opacity:1;paint-order:stroke markers fill"
           id="rect24"
           width="11.615522"
           height="16.84774"
           x="63.972576"
           y="134.67728" />
        <rect
           style="opacity:1;fill:#ffbc2f;fill-opacity:1;stroke:#ffbc2f;stroke-width:0;stroke-linecap:square;stroke-linejoin:miter;stroke-dasharray:none;stroke-opacity:1;paint-order:stroke markers fill"
           id="rect25"
           width="1.627884"
           height="1.5415568"
           x="66.126625"
           y="133.50499" />
      </g>
      <g
         id="g26"
         transform="matrix(2.3867541,0,0,2.3867541,239.02875,-220.6712)"
         style="stroke-width:4;stroke-dasharray:none"
         inkscape:label="stroke">
        <path
           style="opacity:1;fill:none;stroke:#ffbc2f;stroke-width:4;stroke-linecap:round;stroke-linejoin:round;stroke-dasharray:none;paint-order:markers fill stroke"
           d="m 90.970819,149.99023 -23.318939,0.0987 c 0,0 -8.05159,1.40282 -8.92965,-8.92965 -0.657063,-7.73191 3.660159,-9.32337 3.660159,-9.32337 0,0 -7.527632,-3.87432 -8.711547,-7.22875 -1.183915,-3.35443 -0.789276,-6.1169 -2.565151,-7.89277 -1.775873,-1.77587 -8.836739,-15.30568 -8.836739,-15.30568 0,0 -1.029224,-0.8745 -1.127885,-5.018206 -0.09866,-4.143703 10.655242,-0.295979 10.655242,-0.295979 0,0 13.812348,5.426285 18.054714,9.175345 4.242364,3.74907 16.32817,16.32817 16.32817,16.32817"
           id="path25"
           sodipodi:nodetypes="ccscsscscsc" />
        <path
           style="opacity:1;fill:none;stroke:#ffbc2f;stroke-width:4;stroke-linecap:round;stroke-linejoin:round;stroke-dasharray:none;paint-order:markers fill stroke"
           d="m 86.48127,121.79532 c 0,0 12.0858,-12.5791 16.32817,-16.32817 4.24236,-3.74906 18.05471,-9.175345 18.05471,-9.175345 0,0 10.75394,-3.847724 10.65524,0.295979 -0.0987,4.143706 -1.12788,5.018206 -1.12788,5.018206 0,0 -7.06087,13.52981 -8.83674,15.30568 -1.77588,1.77587 -1.38124,5.72226 -2.56515,9.07669 -1.18392,3.35443 -6.75819,6.62978 -6.75819,6.62978 0,19.53244 0.0919,17.46758 -0.19493,17.47075 l -8.93772,0.0987 v 13.29147 L 91.654803,149.96265"
           id="path26"
           sodipodi:nodetypes="ccscssccsccc" />
      </g>
    </pattern>
    <pattern
       patternUnits="userSpaceOnUse"
       width="225.25984"
       height="174.2858"
       patternTransform="translate(-366.34436,70.809153)"
       preserveAspectRatio="xMidYMid"
       id="pattern42"
       inkscape:label="stroke"
       style="fill:#000000">
      <g
         id="g42"
         transform="matrix(2.3867541,0,0,2.3867541,-93.419103,-220.6712)"
         style="stroke-width:4;stroke-dasharray:none"
         inkscape:label="stroke">
        <path
           style="opacity:1;fill:none;stroke:#ffbc2f;stroke-width:4;stroke-linecap:round;stroke-linejoin:round;stroke-dasharray:none;paint-order:markers fill stroke"
           d="m 90.970819,149.99023 -23.318939,0.0987 c 0,0 -8.05159,1.40282 -8.92965,-8.92965 -0.657063,-7.73191 3.660159,-9.32337 3.660159,-9.32337 0,0 -7.527632,-3.87432 -8.711547,-7.22875 -1.183915,-3.35443 -0.789276,-6.1169 -2.565151,-7.89277 -1.775873,-1.77587 -8.836739,-15.30568 -8.836739,-15.30568 0,0 -1.029224,-0.8745 -1.127885,-5.018206 -0.09866,-4.143703 10.655242,-0.295979 10.655242,-0.295979 0,0 13.812348,5.426285 18.054714,9.175345 4.242364,3.74907 16.32817,16.32817 16.32817,16.32817"
           id="path41"
           sodipodi:nodetypes="ccscsscscsc" />
        <path
           style="opacity:1;fill:none;stroke:#ffbc2f;stroke-width:4;stroke-linecap:round;stroke-linejoin:round;stroke-dasharray:none;paint-order:markers fill stroke"
           d="m 86.48127,121.79532 c 0,0 12.0858,-12.5791 16.32817,-16.32817 4.24236,-3.74906 18.05471,-9.175345 18.05471,-9.175345 0,0 10.75394,-3.847724 10.65524,0.295979 -0.0987,4.143706 -1.12788,5.018206 -1.12788,5.018206 0,0 -7.06087,13.52981 -8.83674,15.30568 -1.77588,1.77587 -1.38124,5.72226 -2.56515,9.07669 -1.18392,3.35443 -6.75819,6.62978 -6.75819,6.62978 0,19.53244 0.0919,17.46758 -0.19493,17.47075 l -8.93772,0.0987 v 13.29147 L 91.654803,149.96265"
           id="path42"
           sodipodi:nodetypes="ccscssccsccc" />
      </g>
    </pattern>
  </defs>
  <g
     inkscape:label="Layer 1"
     inkscape:groupmode="layer"
     id="layer1">
    <rect
       style="stroke:none;fill:none"
       transform="scale(0.26458333)"
       width="560.95849"
       height="460.11236"
       x="-698.79221"
       y="70.809153"
       id="rect26" />
    <g
       id="g33"
       transform="matrix(0.65944284,0,0,0.65944284,-197.2345,-51.36989)">
      <g
         id="g28"
         transform="translate(-19.594103,11.919308)"
         style="fill:#ffbc2f;fill-opacity:1;stroke:none;stroke-width:4;stroke-dasharray:none;stroke-opacity:1">
        <path
           style="opacity:1;fill:#ffbc2f;fill-opacity:1;stroke:none;stroke-width:4;stroke-linecap:round;stroke-linejoin:round;stroke-dasharray:none;stroke-opacity:1;paint-order:markers fill stroke"
           d="m 90.970819,149.99023 -23.318939,0.0987 c 0,0 -8.05159,1.40282 -8.92965,-8.92965 -0.657063,-7.73191 3.660159,-9.32337 3.660159,-9.32337 0,0 -7.527632,-3.87432 -8.711547,-7.22875 -1.183915,-3.35443 -0.789276,-6.1169 -2.565151,-7.89277 -1.775873,-1.77587 -8.836739,-15.30568 -8.836739,-15.30568 0,0 -1.029224,-0.8745 -1.127885,-5.018206 -0.09866,-4.143703 10.655242,-0.295979 10.655242,-0.295979 0,0 13.812348,5.426285 18.054714,9.175345 4.242364,3.74907 16.32817,16.32817 16.32817,16.32817"
           id="path27"
           sodipodi:nodetypes="ccscsscscsc" />
        <path
           style="opacity:1;fill:#ffbc2f;fill-opacity:1;stroke:none;stroke-width:4;stroke-linecap:round;stroke-linejoin:round;stroke-dasharray:none;stroke-opacity:1;paint-order:markers fill stroke"
           d="m 86.48127,121.79532 c 0,0 12.0858,-12.5791 16.32817,-16.32817 4.24236,-3.74906 18.05471,-9.175345 18.05471,-9.175345 0,0 10.75394,-3.847724 10.65524,0.295979 -0.0987,4.143706 -1.12788,5.018206 -1.12788,5.018206 0,0 -7.06087,13.52981 -8.83674,15.30568 -1.77588,1.77587 -1.38124,5.72226 -2.56515,9.07669 -1.18392,3.35443 -6.75819,6.62978 -6.75819,6.62978 0,19.53244 0.0919,17.46758 -0.19493,17.47075 l -8.93772,0.0987 v 13.29147 L 91.654803,149.96265"
           id="path28"
           sodipodi:nodetypes="ccscssccsccc" />
      </g>
      <path
         style="opacity:1;fill:#ffbc2f;fill-opacity:1;stroke:none;stroke-width:0;stroke-linecap:round;stroke-linejoin:round;stroke-dasharray:none;stroke-opacity:1;paint-order:markers fill stroke"
         id="path29"
         d="m 69.791158,151.85649 c -0.299696,0.67519 -0.398272,1.40802 -0.434842,2.14045 -0.03533,0.70752 -0.02011,1.35321 0.109035,2.04934 0.04373,0.23577 0.129394,0.4618 0.194093,0.69271 0.509288,-0.1198 0.925787,-0.15345 1.229206,-0.77835 0.194953,-0.40151 0.141796,-0.88369 0.157054,-1.32976 0.03906,-1.1419 -0.07754,-2.22122 -0.326252,-3.33521 -0.104291,-0.46712 -0.271532,-0.91792 -0.4073,-1.37688 -0.147487,-0.30996 -0.246012,-0.6484 -0.442465,-0.92988 -0.340686,-0.48815 -0.874022,-0.47734 -1.295376,0.0714 -0.206815,0.26932 -0.187987,0.65661 -0.219999,0.99467 -0.120094,1.26827 0.03731,1.89478 0.200036,3.17605 0.242514,0.98119 0.395486,1.95383 0.915199,2.84071 0.145838,0.24886 0.319614,0.52012 0.581647,0.64071 0.283458,0.13046 0.674147,0.2292 0.934376,0.057 0.570317,-0.37736 0.672351,-1.97857 0.744339,-2.4354 -0.06886,-1.30737 -0.01283,-1.75098 -0.377198,-2.99646 -0.103759,-0.35467 -0.216998,-0.71762 -0.421688,-1.02529 -0.408157,-0.61351 -1.044953,-0.46922 -1.516269,0.13906 -0.269293,0.34755 -0.254,0.84185 -0.381,1.26278 -0.04816,0.57923 -0.135919,1.15651 -0.144489,1.73767 -0.01688,1.14394 0.128762,2.63566 0.370285,3.75697 0.167793,0.77902 0.467217,1.77959 0.937045,2.4684 0.119857,0.17572 0.310235,0.29108 0.465352,0.43661 0.252421,0.0281 0.504841,0.0562 0.757259,0.0843 0.03451,-0.024 -0.303985,-0.51197 -0.338495,-0.48804 v 0 c 0.205274,0.0493 0.410551,0.0986 0.615826,0.14792 0.06651,-0.15294 0.164983,-0.29566 0.199525,-0.45882 0.158395,-0.74818 0.127473,-1.77087 0.07494,-2.49194 -0.04391,-0.6027 -0.117718,-1.20327 -0.204083,-1.80137 -0.275667,-1.90898 -0.285533,-1.72383 -0.796626,-3.51075 -0.184883,-0.36955 -0.252003,-0.8273 -0.554646,-1.10864 -0.457066,-0.4249 -1.098368,-0.55357 -1.236636,0.0991 -0.07197,0.33975 -0.05223,0.69427 -0.03667,1.04121 0.05649,1.2593 0.199816,1.64201 0.475231,2.88982 0.165685,0.41524 0.264451,0.86392 0.497057,1.24572 0.12978,0.21302 0.913765,0.81178 1.244407,0.59183 0.198516,-0.13206 0.135093,-0.46321 0.139297,-0.7016 0.01794,-1.0173 -0.228462,-1.88261 -0.433847,-2.87722 -0.385559,-1.23859 -0.505789,-1.84288 -1.102061,-2.96971 -0.156713,-0.29615 -0.278982,-0.65136 -0.558949,-0.83544 -0.535633,-0.35217 -1.054168,-0.30315 -1.200644,0.27993 -0.08122,0.32331 -0.05456,0.66448 -0.08184,0.99672 0.03039,0.47044 0.03141,0.94371 0.09118,1.41133 0.143214,1.12064 0.392793,2.17489 0.780063,3.23664 0.366615,1.00511 0.509064,1.54043 1.576991,1.95007 0.144703,0.0555 0.292222,-0.10337 0.438335,-0.15505 0.04442,-0.2359 0.110797,-0.46871 0.133266,-0.70771 0.06659,-0.70841 0.0217,-1.35661 -0.08531,-2.06058 -0.104809,-0.68953 -0.207653,-1.08762 -0.464865,-1.70985 -0.05108,-0.12358 -0.124314,-0.23679 -0.18647,-0.35518 0,-0.0434 -0.613027,-0.0434 -0.613027,0 z" />
      <path
         style="opacity:1;fill:#ffbc2f;fill-opacity:1;stroke:none;stroke-width:0;stroke-linecap:round;stroke-linejoin:round;stroke-dasharray:none;stroke-opacity:1;paint-order:markers fill stroke"
         id="path30"
         d="m 70.939611,158.82237 c -0.05153,0.15885 -0.06527,0.33398 -0.04351,0.49982 0.0049,0.0373 0.01516,0.0738 0.02275,0.11068 0.0209,0.11286 0.05675,0.22314 0.109953,0.32508 0.03332,0.0638 0.07814,0.12259 0.120325,0.18071 0.006,0.007 0.01339,0.0135 0.01783,0.0218 0.0056,0.0105 0.008,0.0224 0.01188,0.0336 0.01402,0.0409 0.02646,0.0823 0.0413,0.1229 0.0266,0.0727 0.0312,0.0776 0.06635,0.15186 0.07212,0.11552 0.113681,0.24559 0.177964,0.3648 -0.04662,-0.0215 0.02307,0.0384 0.02516,0.0264 0.0042,-0.024 7.93e-4,-0.0491 0.005,-0.0731 0.0056,-0.0311 0.02529,-0.0599 0.02445,-0.0915 -5.29e-4,-0.0213 -0.0471,0.004 -0.08781,0.0216 -0.173291,0.0754 -0.310949,0.21998 -0.362561,0.40397 -0.0076,0.0271 -0.0088,0.0557 -0.01323,0.0835 0.0013,0.008 2.1e-5,0.0293 0.0042,0.0228 0.01815,-0.0284 0.02339,-0.0637 0.04047,-0.0927 0.01296,-0.022 0.03811,-0.036 0.0488,-0.0592 0.0028,-0.006 -0.0096,-0.011 -0.01614,-0.0118 -0.03441,-0.004 -0.08223,0.0124 -0.112765,0.0204 -0.02418,0.0129 -0.05115,0.0215 -0.07254,0.0386 -0.170273,0.1362 -0.184989,0.29875 -0.137869,0.49444 0.03608,0.11198 0.0863,0.21705 0.168979,0.30203 0.07194,0.07 0.154805,0.11714 0.25342,0.13635 0.02188,0.004 0.04392,0.009 0.06619,0.009 0.06503,2.4e-4 0.129939,-0.006 0.19491,-0.008 0.0605,2.4e-4 0.119348,-0.0324 0.179806,-0.0283 -0.253839,-0.003 -0.03787,0.005 0.01976,0.0116 0.01172,7.9e-4 0.02342,0.002 0.03514,0.002 0.0578,0.001 0.115612,0.002 0.173424,0.003 0.05101,7.9e-4 0.09968,-0.005 0.150394,0.001 0.01675,0.002 0.03348,0.003 0.05021,0.005 0.02016,0.002 0.04023,0.005 0.06044,0.006 0.02011,0.001 0.0677,-0.018 0.06039,7.9e-4 -0.008,0.0206 -0.08296,-10e-4 -0.06525,0.0118 0.0236,0.0176 0.05878,0.004 0.08818,0.005 0.03214,0.002 0.06429,0.003 0.09644,0.005 0.167796,0.002 0.333473,0.008 0.486172,-0.0702 0.0694,-0.0354 0.134821,-0.09 0.184946,-0.14924 0.02712,-0.032 0.04808,-0.0688 0.07212,-0.10326 0.01937,-0.0359 -0.488109,-0.30998 -0.507492,-0.2741 v 0 c 0.0013,0.002 5.29e-4,-0.005 -0.02619,-0.006 -0.01519,-5.3e-4 -0.03038,2.6e-4 -0.04557,5.3e-4 -0.02498,2.5e-4 -0.0512,-0.007 -0.07495,7.9e-4 -0.02074,0.007 0.04361,0.002 0.06542,0.002 -0.195448,0.009 -0.391374,0.0147 -0.586031,0.0333 -0.03816,0.006 -0.071,0.004 -0.109284,0.004 -0.01183,-4e-5 -0.04733,-1.9e-4 -0.03551,5.3e-4 0.08594,0.004 0.141661,0.001 0.07162,0.004 -0.10188,0.009 -0.204523,-0.0206 -0.306562,-0.002 -0.06924,0.004 -0.138433,0.008 -0.2076,0.0135 0.277122,-0.005 0.0858,-0.0233 0.07803,0.0249 -0.0013,0.009 0.0032,0.0172 0.0026,0.0259 -0.0049,-0.004 -0.0098,-0.009 -0.01469,-0.013 -5.29e-4,0.004 0.0027,0.014 -0.0013,0.0126 -0.01691,-0.006 -0.02432,-0.0689 -0.02945,-0.0849 -0.0067,-0.0228 -0.01222,-0.0454 -0.01714,-0.0445 -0.0078,0.002 -0.0094,0.0129 -0.0136,0.0196 -0.01286,0.0205 -0.02268,0.043 -0.03768,0.062 -0.01352,0.0171 -0.03271,0.0289 -0.04719,0.0452 -0.0024,0.003 -0.0016,0.007 -0.0024,0.0105 0.09133,8e-4 0.185849,-0.0307 0.252055,-0.0973 0.04422,-0.0444 0.06368,-0.10863 0.103683,-0.15691 0.04096,-0.0193 0.06881,-0.0612 0.102311,-0.0904 0.01664,-0.0145 0.03443,-0.0277 0.05176,-0.0413 0.0217,-0.0171 0.04358,-0.0341 0.06536,-0.0511 0.03014,-0.0254 0.09466,-0.077 0.115959,-0.10793 0.09565,-0.13902 0.107958,-0.22523 0.08281,-0.38285 -0.0058,-0.0229 -0.01042,-0.0462 -0.01754,-0.0688 -0.03927,-0.12485 -0.111506,-0.23529 -0.161952,-0.35531 -0.07461,-0.13356 0.01476,0.0288 -0.06498,-0.12473 -0.03894,-0.075 -0.09005,-0.14372 -0.11562,-0.2252 -0.02196,-0.0481 -0.03953,-0.0975 -0.06022,-0.14604 -0.02416,-0.0567 -0.05488,-0.11106 -0.06749,-0.1722 0.003,-0.18384 0.01048,-0.37373 -0.05085,-0.54978 0,-0.0379 -0.535964,-0.0379 -0.535964,0 z" />
      <path
         style="opacity:1;fill:#ffbc2f;fill-opacity:1;stroke:none;stroke-width:0;stroke-linecap:round;stroke-linejoin:round;stroke-dasharray:none;stroke-opacity:1;paint-order:markers fill stroke"
         id="path31"
         d="m 70.334001,160.60597 c 0.01233,0.0278 0.02093,0.0576 0.03699,0.0835 0.236391,0.38022 0.684543,0.58073 1.101312,0.68777 0.160213,0.0412 0.325826,0.0573 0.488738,0.086 0.31324,-0.005 0.734886,0.0106 1.02919,-0.10206 0.29846,-0.11428 0.299518,-0.53367 0.225263,-0.76966 -0.0968,-0.30762 -0.583316,-0.57829 -0.80319,-0.73145 -0.202705,-0.0881 -0.39909,-0.19251 -0.608111,-0.26438 -0.372448,-0.12806 -0.787079,-0.21212 -1.183917,-0.20031 -0.145516,0.004 -0.293886,0.0212 -0.431142,0.0697 -0.17372,0.0614 -0.384608,0.10475 -0.489952,0.25592 -0.101201,0.14522 -0.03756,0.35201 -0.05635,0.52801 0.08776,0.13895 0.151268,0.2966 0.263282,0.41686 0.281207,0.30191 0.673684,0.50023 1.059135,0.62531 0.375316,0.12178 0.769855,0.17267 1.163007,0.13556 0.214599,-0.0203 0.424276,-0.0764 0.636416,-0.11464 0.0757,-0.0841 0.193582,-0.14426 0.227121,-0.25235 0.05153,-0.16608 0.06398,-0.35526 0.01299,-0.52151 -0.04201,-0.13698 -0.165727,-0.23746 -0.274384,-0.33085 -0.183044,-0.15733 -0.487613,-0.27286 -0.719751,-0.32318 -0.113432,-0.0246 -0.230809,-0.0248 -0.346215,-0.0372 -0.194022,0.0223 -0.487789,0.0366 -0.648679,0.15646 -0.07935,0.0591 -0.125336,0.1622 -0.144592,0.25926 -0.03301,0.16635 0.03645,0.32102 0.12746,0.44923 0.03049,0.043 0.0705,0.0783 0.105749,0.1174 0.04659,-0.0305 0.09167,0.12018 0.150915,0.10473 0.01347,-0.004 -0.0039,-0.0277 -0.0036,-0.0416 0.0013,-0.0646 -0.0031,-0.13019 0.0088,-0.19374 0.0061,-0.0325 0.04482,-0.0559 0.04388,-0.089 -5.29e-4,-0.0162 -0.03121,-0.009 -0.04681,-0.0134 -0.02585,0.003 -0.05216,0.002 -0.07752,0.008 -0.163098,0.0356 -0.301681,0.14537 -0.358831,0.30543 -0.01638,0.0459 -0.01767,0.0958 -0.02652,0.14376 0.0034,0.0406 0.0027,0.0817 0.01011,0.12172 0.02671,0.14418 0.112384,0.2693 0.23187,0.35162 -0.08559,-0.069 0.07532,0.0615 0.06605,0.0379 -0.0072,-0.0184 -0.02477,-0.0308 -0.03485,-0.0478 -0.01175,-0.0197 -0.01722,-0.0429 -0.0304,-0.0617 -0.004,-0.006 -4.5e-5,0.0142 0.0019,0.021 0.0053,0.0196 0.0131,0.0386 0.01963,0.0579 0.04875,0.11509 0.139766,0.19238 0.250844,0.24416 0.06962,0.032 0.145248,0.0438 0.220004,0.0576 0.118967,0.0245 0.241125,-0.003 0.361129,0.009 0.04282,-0.002 0.195289,0.007 -0.01328,5.3e-4 -0.01278,-5.3e-4 0.02553,-0.002 0.03833,-0.002 0.0069,2.3e-4 0.101261,0.0114 0.101769,0.0115 0.09096,0.0142 0.182425,0.009 0.273688,0.004 0.213415,-0.0104 0.127286,0.007 0.226129,-0.0156 0.126515,-0.0169 0.203686,-0.0872 0.257749,-0.2201 0.02035,-0.05 0.0016,-0.1079 0.0026,-0.16185 -0.0084,-0.0376 -0.539526,0.0813 -0.531122,0.11885 v 0 c 0.03259,-0.13858 0.0074,-0.0957 0.145899,-0.233 0.01116,-0.0111 0.03255,-0.01 0.0414,-0.0227 0.01011,-0.0148 -0.07058,0.0102 -0.05333,-0.008 -0.09085,-0.0188 0.0039,0.005 0.0541,-0.0152 0.01887,-0.007 -0.04035,-0.004 -0.0606,-0.005 -0.03789,-0.002 -0.104495,-5.3e-4 -0.142126,0.002 -0.02289,0.001 -0.0457,0.004 -0.06856,0.006 -0.0063,5.3e-4 -0.09601,0.009 -0.107412,0.009 -0.01355,1.8e-4 -0.02703,-0.003 -0.04059,-0.003 -0.09151,-0.001 -0.184089,-0.002 -0.275672,0.003 -0.03803,0.006 -0.07631,0.0102 -0.114657,0.013 -0.0084,5.3e-4 -0.03353,2.6e-4 -0.02514,5.3e-4 0.115052,0.003 0.146312,-0.0154 0.100103,0.008 -0.02694,0.008 -0.04829,-0.008 -0.07462,-0.0116 -0.0021,-2.6e-4 -0.0019,0.004 -0.0038,0.005 -0.0041,10e-4 -0.0084,-5.3e-4 -0.01257,-5.3e-4 -0.0076,-0.003 -0.01479,-0.007 -0.02281,-0.008 -0.0026,-2.7e-4 -0.0036,0.004 -0.0061,0.005 -0.0049,2.6e-4 -0.0098,-0.005 -0.01431,-0.003 -0.0031,0.001 5.3e-4,0.007 -0.0019,0.01 -0.0149,0.016 -0.005,-0.0216 -0.01053,0.0135 -2.38e-4,0.005 0.0031,0.0166 -7.94e-4,0.0139 -0.0064,-0.005 -0.0067,-0.0142 -0.0098,-0.0215 -0.0131,-0.0305 -0.02265,-0.0628 -0.0388,-0.0918 -0.0132,-0.0238 -0.03224,-0.0438 -0.04862,-0.0655 -0.0094,-0.0124 -0.01651,-0.0189 -0.0085,-0.0114 -0.01347,-0.0162 -0.05986,-0.0735 -0.0761,-0.0778 -0.0037,-0.001 -0.0071,0.003 -0.01066,0.004 -0.0019,0.004 -0.0447,0.075 -0.03755,0.076 0.01132,0.002 0.02262,-0.003 0.03387,-0.005 0.07534,-0.0138 0.05693,-0.0109 0.142094,-0.0336 0.08475,-0.0382 0.185277,-0.0721 0.231651,-0.16521 0.07858,-0.15781 0.05952,-0.32389 -0.0364,-0.46159 -0.01982,-0.0285 -0.04556,-0.0523 -0.06835,-0.0785 -0.02627,-0.0227 -0.05042,-0.048 -0.07878,-0.068 -0.02037,-0.0144 -0.04615,-0.0488 -0.06647,-0.0343 -0.0339,0.0241 -0.02641,0.0796 -0.04752,0.11542 -0.0259,0.044 -0.05098,0.0923 -0.09239,0.12219 -0.04041,0.0291 -0.14106,-0.003 -0.141952,0.0469 -7.94e-4,0.0481 0.09369,0.0215 0.140536,0.0322 0.180144,0.045 0.358868,0.0959 0.54002,0.13673 0.0762,0.0171 0.389419,0.11224 0.496803,0.0216 0.07502,-0.0634 0.118414,-0.16105 0.1481,-0.25465 0.0088,-0.0277 -0.02893,-0.0503 -0.0434,-0.0755 -0.01307,-0.19317 0.01476,-0.0582 -0.402762,-0.14384 -0.364712,-0.0748 -0.692264,-0.13733 -1.06008,-0.19834 -0.148923,-0.0247 -0.297534,-0.0529 -0.447717,-0.0682 -0.08144,-0.008 -0.163706,-0.002 -0.245557,-0.002 -0.05561,0.0676 -0.09776,0.14898 -0.166839,0.2027 -0.05591,0.0435 -0.214132,0.0114 -0.196815,0.0801 0.02008,0.0797 0.156892,0.0489 0.235431,0.0731 0.517592,0.15916 1.037331,0.31314 1.569197,0.41852 0.01516,0.003 0.709797,0.15721 0.838782,0.0748 0.385103,-0.24589 0.216439,-0.24576 0.109974,-0.36408 -0.01082,-0.012 -0.0084,-0.0389 -0.02426,-0.0421 -0.119292,-0.0238 -0.242146,-0.0234 -0.36322,-0.0351 -0.192569,-0.0106 -0.648044,-0.0362 -0.845671,-0.0456 -0.107218,-0.005 -0.214456,-0.01 -0.321744,-0.0133 -0.06326,-0.002 -0.127286,0.007 -0.189847,-0.002 -0.0542,-0.008 -0.11816,-0.0613 -0.160647,-0.0919 -0.02082,-0.0336 -0.495477,0.26091 -0.474654,0.29447 z" />
      <rect
         style="opacity:1;fill:#ffbc2f;fill-opacity:1;stroke:#ffbc2f;stroke-width:0;stroke-linecap:square;stroke-linejoin:miter;stroke-dasharray:none;stroke-opacity:1;paint-order:stroke markers fill"
         id="rect31"
         width="1.9546918"
         height="1.0420886"
         x="70.614288"
         y="160.87183"
         rx="0"
         ry="0" />
      <rect
         style="opacity:1;fill:#ffbc2f;fill-opacity:1;stroke:#ffbc2f;stroke-width:0;stroke-linecap:square;stroke-linejoin:miter;stroke-dasharray:none;stroke-opacity:1;paint-order:stroke markers fill"
         id="rect32"
         width="11.615522"
         height="16.84774"
         x="63.972576"
         y="134.67728" />
      <rect
         style="opacity:1;fill:#ffbc2f;fill-opacity:1;stroke:#ffbc2f;stroke-width:0;stroke-linecap:square;stroke-linejoin:miter;stroke-dasharray:none;stroke-opacity:1;paint-order:stroke markers fill"
         id="rect33"
         width="1.627884"
         height="1.5415568"
         x="66.126625"
         y="133.50499" />
    </g>
    <g
       id="g34"
       transform="matrix(0.63149535,0,0,0.63149535,-209.60591,33.301892)"
       style="stroke-width:4;stroke-dasharray:none"
       inkscape:label="stroke">
      <path
         style="opacity:1;fill:none;stroke:#ffbc2f;stroke-width:4;stroke-linecap:round;stroke-linejoin:round;stroke-dasharray:none;paint-order:markers fill stroke"
         d="m 90.970819,149.99023 -23.318939,0.0987 c 0,0 -8.05159,1.40282 -8.92965,-8.92965 -0.657063,-7.73191 3.660159,-9.32337 3.660159,-9.32337 0,0 -7.527632,-3.87432 -8.711547,-7.22875 -1.183915,-3.35443 -0.789276,-6.1169 -2.565151,-7.89277 -1.775873,-1.77587 -8.836739,-15.30568 -8.836739,-15.30568 0,0 -1.029224,-0.8745 -1.127885,-5.018206 -0.09866,-4.143703 10.655242,-0.295979 10.655242,-0.295979 0,0 13.812348,5.426285 18.054714,9.175345 4.242364,3.74907 16.32817,16.32817 16.32817,16.32817"
         id="path33"
         sodipodi:nodetypes="ccscsscscsc" />
      <path
         style="opacity:1;fill:none;stroke:#ffbc2f;stroke-width:4;stroke-linecap:round;stroke-linejoin:round;stroke-dasharray:none;paint-order:markers fill stroke"
         d="m 86.48127,121.79532 c 0,0 12.0858,-12.5791 16.32817,-16.32817 4.24236,-3.74906 18.05471,-9.175345 18.05471,-9.175345 0,0 10.75394,-3.847724 10.65524,0.295979 -0.0987,4.143706 -1.12788,5.018206 -1.12788,5.018206 0,0 -7.06087,13.52981 -8.83674,15.30568 -1.77588,1.77587 -1.38124,5.72226 -2.56515,9.07669 -1.18392,3.35443 -6.75819,6.62978 -6.75819,6.62978 0,19.53244 0.0919,17.46758 -0.19493,17.47075 l -8.93772,0.0987 v 13.29147 L 91.654803,149.96265"
         id="path34"
         sodipodi:nodetypes="ccscssccsccc" />
    </g>
    <g
       id="g41"
       transform="matrix(0.65944284,0,0,0.65944284,-110.27728,24.807785)">
      <g
         id="g36"
         transform="translate(-19.594103,11.919308)"
         style="fill:#ffbc2f;fill-opacity:1;stroke:none;stroke-width:4;stroke-dasharray:none;stroke-opacity:1">
        <path
           style="opacity:1;fill:#ffbc2f;fill-opacity:1;stroke:none;stroke-width:4;stroke-linecap:round;stroke-linejoin:round;stroke-dasharray:none;stroke-opacity:1;paint-order:markers fill stroke"
           d="m 90.970819,149.99023 -23.318939,0.0987 c 0,0 -8.05159,1.40282 -8.92965,-8.92965 -0.657063,-7.73191 3.660159,-9.32337 3.660159,-9.32337 0,0 -7.527632,-3.87432 -8.711547,-7.22875 -1.183915,-3.35443 -0.789276,-6.1169 -2.565151,-7.89277 -1.775873,-1.77587 -8.836739,-15.30568 -8.836739,-15.30568 0,0 -1.029224,-0.8745 -1.127885,-5.018206 -0.09866,-4.143703 10.655242,-0.295979 10.655242,-0.295979 0,0 13.812348,5.426285 18.054714,9.175345 4.242364,3.74907 16.32817,16.32817 16.32817,16.32817"
           id="path35"
           sodipodi:nodetypes="ccscsscscsc" />
        <path
           style="opacity:1;fill:#ffbc2f;fill-opacity:1;stroke:none;stroke-width:4;stroke-linecap:round;stroke-linejoin:round;stroke-dasharray:none;stroke-opacity:1;paint-order:markers fill stroke"
           d="m 86.48127,121.79532 c 0,0 12.0858,-12.5791 16.32817,-16.32817 4.24236,-3.74906 18.05471,-9.175345 18.05471,-9.175345 0,0 10.75394,-3.847724 10.65524,0.295979 -0.0987,4.143706 -1.12788,5.018206 -1.12788,5.018206 0,0 -7.06087,13.52981 -8.83674,15.30568 -1.77588,1.77587 -1.38124,5.72226 -2.56515,9.07669 -1.18392,3.35443 -6.75819,6.62978 -6.75819,6.62978 0,19.53244 0.0919,17.46758 -0.19493,17.47075 l -8.93772,0.0987 v 13.29147 L 91.654803,149.96265"
           id="path36"
           sodipodi:nodetypes="ccscssccsccc" />
      </g>
      <path
         style="opacity:1;fill:#ffbc2f;fill-opacity:1;stroke:none;stroke-width:0;stroke-linecap:round;stroke-linejoin:round;stroke-dasharray:none;stroke-opacity:1;paint-order:markers fill stroke"
         id="path37"
         d="m 69.791158,151.85649 c -0.299696,0.67519 -0.398272,1.40802 -0.434842,2.14045 -0.03533,0.70752 -0.02011,1.35321 0.109035,2.04934 0.04373,0.23577 0.129394,0.4618 0.194093,0.69271 0.509288,-0.1198 0.925787,-0.15345 1.229206,-0.77835 0.194953,-0.40151 0.141796,-0.88369 0.157054,-1.32976 0.03906,-1.1419 -0.07754,-2.22122 -0.326252,-3.33521 -0.104291,-0.46712 -0.271532,-0.91792 -0.4073,-1.37688 -0.147487,-0.30996 -0.246012,-0.6484 -0.442465,-0.92988 -0.340686,-0.48815 -0.874022,-0.47734 -1.295376,0.0714 -0.206815,0.26932 -0.187987,0.65661 -0.219999,0.99467 -0.120094,1.26827 0.03731,1.89478 0.200036,3.17605 0.242514,0.98119 0.395486,1.95383 0.915199,2.84071 0.145838,0.24886 0.319614,0.52012 0.581647,0.64071 0.283458,0.13046 0.674147,0.2292 0.934376,0.057 0.570317,-0.37736 0.672351,-1.97857 0.744339,-2.4354 -0.06886,-1.30737 -0.01283,-1.75098 -0.377198,-2.99646 -0.103759,-0.35467 -0.216998,-0.71762 -0.421688,-1.02529 -0.408157,-0.61351 -1.044953,-0.46922 -1.516269,0.13906 -0.269293,0.34755 -0.254,0.84185 -0.381,1.26278 -0.04816,0.57923 -0.135919,1.15651 -0.144489,1.73767 -0.01688,1.14394 0.128762,2.63566 0.370285,3.75697 0.167793,0.77902 0.467217,1.77959 0.937045,2.4684 0.119857,0.17572 0.310235,0.29108 0.465352,0.43661 0.252421,0.0281 0.504841,0.0562 0.757259,0.0843 0.03451,-0.024 -0.303985,-0.51197 -0.338495,-0.48804 v 0 c 0.205274,0.0493 0.410551,0.0986 0.615826,0.14792 0.06651,-0.15294 0.164983,-0.29566 0.199525,-0.45882 0.158395,-0.74818 0.127473,-1.77087 0.07494,-2.49194 -0.04391,-0.6027 -0.117718,-1.20327 -0.204083,-1.80137 -0.275667,-1.90898 -0.285533,-1.72383 -0.796626,-3.51075 -0.184883,-0.36955 -0.252003,-0.8273 -0.554646,-1.10864 -0.457066,-0.4249 -1.098368,-0.55357 -1.236636,0.0991 -0.07197,0.33975 -0.05223,0.69427 -0.03667,1.04121 0.05649,1.2593 0.199816,1.64201 0.475231,2.88982 0.165685,0.41524 0.264451,0.86392 0.497057,1.24572 0.12978,0.21302 0.913765,0.81178 1.244407,0.59183 0.198516,-0.13206 0.135093,-0.46321 0.139297,-0.7016 0.01794,-1.0173 -0.228462,-1.88261 -0.433847,-2.87722 -0.385559,-1.23859 -0.505789,-1.84288 -1.102061,-2.96971 -0.156713,-0.29615 -0.278982,-0.65136 -0.558949,-0.83544 -0.535633,-0.35217 -1.054168,-0.30315 -1.200644,0.27993 -0.08122,0.32331 -0.05456,0.66448 -0.08184,0.99672 0.03039,0.47044 0.03141,0.94371 0.09118,1.41133 0.143214,1.12064 0.392793,2.17489 0.780063,3.23664 0.366615,1.00511 0.509064,1.54043 1.576991,1.95007 0.144703,0.0555 0.292222,-0.10337 0.438335,-0.15505 0.04442,-0.2359 0.110797,-0.46871 0.133266,-0.70771 0.06659,-0.70841 0.0217,-1.35661 -0.08531,-2.06058 -0.104809,-0.68953 -0.207653,-1.08762 -0.464865,-1.70985 -0.05108,-0.12358 -0.124314,-0.23679 -0.18647,-0.35518 0,-0.0434 -0.613027,-0.0434 -0.613027,0 z" />
      <path
         style="opacity:1;fill:#ffbc2f;fill-opacity:1;stroke:none;stroke-width:0;stroke-linecap:round;stroke-linejoin:round;stroke-dasharray:none;stroke-opacity:1;paint-order:markers fill stroke"
         id="path38"
         d="m 70.939611,158.82237 c -0.05153,0.15885 -0.06527,0.33398 -0.04351,0.49982 0.0049,0.0373 0.01516,0.0738 0.02275,0.11068 0.0209,0.11286 0.05675,0.22314 0.109953,0.32508 0.03332,0.0638 0.07814,0.12259 0.120325,0.18071 0.006,0.007 0.01339,0.0135 0.01783,0.0218 0.0056,0.0105 0.008,0.0224 0.01188,0.0336 0.01402,0.0409 0.02646,0.0823 0.0413,0.1229 0.0266,0.0727 0.0312,0.0776 0.06635,0.15186 0.07212,0.11552 0.113681,0.24559 0.177964,0.3648 -0.04662,-0.0215 0.02307,0.0384 0.02516,0.0264 0.0042,-0.024 7.93e-4,-0.0491 0.005,-0.0731 0.0056,-0.0311 0.02529,-0.0599 0.02445,-0.0915 -5.29e-4,-0.0213 -0.0471,0.004 -0.08781,0.0216 -0.173291,0.0754 -0.310949,0.21998 -0.362561,0.40397 -0.0076,0.0271 -0.0088,0.0557 -0.01323,0.0835 0.0013,0.008 2.1e-5,0.0293 0.0042,0.0228 0.01815,-0.0284 0.02339,-0.0637 0.04047,-0.0927 0.01296,-0.022 0.03811,-0.036 0.0488,-0.0592 0.0028,-0.006 -0.0096,-0.011 -0.01614,-0.0118 -0.03441,-0.004 -0.08223,0.0124 -0.112765,0.0204 -0.02418,0.0129 -0.05115,0.0215 -0.07254,0.0386 -0.170273,0.1362 -0.184989,0.29875 -0.137869,0.49444 0.03608,0.11198 0.0863,0.21705 0.168979,0.30203 0.07194,0.07 0.154805,0.11714 0.25342,0.13635 0.02188,0.004 0.04392,0.009 0.06619,0.009 0.06503,2.4e-4 0.129939,-0.006 0.19491,-0.008 0.0605,2.4e-4 0.119348,-0.0324 0.179806,-0.0283 -0.253839,-0.003 -0.03787,0.005 0.01976,0.0116 0.01172,7.9e-4 0.02342,0.002 0.03514,0.002 0.0578,0.001 0.115612,0.002 0.173424,0.003 0.05101,7.9e-4 0.09968,-0.005 0.150394,0.001 0.01675,0.002 0.03348,0.003 0.05021,0.005 0.02016,0.002 0.04023,0.005 0.06044,0.006 0.02011,0.001 0.0677,-0.018 0.06039,7.9e-4 -0.008,0.0206 -0.08296,-10e-4 -0.06525,0.0118 0.0236,0.0176 0.05878,0.004 0.08818,0.005 0.03214,0.002 0.06429,0.003 0.09644,0.005 0.167796,0.002 0.333473,0.008 0.486172,-0.0702 0.0694,-0.0354 0.134821,-0.09 0.184946,-0.14924 0.02712,-0.032 0.04808,-0.0688 0.07212,-0.10326 0.01937,-0.0359 -0.488109,-0.30998 -0.507492,-0.2741 v 0 c 0.0013,0.002 5.29e-4,-0.005 -0.02619,-0.006 -0.01519,-5.3e-4 -0.03038,2.6e-4 -0.04557,5.3e-4 -0.02498,2.5e-4 -0.0512,-0.007 -0.07495,7.9e-4 -0.02074,0.007 0.04361,0.002 0.06542,0.002 -0.195448,0.009 -0.391374,0.0147 -0.586031,0.0333 -0.03816,0.006 -0.071,0.004 -0.109284,0.004 -0.01183,-4e-5 -0.04733,-1.9e-4 -0.03551,5.3e-4 0.08594,0.004 0.141661,0.001 0.07162,0.004 -0.10188,0.009 -0.204523,-0.0206 -0.306562,-0.002 -0.06924,0.004 -0.138433,0.008 -0.2076,0.0135 0.277122,-0.005 0.0858,-0.0233 0.07803,0.0249 -0.0013,0.009 0.0032,0.0172 0.0026,0.0259 -0.0049,-0.004 -0.0098,-0.009 -0.01469,-0.013 -5.29e-4,0.004 0.0027,0.014 -0.0013,0.0126 -0.01691,-0.006 -0.02432,-0.0689 -0.02945,-0.0849 -0.0067,-0.0228 -0.01222,-0.0454 -0.01714,-0.0445 -0.0078,0.002 -0.0094,0.0129 -0.0136,0.0196 -0.01286,0.0205 -0.02268,0.043 -0.03768,0.062 -0.01352,0.0171 -0.03271,0.0289 -0.04719,0.0452 -0.0024,0.003 -0.0016,0.007 -0.0024,0.0105 0.09133,8e-4 0.185849,-0.0307 0.252055,-0.0973 0.04422,-0.0444 0.06368,-0.10863 0.103683,-0.15691 0.04096,-0.0193 0.06881,-0.0612 0.102311,-0.0904 0.01664,-0.0145 0.03443,-0.0277 0.05176,-0.0413 0.0217,-0.0171 0.04358,-0.0341 0.06536,-0.0511 0.03014,-0.0254 0.09466,-0.077 0.115959,-0.10793 0.09565,-0.13902 0.107958,-0.22523 0.08281,-0.38285 -0.0058,-0.0229 -0.01042,-0.0462 -0.01754,-0.0688 -0.03927,-0.12485 -0.111506,-0.23529 -0.161952,-0.35531 -0.07461,-0.13356 0.01476,0.0288 -0.06498,-0.12473 -0.03894,-0.075 -0.09005,-0.14372 -0.11562,-0.2252 -0.02196,-0.0481 -0.03953,-0.0975 -0.06022,-0.14604 -0.02416,-0.0567 -0.05488,-0.11106 -0.06749,-0.1722 0.003,-0.18384 0.01048,-0.37373 -0.05085,-0.54978 0,-0.0379 -0.535964,-0.0379 -0.535964,0 z" />
      <path
         style="opacity:1;fill:#ffbc2f;fill-opacity:1;stroke:none;stroke-width:0;stroke-linecap:round;stroke-linejoin:round;stroke-dasharray:none;stroke-opacity:1;paint-order:markers fill stroke"
         id="path39"
         d="m 70.334001,160.60597 c 0.01233,0.0278 0.02093,0.0576 0.03699,0.0835 0.236391,0.38022 0.684543,0.58073 1.101312,0.68777 0.160213,0.0412 0.325826,0.0573 0.488738,0.086 0.31324,-0.005 0.734886,0.0106 1.02919,-0.10206 0.29846,-0.11428 0.299518,-0.53367 0.225263,-0.76966 -0.0968,-0.30762 -0.583316,-0.57829 -0.80319,-0.73145 -0.202705,-0.0881 -0.39909,-0.19251 -0.608111,-0.26438 -0.372448,-0.12806 -0.787079,-0.21212 -1.183917,-0.20031 -0.145516,0.004 -0.293886,0.0212 -0.431142,0.0697 -0.17372,0.0614 -0.384608,0.10475 -0.489952,0.25592 -0.101201,0.14522 -0.03756,0.35201 -0.05635,0.52801 0.08776,0.13895 0.151268,0.2966 0.263282,0.41686 0.281207,0.30191 0.673684,0.50023 1.059135,0.62531 0.375316,0.12178 0.769855,0.17267 1.163007,0.13556 0.214599,-0.0203 0.424276,-0.0764 0.636416,-0.11464 0.0757,-0.0841 0.193582,-0.14426 0.227121,-0.25235 0.05153,-0.16608 0.06398,-0.35526 0.01299,-0.52151 -0.04201,-0.13698 -0.165727,-0.23746 -0.274384,-0.33085 -0.183044,-0.15733 -0.487613,-0.27286 -0.719751,-0.32318 -0.113432,-0.0246 -0.230809,-0.0248 -0.346215,-0.0372 -0.194022,0.0223 -0.487789,0.0366 -0.648679,0.15646 -0.07935,0.0591 -0.125336,0.1622 -0.144592,0.25926 -0.03301,0.16635 0.03645,0.32102 0.12746,0.44923 0.03049,0.043 0.0705,0.0783 0.105749,0.1174 0.04659,-0.0305 0.09167,0.12018 0.150915,0.10473 0.01347,-0.004 -0.0039,-0.0277 -0.0036,-0.0416 0.0013,-0.0646 -0.0031,-0.13019 0.0088,-0.19374 0.0061,-0.0325 0.04482,-0.0559 0.04388,-0.089 -5.29e-4,-0.0162 -0.03121,-0.009 -0.04681,-0.0134 -0.02585,0.003 -0.05216,0.002 -0.07752,0.008 -0.163098,0.0356 -0.301681,0.14537 -0.358831,0.30543 -0.01638,0.0459 -0.01767,0.0958 -0.02652,0.14376 0.0034,0.0406 0.0027,0.0817 0.01011,0.12172 0.02671,0.14418 0.112384,0.2693 0.23187,0.35162 -0.08559,-0.069 0.07532,0.0615 0.06605,0.0379 -0.0072,-0.0184 -0.02477,-0.0308 -0.03485,-0.0478 -0.01175,-0.0197 -0.01722,-0.0429 -0.0304,-0.0617 -0.004,-0.006 -4.5e-5,0.0142 0.0019,0.021 0.0053,0.0196 0.0131,0.0386 0.01963,0.0579 0.04875,0.11509 0.139766,0.19238 0.250844,0.24416 0.06962,0.032 0.145248,0.0438 0.220004,0.0576 0.118967,0.0245 0.241125,-0.003 0.361129,0.009 0.04282,-0.002 0.195289,0.007 -0.01328,5.3e-4 -0.01278,-5.3e-4 0.02553,-0.002 0.03833,-0.002 0.0069,2.3e-4 0.101261,0.0114 0.101769,0.0115 0.09096,0.0142 0.182425,0.009 0.273688,0.004 0.213415,-0.0104 0.127286,0.007 0.226129,-0.0156 0.126515,-0.0169 0.203686,-0.0872 0.257749,-0.2201 0.02035,-0.05 0.0016,-0.1079 0.0026,-0.16185 -0.0084,-0.0376 -0.539526,0.0813 -0.531122,0.11885 v 0 c 0.03259,-0.13858 0.0074,-0.0957 0.145899,-0.233 0.01116,-0.0111 0.03255,-0.01 0.0414,-0.0227 0.01011,-0.0148 -0.07058,0.0102 -0.05333,-0.008 -0.09085,-0.0188 0.0039,0.005 0.0541,-0.0152 0.01887,-0.007 -0.04035,-0.004 -0.0606,-0.005 -0.03789,-0.002 -0.104495,-5.3e-4 -0.142126,0.002 -0.02289,0.001 -0.0457,0.004 -0.06856,0.006 -0.0063,5.3e-4 -0.09601,0.009 -0.107412,0.009 -0.01355,1.8e-4 -0.02703,-0.003 -0.04059,-0.003 -0.09151,-0.001 -0.184089,-0.002 -0.275672,0.003 -0.03803,0.006 -0.07631,0.0102 -0.114657,0.013 -0.0084,5.3e-4 -0.03353,2.6e-4 -0.02514,5.3e-4 0.115052,0.003 0.146312,-0.0154 0.100103,0.008 -0.02694,0.008 -0.04829,-0.008 -0.07462,-0.0116 -0.0021,-2.6e-4 -0.0019,0.004 -0.0038,0.005 -0.0041,10e-4 -0.0084,-5.3e-4 -0.01257,-5.3e-4 -0.0076,-0.003 -0.01479,-0.007 -0.02281,-0.008 -0.0026,-2.7e-4 -0.0036,0.004 -0.0061,0.005 -0.0049,2.6e-4 -0.0098,-0.005 -0.01431,-0.003 -0.0031,0.001 5.3e-4,0.007 -0.0019,0.01 -0.0149,0.016 -0.005,-0.0216 -0.01053,0.0135 -2.38e-4,0.005 0.0031,0.0166 -7.94e-4,0.0139 -0.0064,-0.005 -0.0067,-0.0142 -0.0098,-0.0215 -0.0131,-0.0305 -0.02265,-0.0628 -0.0388,-0.0918 -0.0132,-0.0238 -0.03224,-0.0438 -0.04862,-0.0655 -0.0094,-0.0124 -0.01651,-0.0189 -0.0085,-0.0114 -0.01347,-0.0162 -0.05986,-0.0735 -0.0761,-0.0778 -0.0037,-0.001 -0.0071,0.003 -0.01066,0.004 -0.0019,0.004 -0.0447,0.075 -0.03755,0.076 0.01132,0.002 0.02262,-0.003 0.03387,-0.005 0.07534,-0.0138 0.05693,-0.0109 0.142094,-0.0336 0.08475,-0.0382 0.185277,-0.0721 0.231651,-0.16521 0.07858,-0.15781 0.05952,-0.32389 -0.0364,-0.46159 -0.01982,-0.0285 -0.04556,-0.0523 -0.06835,-0.0785 -0.02627,-0.0227 -0.05042,-0.048 -0.07878,-0.068 -0.02037,-0.0144 -0.04615,-0.0488 -0.06647,-0.0343 -0.0339,0.0241 -0.02641,0.0796 -0.04752,0.11542 -0.0259,0.044 -0.05098,0.0923 -0.09239,0.12219 -0.04041,0.0291 -0.14106,-0.003 -0.141952,0.0469 -7.94e-4,0.0481 0.09369,0.0215 0.140536,0.0322 0.180144,0.045 0.358868,0.0959 0.54002,0.13673 0.0762,0.0171 0.389419,0.11224 0.496803,0.0216 0.07502,-0.0634 0.118414,-0.16105 0.1481,-0.25465 0.0088,-0.0277 -0.02893,-0.0503 -0.0434,-0.0755 -0.01307,-0.19317 0.01476,-0.0582 -0.402762,-0.14384 -0.364712,-0.0748 -0.692264,-0.13733 -1.06008,-0.19834 -0.148923,-0.0247 -0.297534,-0.0529 -0.447717,-0.0682 -0.08144,-0.008 -0.163706,-0.002 -0.245557,-0.002 -0.05561,0.0676 -0.09776,0.14898 -0.166839,0.2027 -0.05591,0.0435 -0.214132,0.0114 -0.196815,0.0801 0.02008,0.0797 0.156892,0.0489 0.235431,0.0731 0.517592,0.15916 1.037331,0.31314 1.569197,0.41852 0.01516,0.003 0.709797,0.15721 0.838782,0.0748 0.385103,-0.24589 0.216439,-0.24576 0.109974,-0.36408 -0.01082,-0.012 -0.0084,-0.0389 -0.02426,-0.0421 -0.119292,-0.0238 -0.242146,-0.0234 -0.36322,-0.0351 -0.192569,-0.0106 -0.648044,-0.0362 -0.845671,-0.0456 -0.107218,-0.005 -0.214456,-0.01 -0.321744,-0.0133 -0.06326,-0.002 -0.127286,0.007 -0.189847,-0.002 -0.0542,-0.008 -0.11816,-0.0613 -0.160647,-0.0919 -0.02082,-0.0336 -0.495477,0.26091 -0.474654,0.29447 z" />
      <rect
         style="opacity:1;fill:#ffbc2f;fill-opacity:1;stroke:#ffbc2f;stroke-width:0;stroke-linecap:square;stroke-linejoin:miter;stroke-dasharray:none;stroke-opacity:1;paint-order:stroke markers fill"
         id="rect39"
         width="1.9546918"
         height="1.0420886"
         x="70.614288"
         y="160.87183"
         rx="0"
         ry="0" />
      <rect
         style="opacity:1;fill:#ffbc2f;fill-opacity:1;stroke:#ffbc2f;stroke-width:0;stroke-linecap:square;stroke-linejoin:miter;stroke-dasharray:none;stroke-opacity:1;paint-order:stroke markers fill"
         id="rect40"
         width="11.615522"
         height="16.84774"
         x="63.972576"
         y="134.67728" />
      <rect
         style="opacity:1;fill:#ffbc2f;fill-opacity:1;stroke:#ffbc2f;stroke-width:0;stroke-linecap:square;stroke-linejoin:miter;stroke-dasharray:none;stroke-opacity:1;paint-order:stroke markers fill"
         id="rect41"
         width="1.627884"
         height="1.5415568"
         x="66.126625"
         y="133.50499" />
    </g>
    <rect
       style="stroke:none;fill:url(#pattern42)"
       transform="scale(0.26458333)"
       width="225.25984"
       height="174.2858"
       x="-366.34436"
       y="70.809153"
       id="rect42" />
    <rect
       style="opacity:1;fill:url(#pattern43);stroke:#ffbc2f;stroke-width:0;stroke-linecap:square;paint-order:stroke markers fill;fill-opacity:1"
       id="rect43"
       width="297.42609"
       height="210.07315"
       x="0"
       y="8.5173923e-08" />
  </g>
</svg>
